%TF.GenerationSoftware,KiCad,Pcbnew,7.0.7+dfsg-1*%
%TF.CreationDate,2023-09-07T23:36:34-05:00*%
%TF.ProjectId,unified_control_board,756e6966-6965-4645-9f63-6f6e74726f6c,rev?*%
%TF.SameCoordinates,Original*%
%TF.FileFunction,Copper,L3,Inr*%
%TF.FilePolarity,Positive*%
%FSLAX46Y46*%
G04 Gerber Fmt 4.6, Leading zero omitted, Abs format (unit mm)*
G04 Created by KiCad (PCBNEW 7.0.7+dfsg-1) date 2023-09-07 23:36:34*
%MOMM*%
%LPD*%
G01*
G04 APERTURE LIST*
%TA.AperFunction,ComponentPad*%
%ADD10R,1.700000X1.700000*%
%TD*%
%TA.AperFunction,ComponentPad*%
%ADD11O,1.700000X1.700000*%
%TD*%
%TA.AperFunction,ComponentPad*%
%ADD12C,2.280000*%
%TD*%
%TA.AperFunction,ComponentPad*%
%ADD13R,2.000000X2.000000*%
%TD*%
%TA.AperFunction,ComponentPad*%
%ADD14C,2.000000*%
%TD*%
%TA.AperFunction,ViaPad*%
%ADD15C,2.000000*%
%TD*%
%TA.AperFunction,ViaPad*%
%ADD16C,0.600000*%
%TD*%
%TA.AperFunction,ViaPad*%
%ADD17C,0.800000*%
%TD*%
%TA.AperFunction,Conductor*%
%ADD18C,0.200000*%
%TD*%
%TA.AperFunction,Conductor*%
%ADD19C,0.150000*%
%TD*%
G04 APERTURE END LIST*
D10*
%TO.N,/PWM13*%
%TO.C,J13*%
X41225000Y-106690000D03*
D11*
%TO.N,+6V*%
X43765000Y-106690000D03*
%TO.N,Net-(D13-K)*%
X46305000Y-106690000D03*
%TD*%
D10*
%TO.N,/PWM15*%
%TO.C,J15*%
X41225000Y-118190000D03*
D11*
%TO.N,+6V*%
X43765000Y-118190000D03*
%TO.N,Net-(D15-K)*%
X46305000Y-118190000D03*
%TD*%
D10*
%TO.N,/PWM32*%
%TO.C,J32*%
X116300000Y-31100000D03*
D11*
%TO.N,+6V*%
X113760000Y-31100000D03*
%TO.N,Net-(D32-K)*%
X111220000Y-31100000D03*
%TD*%
D10*
%TO.N,/MISO*%
%TO.C,J34*%
X91725000Y-70275000D03*
D11*
%TO.N,VDD*%
X91725000Y-67735000D03*
%TO.N,/SCK*%
X94265000Y-70275000D03*
%TO.N,/MOSI*%
X94265000Y-67735000D03*
%TO.N,/RST*%
X96805000Y-70275000D03*
%TO.N,GND*%
X96805000Y-67735000D03*
%TD*%
D10*
%TO.N,/RxD_3v3*%
%TO.C,J35*%
X78975000Y-97000000D03*
D11*
%TO.N,/TxD_3v3*%
X81515000Y-97000000D03*
%TO.N,GND*%
X84055000Y-97000000D03*
%TD*%
D10*
%TO.N,/PWM7*%
%TO.C,J7*%
X41250000Y-65750000D03*
D11*
%TO.N,+6V*%
X43790000Y-65750000D03*
%TO.N,Net-(D7-K)*%
X46330000Y-65750000D03*
%TD*%
D10*
%TO.N,/PWM20*%
%TO.C,J20*%
X116250000Y-106540000D03*
D11*
%TO.N,+6V*%
X113710000Y-106540000D03*
%TO.N,Net-(D20-K)*%
X111170000Y-106540000D03*
%TD*%
D10*
%TO.N,/PWM31*%
%TO.C,J31*%
X116300000Y-36850000D03*
D11*
%TO.N,+6V*%
X113760000Y-36850000D03*
%TO.N,Net-(D31-K)*%
X111220000Y-36850000D03*
%TD*%
D10*
%TO.N,/PWM22*%
%TO.C,J22*%
X116275000Y-95040000D03*
D11*
%TO.N,+6V*%
X113735000Y-95040000D03*
%TO.N,Net-(D22-K)*%
X111195000Y-95040000D03*
%TD*%
D10*
%TO.N,/PWM14*%
%TO.C,J14*%
X41225000Y-112440000D03*
D11*
%TO.N,+6V*%
X43765000Y-112440000D03*
%TO.N,Net-(D14-K)*%
X46305000Y-112440000D03*
%TD*%
D10*
%TO.N,/PWM10*%
%TO.C,J10*%
X41250000Y-89440000D03*
D11*
%TO.N,+6V*%
X43790000Y-89440000D03*
%TO.N,Net-(D10-K)*%
X46330000Y-89440000D03*
%TD*%
D10*
%TO.N,/PWM25*%
%TO.C,J25*%
X116275000Y-71350000D03*
D11*
%TO.N,+6V*%
X113735000Y-71350000D03*
%TO.N,Net-(D25-K)*%
X111195000Y-71350000D03*
%TD*%
D10*
%TO.N,/PWM1*%
%TO.C,J1*%
X41275000Y-31250000D03*
D11*
%TO.N,+6V*%
X43815000Y-31250000D03*
%TO.N,Net-(D1-K)*%
X46355000Y-31250000D03*
%TD*%
D10*
%TO.N,/PWM23*%
%TO.C,J23*%
X116275000Y-89290000D03*
D11*
%TO.N,+6V*%
X113735000Y-89290000D03*
%TO.N,Net-(D23-K)*%
X111195000Y-89290000D03*
%TD*%
D12*
%TO.N,GND*%
%TO.C,J33*%
X69175000Y-46970000D03*
X73175000Y-46970000D03*
X69175000Y-35290000D03*
X73175000Y-35290000D03*
%TO.N,+6V*%
X84175000Y-46970000D03*
X84175000Y-35290000D03*
X88175000Y-46970000D03*
X88175000Y-35290000D03*
%TD*%
D10*
%TO.N,/PWM8*%
%TO.C,J8*%
X41250000Y-71500000D03*
D11*
%TO.N,+6V*%
X43790000Y-71500000D03*
%TO.N,Net-(D8-K)*%
X46330000Y-71500000D03*
%TD*%
D10*
%TO.N,/PWM28*%
%TO.C,J28*%
X116275000Y-54100000D03*
D11*
%TO.N,+6V*%
X113735000Y-54100000D03*
%TO.N,Net-(D28-K)*%
X111195000Y-54100000D03*
%TD*%
D10*
%TO.N,/PWM3*%
%TO.C,J3*%
X41275000Y-42750000D03*
D11*
%TO.N,+6V*%
X43815000Y-42750000D03*
%TO.N,Net-(D3-K)*%
X46355000Y-42750000D03*
%TD*%
D13*
%TO.N,+6V*%
%TO.C,C8*%
X73250000Y-58617677D03*
D14*
%TO.N,GND*%
X73250000Y-53617677D03*
%TD*%
D10*
%TO.N,/PWM26*%
%TO.C,J26*%
X116275000Y-65600000D03*
D11*
%TO.N,+6V*%
X113735000Y-65600000D03*
%TO.N,Net-(D26-K)*%
X111195000Y-65600000D03*
%TD*%
D10*
%TO.N,/PWM17*%
%TO.C,J17*%
X116250000Y-123790000D03*
D11*
%TO.N,+6V*%
X113710000Y-123790000D03*
%TO.N,Net-(D17-K)*%
X111170000Y-123790000D03*
%TD*%
D10*
%TO.N,/PWM29*%
%TO.C,J29*%
X116300000Y-48350000D03*
D11*
%TO.N,+6V*%
X113760000Y-48350000D03*
%TO.N,Net-(D29-K)*%
X111220000Y-48350000D03*
%TD*%
D10*
%TO.N,/PWM6*%
%TO.C,J6*%
X41250000Y-60000000D03*
D11*
%TO.N,+6V*%
X43790000Y-60000000D03*
%TO.N,Net-(D6-K)*%
X46330000Y-60000000D03*
%TD*%
D10*
%TO.N,/PWM12*%
%TO.C,J12*%
X41250000Y-100940000D03*
D11*
%TO.N,+6V*%
X43790000Y-100940000D03*
%TO.N,Net-(D12-K)*%
X46330000Y-100940000D03*
%TD*%
D10*
%TO.N,/PWM4*%
%TO.C,J4*%
X41275000Y-48500000D03*
D11*
%TO.N,+6V*%
X43815000Y-48500000D03*
%TO.N,Net-(D4-K)*%
X46355000Y-48500000D03*
%TD*%
D10*
%TO.N,/PWM9*%
%TO.C,J9*%
X41250000Y-83690000D03*
D11*
%TO.N,+6V*%
X43790000Y-83690000D03*
%TO.N,Net-(D9-K)*%
X46330000Y-83690000D03*
%TD*%
D10*
%TO.N,/PWM27*%
%TO.C,J27*%
X116275000Y-59850000D03*
D11*
%TO.N,+6V*%
X113735000Y-59850000D03*
%TO.N,Net-(D27-K)*%
X111195000Y-59850000D03*
%TD*%
D10*
%TO.N,/PWM11*%
%TO.C,J11*%
X41250000Y-95190000D03*
D11*
%TO.N,+6V*%
X43790000Y-95190000D03*
%TO.N,Net-(D11-K)*%
X46330000Y-95190000D03*
%TD*%
D10*
%TO.N,/PWM21*%
%TO.C,J21*%
X116275000Y-100790000D03*
D11*
%TO.N,+6V*%
X113735000Y-100790000D03*
%TO.N,Net-(D21-K)*%
X111195000Y-100790000D03*
%TD*%
D10*
%TO.N,/PWM16*%
%TO.C,J16*%
X41225000Y-123940000D03*
D11*
%TO.N,+6V*%
X43765000Y-123940000D03*
%TO.N,Net-(D16-K)*%
X46305000Y-123940000D03*
%TD*%
D10*
%TO.N,/PWM19*%
%TO.C,J19*%
X116250000Y-112290000D03*
D11*
%TO.N,+6V*%
X113710000Y-112290000D03*
%TO.N,Net-(D19-K)*%
X111170000Y-112290000D03*
%TD*%
D10*
%TO.N,/PWM2*%
%TO.C,J2*%
X41275000Y-37000000D03*
D11*
%TO.N,+6V*%
X43815000Y-37000000D03*
%TO.N,Net-(D2-K)*%
X46355000Y-37000000D03*
%TD*%
D10*
%TO.N,/PWM24*%
%TO.C,J24*%
X116275000Y-83540000D03*
D11*
%TO.N,+6V*%
X113735000Y-83540000D03*
%TO.N,Net-(D24-K)*%
X111195000Y-83540000D03*
%TD*%
D14*
%TO.N,GND*%
%TO.C,C7*%
X62367677Y-64750000D03*
D13*
%TO.N,+6V*%
X67367677Y-64750000D03*
%TD*%
D10*
%TO.N,/PWM5*%
%TO.C,J5*%
X41250000Y-54250000D03*
D11*
%TO.N,+6V*%
X43790000Y-54250000D03*
%TO.N,Net-(D5-K)*%
X46330000Y-54250000D03*
%TD*%
D10*
%TO.N,/PWM30*%
%TO.C,J30*%
X116300000Y-42600000D03*
D11*
%TO.N,+6V*%
X113760000Y-42600000D03*
%TO.N,Net-(D30-K)*%
X111220000Y-42600000D03*
%TD*%
D10*
%TO.N,+6V*%
%TO.C,J36*%
X90475000Y-97000000D03*
D11*
%TO.N,Net-(J36-Pin_2)*%
X93015000Y-97000000D03*
%TD*%
D10*
%TO.N,/PWM18*%
%TO.C,J18*%
X116250000Y-118040000D03*
D11*
%TO.N,+6V*%
X113710000Y-118040000D03*
%TO.N,Net-(D18-K)*%
X111170000Y-118040000D03*
%TD*%
D15*
%TO.N,+6V*%
X88000000Y-39375000D03*
X84500000Y-42875000D03*
X86250000Y-37625000D03*
X88000000Y-42875000D03*
X86250000Y-41125000D03*
X86250000Y-44625000D03*
X84500000Y-39375000D03*
%TO.N,GND*%
X71250000Y-44600000D03*
X73000000Y-42850000D03*
X69500000Y-42850000D03*
X71250000Y-41100000D03*
X73000000Y-39350000D03*
X69500000Y-39350000D03*
X71250000Y-37600000D03*
D16*
X78750000Y-79000000D03*
X79500000Y-78250000D03*
X78000000Y-78250000D03*
X78750000Y-77500000D03*
X79500000Y-76750000D03*
X80250000Y-77500000D03*
X77250000Y-77500000D03*
X78750000Y-76000000D03*
X78000000Y-76750000D03*
D17*
%TO.N,+3V3*%
X70000000Y-97100000D03*
X74000000Y-97750000D03*
%TO.N,VDD*%
X74000000Y-93000000D03*
D16*
%TO.N,/RxD*%
X72750000Y-92750000D03*
%TO.N,/TxD*%
X71750000Y-92750000D03*
D17*
%TO.N,GND*%
X81250000Y-112500000D03*
X70000000Y-107500000D03*
X70000000Y-102500000D03*
X66250000Y-107500000D03*
X58750000Y-102500000D03*
X98750000Y-103750000D03*
X97500000Y-112500000D03*
X92500000Y-111250000D03*
X77500000Y-112500000D03*
X72500000Y-107500000D03*
X83750000Y-110000000D03*
X76250000Y-102500000D03*
X82500000Y-107500000D03*
X76250000Y-112500000D03*
X93750000Y-102500000D03*
X67500000Y-111250000D03*
X95000000Y-106250000D03*
X80000000Y-112500000D03*
X76250000Y-105000000D03*
X72500000Y-112500000D03*
X83750000Y-108750000D03*
X97500000Y-103750000D03*
X75000000Y-108750000D03*
X83750000Y-107500000D03*
X96250000Y-111250000D03*
X62500000Y-106250000D03*
X88750000Y-102500000D03*
X65000000Y-103750000D03*
X96250000Y-107500000D03*
X97500000Y-110000000D03*
X93750000Y-106250000D03*
X61250000Y-105000000D03*
X88750000Y-103750000D03*
X90000000Y-107500000D03*
X66250000Y-111250000D03*
X76250000Y-111250000D03*
X72500000Y-111250000D03*
X86250000Y-112500000D03*
X96250000Y-103750000D03*
X61250000Y-111250000D03*
X66250000Y-106250000D03*
X90000000Y-103750000D03*
X95000000Y-102500000D03*
X61250000Y-103750000D03*
X62500000Y-111250000D03*
X90000000Y-106250000D03*
X93750000Y-111250000D03*
X61250000Y-102500000D03*
X67500000Y-108750000D03*
X71250000Y-110000000D03*
X90000000Y-108750000D03*
X65000000Y-102500000D03*
X71250000Y-112500000D03*
X67500000Y-103750000D03*
X66250000Y-108750000D03*
X83750000Y-111250000D03*
X76250000Y-106250000D03*
X71250000Y-106250000D03*
X71250000Y-103750000D03*
X71250000Y-108750000D03*
X93750000Y-103750000D03*
X88750000Y-108750000D03*
X95000000Y-107500000D03*
X66250000Y-110000000D03*
X95000000Y-103750000D03*
X66250000Y-112500000D03*
X68750000Y-103750000D03*
X62500000Y-108750000D03*
X98750000Y-108750000D03*
X75000000Y-102500000D03*
X70000000Y-108750000D03*
X82500000Y-103750000D03*
X93750000Y-107500000D03*
X81250000Y-111250000D03*
X90000000Y-105000000D03*
X82500000Y-106250000D03*
X95000000Y-112500000D03*
X63750000Y-102500000D03*
X90000000Y-102500000D03*
X62500000Y-102500000D03*
X78750000Y-111250000D03*
X83750000Y-102500000D03*
X61250000Y-112500000D03*
X62500000Y-112500000D03*
X93750000Y-112500000D03*
X88750000Y-111250000D03*
X76250000Y-107500000D03*
X97500000Y-102500000D03*
X76250000Y-108750000D03*
X83750000Y-103750000D03*
X76250000Y-110000000D03*
X68750000Y-102500000D03*
X98750000Y-105000000D03*
X71250000Y-107500000D03*
X63750000Y-103750000D03*
X97500000Y-107500000D03*
X84500000Y-78000000D03*
X61250000Y-108750000D03*
X72500000Y-105000000D03*
X85000000Y-111250000D03*
X61250000Y-107500000D03*
X77500000Y-111250000D03*
X60000000Y-102500000D03*
X97500000Y-108750000D03*
X62500000Y-107500000D03*
X75000000Y-105000000D03*
X82500000Y-105000000D03*
X72500000Y-110000000D03*
X86250000Y-111250000D03*
X75000000Y-112500000D03*
X67500000Y-110000000D03*
X97500000Y-111250000D03*
X87500000Y-111250000D03*
X98750000Y-110000000D03*
X92500000Y-103750000D03*
X67500000Y-112500000D03*
X88750000Y-106250000D03*
X61250000Y-106250000D03*
X88750000Y-105000000D03*
X83750000Y-105000000D03*
X72750000Y-77500000D03*
X90000000Y-110000000D03*
X92500000Y-106250000D03*
X76250000Y-103750000D03*
X93750000Y-105000000D03*
X58750000Y-103750000D03*
X61250000Y-110000000D03*
X78750000Y-112500000D03*
X60000000Y-103750000D03*
X80000000Y-111250000D03*
X71250000Y-111250000D03*
X82500000Y-110000000D03*
X75000000Y-106250000D03*
X72500000Y-106250000D03*
X87500000Y-112500000D03*
X96250000Y-102500000D03*
X68750000Y-107500000D03*
X96250000Y-108750000D03*
X68750000Y-108750000D03*
X70000000Y-103750000D03*
X88750000Y-110000000D03*
X67500000Y-107500000D03*
X67500000Y-106250000D03*
X75000000Y-107500000D03*
X62500000Y-103750000D03*
X75000000Y-103750000D03*
X85000000Y-112500000D03*
X98750000Y-111250000D03*
X95000000Y-111250000D03*
X72500000Y-108750000D03*
X67500000Y-105000000D03*
X82500000Y-102500000D03*
X83750000Y-106250000D03*
X62500000Y-110000000D03*
X75000000Y-111250000D03*
X66250000Y-105000000D03*
X71250000Y-105000000D03*
X82500000Y-108750000D03*
X92500000Y-105000000D03*
X62500000Y-105000000D03*
X88750000Y-107500000D03*
X75000000Y-110000000D03*
X96250000Y-112500000D03*
%TO.N,VDD*%
X84455000Y-79375000D03*
X82750000Y-68000600D03*
X89250000Y-57750000D03*
X73750000Y-82750000D03*
X72750000Y-76250000D03*
X90250000Y-61000000D03*
X82250000Y-72000000D03*
D16*
%TO.N,/MISO*%
X88000000Y-72700497D03*
%TO.N,/SCK*%
X88000000Y-74299503D03*
%TO.N,/MOSI*%
X88000000Y-73500000D03*
D17*
%TO.N,/RST*%
X92500000Y-110000000D03*
D16*
X82950497Y-71250000D03*
%TO.N,/TxD*%
X74487787Y-71250000D03*
%TO.N,/RxD*%
X75508070Y-71244946D03*
%TO.N,/FAN*%
X84750000Y-72750000D03*
X86360000Y-87630000D03*
%TO.N,/PWM1*%
X71209487Y-66540488D03*
%TO.N,/PWM2*%
X70679541Y-67070498D03*
%TO.N,/PWM3*%
X70149506Y-67600419D03*
%TO.N,/PWM5*%
X69089260Y-68660086D03*
%TO.N,/PWM6*%
X68561219Y-69191994D03*
%TO.N,/PWM7*%
X68017156Y-69707503D03*
%TO.N,/PWM8*%
X67500000Y-70250000D03*
%TO.N,/PWM9*%
X73250000Y-86750000D03*
%TO.N,/PWM10*%
X72735665Y-87295173D03*
%TO.N,/PWM11*%
X72188603Y-87807499D03*
%TO.N,/PWM12*%
X71660974Y-88339817D03*
%TO.N,/PWM13*%
X71130485Y-88869285D03*
%TO.N,/PWM14*%
X70600667Y-89399424D03*
%TO.N,/PWM15*%
X70070623Y-89929337D03*
%TO.N,/PWM16*%
X69500000Y-90500000D03*
%TO.N,/PWM17*%
X82550000Y-90805000D03*
%TO.N,/PWM18*%
X81915000Y-90180174D03*
%TO.N,/PWM19*%
X81280000Y-89644582D03*
%TO.N,/PWM20*%
X80645000Y-89120082D03*
%TO.N,/PWM21*%
X80117821Y-88587319D03*
%TO.N,/PWM22*%
X79573983Y-88071572D03*
%TO.N,/PWM23*%
X79053944Y-87524500D03*
%TO.N,/PWM24*%
X78490710Y-87030010D03*
%TO.N,/PWM25*%
X81500000Y-83750000D03*
%TO.N,/PWM26*%
X80900000Y-83200000D03*
%TO.N,/PWM27*%
X81500000Y-82600000D03*
%TO.N,/PWM28*%
X80900000Y-82075500D03*
%TO.N,/PWM29*%
X81500000Y-81551000D03*
%TO.N,/PWM30*%
X80900000Y-81000000D03*
%TO.N,/PWM31*%
X81500000Y-80400000D03*
%TO.N,/PWM32*%
X80900000Y-79875500D03*
%TO.N,Net-(Q1-G)*%
X61750000Y-72000000D03*
X51750000Y-33250000D03*
%TO.N,Net-(Q2-G)*%
X61250000Y-72750000D03*
X51750000Y-39000000D03*
%TO.N,Net-(Q3-G)*%
X61726027Y-73500000D03*
X51750000Y-44750000D03*
%TO.N,Net-(Q4-G)*%
X61250000Y-74250000D03*
X51750000Y-50500000D03*
%TO.N,Net-(Q5-G)*%
X61750000Y-75000000D03*
X51750000Y-56250000D03*
%TO.N,Net-(Q6-G)*%
X61250000Y-75674375D03*
X51750000Y-62000000D03*
%TO.N,Net-(Q7-G)*%
X61750000Y-76349068D03*
X51750000Y-67750000D03*
%TO.N,Net-(Q8-G)*%
X61250000Y-77000000D03*
X51500000Y-73500000D03*
%TO.N,Net-(Q9-G)*%
X61250000Y-78000000D03*
X51500000Y-85500000D03*
%TO.N,Net-(Q10-G)*%
X51500000Y-91250000D03*
X61750000Y-78750000D03*
%TO.N,Net-(Q11-G)*%
X61250000Y-79500000D03*
X51500000Y-97000000D03*
%TO.N,Net-(Q12-G)*%
X61815333Y-80099500D03*
X51500000Y-102750000D03*
%TO.N,Net-(Q13-G)*%
X61250000Y-80750000D03*
X51500000Y-108500000D03*
%TO.N,Net-(Q14-G)*%
X61815334Y-81349500D03*
X51750000Y-114250000D03*
%TO.N,Net-(Q15-G)*%
X51750000Y-120000000D03*
X61250000Y-82000000D03*
%TO.N,Net-(Q16-G)*%
X51500000Y-125750000D03*
X61815333Y-82599500D03*
%TO.N,/ENA16*%
X73750000Y-83750000D03*
X69750000Y-81000000D03*
%TO.N,/ENA32*%
X89000000Y-74500000D03*
X83750000Y-71250000D03*
D17*
%TO.N,+6V*%
X36250000Y-73750000D03*
X36250000Y-103750000D03*
X36250000Y-51250000D03*
X121250000Y-103750000D03*
X121250000Y-74250000D03*
X121250000Y-80750000D03*
X87500000Y-121500000D03*
X67000000Y-97550000D03*
X36250000Y-81250000D03*
X121500000Y-51250000D03*
D16*
%TO.N,Net-(Q17-G)*%
X96647000Y-82677000D03*
X105687500Y-121562500D03*
%TO.N,Net-(Q18-G)*%
X96012000Y-82042000D03*
X105750000Y-115750000D03*
D17*
%TO.N,+3V3*%
X65500000Y-92000000D03*
D16*
%TO.N,/PWM4*%
X69619661Y-68130530D03*
%TO.N,Net-(Q19-G)*%
X96647000Y-81407000D03*
X105750000Y-110000000D03*
%TO.N,Net-(Q20-G)*%
X105750000Y-104250000D03*
X96012000Y-80772000D03*
%TO.N,Net-(Q21-G)*%
X105750000Y-98500000D03*
X96647000Y-80137000D03*
%TO.N,Net-(Q22-G)*%
X105750000Y-92750000D03*
X96012000Y-79524500D03*
%TO.N,Net-(Q23-G)*%
X105750000Y-87000000D03*
X96647000Y-78867000D03*
%TO.N,Net-(Q24-G)*%
X105750000Y-81500000D03*
X96012000Y-78232000D03*
%TO.N,Net-(Q25-G)*%
X105750000Y-69850000D03*
X96004307Y-77089000D03*
%TO.N,Net-(Q26-G)*%
X96647000Y-76454000D03*
X105750000Y-64000000D03*
%TO.N,Net-(Q27-G)*%
X105750000Y-58250000D03*
X96012000Y-75692000D03*
%TO.N,Net-(Q28-G)*%
X96647000Y-75057000D03*
X105750000Y-52500000D03*
%TO.N,Net-(Q29-G)*%
X105750000Y-46750000D03*
X96012000Y-74422000D03*
%TO.N,Net-(Q30-G)*%
X105750000Y-41000000D03*
X96647000Y-73787000D03*
%TO.N,Net-(Q31-G)*%
X105735000Y-35235000D03*
X96012000Y-73152000D03*
%TO.N,Net-(Q32-G)*%
X105752500Y-29502500D03*
X96647000Y-72517000D03*
%TD*%
D18*
%TO.N,/RST*%
X96805000Y-70445000D02*
X96805000Y-70275000D01*
D19*
%TO.N,Net-(Q1-G)*%
X61124999Y-72000000D02*
X59059666Y-74065333D01*
X61750000Y-72000000D02*
X61124999Y-72000000D01*
X55610917Y-74065333D02*
X53850000Y-72304416D01*
X53850000Y-35350000D02*
X51750000Y-33250000D01*
X59059666Y-74065333D02*
X55610917Y-74065333D01*
X53850000Y-72304416D02*
X53850000Y-35350000D01*
%TO.N,Net-(Q2-G)*%
X55486653Y-74365333D02*
X59183930Y-74365333D01*
X59183930Y-74365333D02*
X60799263Y-72750000D01*
X53550000Y-72428680D02*
X55486653Y-74365333D01*
X53550000Y-40800000D02*
X53550000Y-72428680D01*
X51750000Y-39000000D02*
X53550000Y-40800000D01*
X60799263Y-72750000D02*
X61250000Y-72750000D01*
%TO.N,Net-(Q3-G)*%
X55362389Y-74665333D02*
X53250000Y-72552944D01*
X60473527Y-73500000D02*
X59308194Y-74665333D01*
X59308194Y-74665333D02*
X55362389Y-74665333D01*
X53250000Y-72552944D02*
X53250000Y-46250000D01*
X53250000Y-46250000D02*
X51750000Y-44750000D01*
X61726027Y-73500000D02*
X60473527Y-73500000D01*
%TO.N,Net-(Q4-G)*%
X52950000Y-51700000D02*
X51750000Y-50500000D01*
X60147791Y-74250000D02*
X59432458Y-74965333D01*
X59432458Y-74965333D02*
X55238125Y-74965333D01*
X52950000Y-72677208D02*
X52950000Y-51700000D01*
X55238125Y-74965333D02*
X52950000Y-72677208D01*
X61250000Y-74250000D02*
X60147791Y-74250000D01*
%TO.N,Net-(Q5-G)*%
X55113861Y-75265333D02*
X59556722Y-75265333D01*
X52650000Y-57150000D02*
X52650000Y-72801472D01*
X51750000Y-56250000D02*
X52650000Y-57150000D01*
X52650000Y-72801472D02*
X55113861Y-75265333D01*
X59822055Y-75000000D02*
X61750000Y-75000000D01*
X59556722Y-75265333D02*
X59822055Y-75000000D01*
%TO.N,Net-(Q6-G)*%
X61250000Y-75674375D02*
X61140958Y-75565333D01*
X52350000Y-72925736D02*
X52350000Y-62600000D01*
X54989597Y-75565333D02*
X52350000Y-72925736D01*
X61140958Y-75565333D02*
X54989597Y-75565333D01*
X52350000Y-62600000D02*
X51750000Y-62000000D01*
%TO.N,Net-(Q7-G)*%
X52050000Y-68050000D02*
X52050000Y-73050000D01*
X60023332Y-76349068D02*
X61750000Y-76349068D01*
X59539597Y-75865333D02*
X60023332Y-76349068D01*
X54865333Y-75865333D02*
X59539597Y-75865333D01*
X51750000Y-67750000D02*
X52050000Y-68050000D01*
X52050000Y-73050000D02*
X54865333Y-75865333D01*
%TO.N,Net-(Q8-G)*%
X59415333Y-76165333D02*
X54741069Y-76165333D01*
X61250000Y-77000000D02*
X60250000Y-77000000D01*
X52075736Y-73500000D02*
X51500000Y-73500000D01*
X54741069Y-76165333D02*
X52075736Y-73500000D01*
X60250000Y-77000000D02*
X59415333Y-76165333D01*
%TO.N,Net-(Q9-G)*%
X52350000Y-81291422D02*
X52350000Y-84650000D01*
X54741422Y-78900000D02*
X52350000Y-81291422D01*
X60250000Y-78000000D02*
X59350000Y-78900000D01*
X61250000Y-78000000D02*
X60250000Y-78000000D01*
X52350000Y-84650000D02*
X51500000Y-85500000D01*
X59350000Y-78900000D02*
X54741422Y-78900000D01*
%TO.N,Net-(Q10-G)*%
X59924264Y-78750000D02*
X61750000Y-78750000D01*
X52650000Y-90100000D02*
X52650000Y-81415686D01*
X52650000Y-81415686D02*
X54865686Y-79200000D01*
X59474264Y-79200000D02*
X59924264Y-78750000D01*
X51500000Y-91250000D02*
X52650000Y-90100000D01*
X54865686Y-79200000D02*
X59474264Y-79200000D01*
%TO.N,Net-(Q11-G)*%
X52950000Y-95550000D02*
X51500000Y-97000000D01*
X61250000Y-79500000D02*
X54989950Y-79500000D01*
X52950000Y-81539950D02*
X52950000Y-95550000D01*
X54989950Y-79500000D02*
X52950000Y-81539950D01*
%TO.N,Net-(Q12-G)*%
X51500000Y-102750000D02*
X51750000Y-102750000D01*
X55114214Y-79800000D02*
X59497056Y-79800000D01*
X53250000Y-101250000D02*
X53250000Y-81664214D01*
X53250000Y-81664214D02*
X55114214Y-79800000D01*
X59796556Y-80099500D02*
X61815333Y-80099500D01*
X59497056Y-79800000D02*
X59796556Y-80099500D01*
X51750000Y-102750000D02*
X53250000Y-101250000D01*
%TO.N,Net-(Q13-G)*%
X61250000Y-80750000D02*
X60022792Y-80750000D01*
X53550000Y-81788478D02*
X53550000Y-106450000D01*
X53550000Y-106450000D02*
X51500000Y-108500000D01*
X59372792Y-80100000D02*
X55238478Y-80100000D01*
X60022792Y-80750000D02*
X59372792Y-80100000D01*
X55238478Y-80100000D02*
X53550000Y-81788478D01*
%TO.N,Net-(Q14-G)*%
X59248528Y-80400000D02*
X55362742Y-80400000D01*
X53850000Y-81912742D02*
X53850000Y-112150000D01*
X60198028Y-81349500D02*
X59248528Y-80400000D01*
X61815334Y-81349500D02*
X60198028Y-81349500D01*
X55362742Y-80400000D02*
X53850000Y-81912742D01*
X53850000Y-112150000D02*
X51750000Y-114250000D01*
%TO.N,Net-(Q15-G)*%
X60424264Y-82000000D02*
X59124264Y-80700000D01*
X55487006Y-80700000D02*
X54150000Y-82037006D01*
X59124264Y-80700000D02*
X55487006Y-80700000D01*
X55682843Y-116067157D02*
X51750000Y-120000000D01*
X55682843Y-103000000D02*
X55682843Y-116067157D01*
X54150000Y-101467157D02*
X55682843Y-103000000D01*
X54150000Y-82037006D02*
X54150000Y-101467157D01*
X61250000Y-82000000D02*
X60424264Y-82000000D01*
%TO.N,Net-(Q16-G)*%
X60599500Y-82599500D02*
X59000000Y-81000000D01*
X54450000Y-101201472D02*
X56082843Y-102834315D01*
X61815333Y-82599500D02*
X60599500Y-82599500D01*
X56082843Y-121167157D02*
X51500000Y-125750000D01*
X54450000Y-82161270D02*
X54450000Y-101201472D01*
X59000000Y-81000000D02*
X55611270Y-81000000D01*
X56082843Y-102834315D02*
X56082843Y-121167157D01*
X55611270Y-81000000D02*
X54450000Y-82161270D01*
%TO.N,Net-(Q17-G)*%
X103275000Y-83595584D02*
X100703916Y-81024500D01*
X105687500Y-121562500D02*
X103275000Y-119150000D01*
X100703916Y-81024500D02*
X98299500Y-81024500D01*
X98299500Y-81024500D02*
X96647000Y-82677000D01*
X103275000Y-119150000D02*
X103275000Y-83595584D01*
%TO.N,Net-(Q18-G)*%
X103575000Y-113575000D02*
X103575000Y-83471320D01*
X98071963Y-80724500D02*
X96754463Y-82042000D01*
X96754463Y-82042000D02*
X96012000Y-82042000D01*
X105750000Y-115750000D02*
X103575000Y-113575000D01*
X100828180Y-80724500D02*
X98071963Y-80724500D01*
X103575000Y-83471320D02*
X100828180Y-80724500D01*
%TO.N,Net-(Q19-G)*%
X100952444Y-80424500D02*
X97947699Y-80424500D01*
X97947699Y-80424500D02*
X96965199Y-81407000D01*
X103875000Y-108125000D02*
X103875000Y-83347056D01*
X103875000Y-83347056D02*
X100952444Y-80424500D01*
X105750000Y-110000000D02*
X103875000Y-108125000D01*
X96965199Y-81407000D02*
X96647000Y-81407000D01*
%TO.N,Net-(Q20-G)*%
X104175000Y-83222792D02*
X101076708Y-80124500D01*
X105750000Y-104250000D02*
X104175000Y-102675000D01*
X97175935Y-80772000D02*
X96012000Y-80772000D01*
X97823435Y-80124500D02*
X97175935Y-80772000D01*
X101076708Y-80124500D02*
X97823435Y-80124500D01*
X104175000Y-102675000D02*
X104175000Y-83222792D01*
%TO.N,Net-(Q21-G)*%
X104475000Y-97225000D02*
X104475000Y-83098528D01*
X105750000Y-98500000D02*
X104475000Y-97225000D01*
X97386671Y-80137000D02*
X96647000Y-80137000D01*
X104475000Y-83098528D02*
X101200972Y-79824500D01*
X97699171Y-79824500D02*
X97386671Y-80137000D01*
X101200972Y-79824500D02*
X97699171Y-79824500D01*
%TO.N,Net-(Q22-G)*%
X104775000Y-91775000D02*
X104775000Y-82974264D01*
X105750000Y-92750000D02*
X104775000Y-91775000D01*
X101325236Y-79524500D02*
X96012000Y-79524500D01*
X104775000Y-82974264D02*
X101325236Y-79524500D01*
%TO.N,Net-(Q23-G)*%
X97850236Y-79224500D02*
X97492736Y-78867000D01*
X105075000Y-82850000D02*
X101449500Y-79224500D01*
X105075000Y-86325000D02*
X105075000Y-82850000D01*
X101449500Y-79224500D02*
X97850236Y-79224500D01*
X105750000Y-87000000D02*
X105075000Y-86325000D01*
X97492736Y-78867000D02*
X96647000Y-78867000D01*
%TO.N,Net-(Q24-G)*%
X101573764Y-78924500D02*
X97974500Y-78924500D01*
X105750000Y-81500000D02*
X104149264Y-81500000D01*
X104149264Y-81500000D02*
X101573764Y-78924500D01*
X97282000Y-78232000D02*
X96012000Y-78232000D01*
X97974500Y-78924500D02*
X97282000Y-78232000D01*
%TO.N,Net-(Q25-G)*%
X105750000Y-69850000D02*
X105185000Y-70415000D01*
X97790000Y-76292000D02*
X96993000Y-77089000D01*
X96993000Y-77089000D02*
X96004307Y-77089000D01*
X105185000Y-72828528D02*
X101721528Y-76292000D01*
X101721528Y-76292000D02*
X97790000Y-76292000D01*
X105185000Y-70415000D02*
X105185000Y-72828528D01*
%TO.N,Net-(Q26-G)*%
X97203736Y-76454000D02*
X96647000Y-76454000D01*
X104885000Y-69158032D02*
X104885000Y-72704264D01*
X105305000Y-64445000D02*
X105305000Y-68738032D01*
X105305000Y-68738032D02*
X104885000Y-69158032D01*
X101597264Y-75992000D02*
X97665736Y-75992000D01*
X104885000Y-72704264D02*
X101597264Y-75992000D01*
X97665736Y-75992000D02*
X97203736Y-76454000D01*
X105750000Y-64000000D02*
X105305000Y-64445000D01*
%TO.N,Net-(Q27-G)*%
X101473000Y-75692000D02*
X96012000Y-75692000D01*
X105750000Y-58250000D02*
X105005000Y-58995000D01*
X104585000Y-72580000D02*
X101473000Y-75692000D01*
X105005000Y-68613768D02*
X104585000Y-69033768D01*
X104585000Y-69033768D02*
X104585000Y-72580000D01*
X105005000Y-58995000D02*
X105005000Y-68613768D01*
%TO.N,Net-(Q28-G)*%
X101348736Y-75392000D02*
X97824944Y-75392000D01*
X104705000Y-53545000D02*
X104705000Y-68489504D01*
X104705000Y-68489504D02*
X104285000Y-68909504D01*
X104285000Y-72455736D02*
X101348736Y-75392000D01*
X104285000Y-68909504D02*
X104285000Y-72455736D01*
X97824944Y-75392000D02*
X97489944Y-75057000D01*
X97489944Y-75057000D02*
X96647000Y-75057000D01*
X105750000Y-52500000D02*
X104705000Y-53545000D01*
%TO.N,Net-(Q29-G)*%
X104405000Y-68365240D02*
X103985000Y-68785240D01*
X103985000Y-68785240D02*
X103985000Y-72331472D01*
X105750000Y-46750000D02*
X104405000Y-48095000D01*
X103985000Y-72331472D02*
X101224472Y-75092000D01*
X101224472Y-75092000D02*
X97949208Y-75092000D01*
X104405000Y-48095000D02*
X104405000Y-68365240D01*
X97279208Y-74422000D02*
X96012000Y-74422000D01*
X97949208Y-75092000D02*
X97279208Y-74422000D01*
%TO.N,Net-(Q30-G)*%
X105750000Y-41000000D02*
X104105000Y-42645000D01*
X103685000Y-72207208D02*
X101100208Y-74792000D01*
X101100208Y-74792000D02*
X98073472Y-74792000D01*
X104105000Y-42645000D02*
X104105000Y-68240976D01*
X98073472Y-74792000D02*
X97068472Y-73787000D01*
X97068472Y-73787000D02*
X96647000Y-73787000D01*
X104105000Y-68240976D02*
X103685000Y-68660976D01*
X103685000Y-68660976D02*
X103685000Y-72207208D01*
%TO.N,Net-(Q31-G)*%
X98197736Y-74492000D02*
X96857736Y-73152000D01*
X103805000Y-68116712D02*
X103385000Y-68536712D01*
X103805000Y-37165000D02*
X103805000Y-68116712D01*
X105735000Y-35235000D02*
X103805000Y-37165000D01*
X96857736Y-73152000D02*
X96012000Y-73152000D01*
X100975944Y-74492000D02*
X98197736Y-74492000D01*
X103385000Y-68536712D02*
X103385000Y-72082944D01*
X103385000Y-72082944D02*
X100975944Y-74492000D01*
%TO.N,Net-(Q32-G)*%
X105752500Y-29502500D02*
X103505000Y-31750000D01*
X103505000Y-67992448D02*
X103085000Y-68412448D01*
X100851680Y-74192000D02*
X98322000Y-74192000D01*
X103085000Y-68412448D02*
X103085000Y-71958680D01*
X103505000Y-31750000D02*
X103505000Y-67992448D01*
X103085000Y-71958680D02*
X100851680Y-74192000D01*
X98322000Y-74192000D02*
X96647000Y-72517000D01*
%TD*%
%TA.AperFunction,Conductor*%
%TO.N,GND*%
G36*
X103693039Y-27820185D02*
G01*
X103738794Y-27872989D01*
X103750000Y-27924500D01*
X103750000Y-30628443D01*
X103730315Y-30695482D01*
X103713681Y-30716124D01*
X103122327Y-31307479D01*
X103116224Y-31312831D01*
X103088844Y-31333841D01*
X103065361Y-31364446D01*
X102995314Y-31455732D01*
X102995312Y-31455735D01*
X102936519Y-31597675D01*
X102936519Y-31597676D01*
X102916465Y-31750000D01*
X102920969Y-31784210D01*
X102921500Y-31792311D01*
X102921500Y-67699391D01*
X102901815Y-67766430D01*
X102885181Y-67787072D01*
X102702327Y-67969927D01*
X102696225Y-67975278D01*
X102668841Y-67996292D01*
X102583356Y-68107699D01*
X102575314Y-68118180D01*
X102532474Y-68221606D01*
X102516519Y-68260124D01*
X102496465Y-68412448D01*
X102497661Y-68421536D01*
X102500969Y-68446658D01*
X102501500Y-68454759D01*
X102501500Y-71665624D01*
X102481815Y-71732663D01*
X102465181Y-71753305D01*
X100646306Y-73572181D01*
X100584983Y-73605666D01*
X100558625Y-73608500D01*
X98615056Y-73608500D01*
X98548017Y-73588815D01*
X98527375Y-73572181D01*
X97489826Y-72534633D01*
X97456341Y-72473310D01*
X97454287Y-72460834D01*
X97440218Y-72335956D01*
X97380042Y-72163983D01*
X97318382Y-72065853D01*
X97283111Y-72009719D01*
X97154281Y-71880889D01*
X97069789Y-71827799D01*
X97023498Y-71775464D01*
X97012850Y-71706410D01*
X97041225Y-71642562D01*
X97099615Y-71604190D01*
X97115353Y-71600496D01*
X97139636Y-71596444D01*
X97208611Y-71572764D01*
X97352574Y-71523342D01*
X97550576Y-71416189D01*
X97728240Y-71277906D01*
X97880722Y-71112268D01*
X98003860Y-70923791D01*
X98094296Y-70717616D01*
X98149564Y-70499368D01*
X98154438Y-70440547D01*
X98168156Y-70275005D01*
X98168156Y-70274994D01*
X98149565Y-70050640D01*
X98149563Y-70050628D01*
X98129431Y-69971130D01*
X98094296Y-69832384D01*
X98003860Y-69626209D01*
X97987706Y-69601484D01*
X97880723Y-69437734D01*
X97880715Y-69437723D01*
X97728243Y-69272097D01*
X97728238Y-69272092D01*
X97550577Y-69133812D01*
X97550572Y-69133808D01*
X97352580Y-69026661D01*
X97352577Y-69026659D01*
X97352574Y-69026658D01*
X97352571Y-69026657D01*
X97352569Y-69026656D01*
X97139637Y-68953556D01*
X96917569Y-68916500D01*
X96692431Y-68916500D01*
X96470362Y-68953556D01*
X96257430Y-69026656D01*
X96257419Y-69026661D01*
X96059427Y-69133808D01*
X96059422Y-69133812D01*
X95881761Y-69272092D01*
X95881756Y-69272097D01*
X95729284Y-69437723D01*
X95729276Y-69437734D01*
X95638808Y-69576206D01*
X95585662Y-69621562D01*
X95516431Y-69630986D01*
X95453095Y-69601484D01*
X95431192Y-69576206D01*
X95340723Y-69437734D01*
X95340715Y-69437723D01*
X95188243Y-69272097D01*
X95188238Y-69272092D01*
X95010577Y-69133812D01*
X95010578Y-69133812D01*
X95010576Y-69133811D01*
X94974070Y-69114055D01*
X94924479Y-69064836D01*
X94909371Y-68996619D01*
X94933541Y-68931064D01*
X94974070Y-68895945D01*
X94974084Y-68895936D01*
X95010576Y-68876189D01*
X95188240Y-68737906D01*
X95340722Y-68572268D01*
X95463860Y-68383791D01*
X95554296Y-68177616D01*
X95609564Y-67959368D01*
X95610056Y-67953434D01*
X95628156Y-67735005D01*
X95628156Y-67734994D01*
X95609565Y-67510640D01*
X95609563Y-67510628D01*
X95571087Y-67358689D01*
X95554296Y-67292384D01*
X95463860Y-67086209D01*
X95431191Y-67036206D01*
X95340723Y-66897734D01*
X95340715Y-66897723D01*
X95188243Y-66732097D01*
X95188238Y-66732092D01*
X95010577Y-66593812D01*
X95010572Y-66593808D01*
X94812580Y-66486661D01*
X94812577Y-66486659D01*
X94812574Y-66486658D01*
X94812571Y-66486657D01*
X94812569Y-66486656D01*
X94599637Y-66413556D01*
X94377569Y-66376500D01*
X94152431Y-66376500D01*
X93930362Y-66413556D01*
X93717430Y-66486656D01*
X93717419Y-66486661D01*
X93519427Y-66593808D01*
X93519422Y-66593812D01*
X93341761Y-66732092D01*
X93341756Y-66732097D01*
X93189284Y-66897723D01*
X93189276Y-66897734D01*
X93098807Y-67036206D01*
X93045660Y-67081563D01*
X92976429Y-67090986D01*
X92913093Y-67061483D01*
X92891191Y-67036206D01*
X92800722Y-66897732D01*
X92800717Y-66897727D01*
X92800715Y-66897723D01*
X92648243Y-66732097D01*
X92648238Y-66732092D01*
X92470577Y-66593812D01*
X92470572Y-66593808D01*
X92272580Y-66486661D01*
X92272577Y-66486659D01*
X92272574Y-66486658D01*
X92272571Y-66486657D01*
X92272569Y-66486656D01*
X92059637Y-66413556D01*
X91837569Y-66376500D01*
X91612431Y-66376500D01*
X91390362Y-66413556D01*
X91177430Y-66486656D01*
X91177419Y-66486661D01*
X90979427Y-66593808D01*
X90979422Y-66593812D01*
X90801761Y-66732092D01*
X90801756Y-66732097D01*
X90649284Y-66897723D01*
X90649276Y-66897734D01*
X90526140Y-67086207D01*
X90435703Y-67292385D01*
X90380436Y-67510628D01*
X90380434Y-67510640D01*
X90361844Y-67734994D01*
X90361844Y-67735005D01*
X90380434Y-67959359D01*
X90380436Y-67959371D01*
X90435703Y-68177614D01*
X90526140Y-68383792D01*
X90649276Y-68572265D01*
X90649284Y-68572276D01*
X90794489Y-68730008D01*
X90825412Y-68792662D01*
X90817552Y-68862088D01*
X90773405Y-68916244D01*
X90746596Y-68930172D01*
X90628794Y-68974111D01*
X90511739Y-69061739D01*
X90424111Y-69178795D01*
X90373011Y-69315795D01*
X90373011Y-69315797D01*
X90366500Y-69376345D01*
X90366500Y-71173654D01*
X90373011Y-71234202D01*
X90373011Y-71234204D01*
X90405436Y-71321135D01*
X90424111Y-71371204D01*
X90511739Y-71488261D01*
X90628796Y-71575889D01*
X90765799Y-71626989D01*
X90793050Y-71629918D01*
X90826345Y-71633499D01*
X90826362Y-71633500D01*
X92623638Y-71633500D01*
X92623654Y-71633499D01*
X92650692Y-71630591D01*
X92684201Y-71626989D01*
X92821204Y-71575889D01*
X92938261Y-71488261D01*
X93025889Y-71371204D01*
X93071138Y-71249887D01*
X93113009Y-71193956D01*
X93178474Y-71169539D01*
X93246746Y-71184391D01*
X93278545Y-71209236D01*
X93341760Y-71277906D01*
X93519424Y-71416189D01*
X93519425Y-71416189D01*
X93519427Y-71416191D01*
X93547751Y-71431519D01*
X93717426Y-71523342D01*
X93930365Y-71596444D01*
X94152431Y-71633500D01*
X94377569Y-71633500D01*
X94599635Y-71596444D01*
X94812574Y-71523342D01*
X95010576Y-71416189D01*
X95188240Y-71277906D01*
X95340722Y-71112268D01*
X95431193Y-70973790D01*
X95484338Y-70928437D01*
X95553569Y-70919013D01*
X95616905Y-70948515D01*
X95638804Y-70973787D01*
X95729278Y-71112268D01*
X95729283Y-71112273D01*
X95729284Y-71112276D01*
X95881756Y-71277902D01*
X95881760Y-71277906D01*
X96059424Y-71416189D01*
X96059425Y-71416189D01*
X96059427Y-71416191D01*
X96087751Y-71431519D01*
X96257426Y-71523342D01*
X96293685Y-71535789D01*
X96313458Y-71542578D01*
X96370473Y-71582964D01*
X96396604Y-71647763D01*
X96383552Y-71716403D01*
X96335464Y-71767091D01*
X96314151Y-71776900D01*
X96293986Y-71783956D01*
X96293984Y-71783956D01*
X96139718Y-71880889D01*
X96010889Y-72009718D01*
X95913958Y-72163982D01*
X95867588Y-72296501D01*
X95826866Y-72353277D01*
X95791501Y-72372587D01*
X95721786Y-72396982D01*
X95658982Y-72418958D01*
X95504718Y-72515889D01*
X95375889Y-72644718D01*
X95278958Y-72798982D01*
X95218782Y-72970953D01*
X95218781Y-72970958D01*
X95198384Y-73151996D01*
X95198384Y-73152003D01*
X95218781Y-73333041D01*
X95218782Y-73333046D01*
X95258137Y-73445514D01*
X95277203Y-73500003D01*
X95278958Y-73505017D01*
X95375889Y-73659281D01*
X95415927Y-73699319D01*
X95449412Y-73760642D01*
X95444428Y-73830334D01*
X95415927Y-73874681D01*
X95375889Y-73914718D01*
X95278958Y-74068982D01*
X95218782Y-74240953D01*
X95218781Y-74240958D01*
X95198384Y-74421996D01*
X95198384Y-74422003D01*
X95218781Y-74603041D01*
X95218782Y-74603046D01*
X95236094Y-74652520D01*
X95278957Y-74775015D01*
X95375889Y-74929281D01*
X95415927Y-74969319D01*
X95449412Y-75030640D01*
X95444428Y-75100331D01*
X95415928Y-75144679D01*
X95375889Y-75184718D01*
X95278958Y-75338982D01*
X95218782Y-75510953D01*
X95218781Y-75510958D01*
X95198384Y-75691996D01*
X95198384Y-75692003D01*
X95218781Y-75873041D01*
X95218782Y-75873046D01*
X95278958Y-76045017D01*
X95375889Y-76199281D01*
X95475580Y-76298972D01*
X95509065Y-76360295D01*
X95504081Y-76429987D01*
X95475581Y-76474334D01*
X95368195Y-76581720D01*
X95271265Y-76735982D01*
X95211089Y-76907953D01*
X95211088Y-76907958D01*
X95190691Y-77088996D01*
X95190691Y-77089003D01*
X95211088Y-77270041D01*
X95211089Y-77270046D01*
X95271265Y-77442017D01*
X95370941Y-77600649D01*
X95389941Y-77667885D01*
X95370941Y-77732593D01*
X95278958Y-77878982D01*
X95218782Y-78050953D01*
X95218781Y-78050958D01*
X95198384Y-78231996D01*
X95198384Y-78232003D01*
X95218781Y-78413041D01*
X95218782Y-78413046D01*
X95252128Y-78508343D01*
X95273338Y-78568958D01*
X95278958Y-78585017D01*
X95375889Y-78739281D01*
X95375890Y-78739282D01*
X95427177Y-78790570D01*
X95460661Y-78851893D01*
X95455676Y-78921585D01*
X95427177Y-78965930D01*
X95375889Y-79017218D01*
X95278958Y-79171482D01*
X95218782Y-79343453D01*
X95218781Y-79343458D01*
X95198384Y-79524496D01*
X95198384Y-79524503D01*
X95218781Y-79705541D01*
X95218782Y-79705546D01*
X95278958Y-79877517D01*
X95288510Y-79892719D01*
X95375889Y-80031781D01*
X95391090Y-80046982D01*
X95404678Y-80060570D01*
X95438162Y-80121894D01*
X95433176Y-80191585D01*
X95404678Y-80235930D01*
X95375888Y-80264720D01*
X95278958Y-80418982D01*
X95218782Y-80590953D01*
X95218781Y-80590958D01*
X95198384Y-80771996D01*
X95198384Y-80772003D01*
X95218781Y-80953041D01*
X95218782Y-80953046D01*
X95278958Y-81125017D01*
X95375889Y-81279280D01*
X95375889Y-81279281D01*
X95415927Y-81319319D01*
X95449412Y-81380640D01*
X95444428Y-81450331D01*
X95415928Y-81494679D01*
X95375889Y-81534718D01*
X95278958Y-81688982D01*
X95218782Y-81860953D01*
X95218781Y-81860958D01*
X95198384Y-82041996D01*
X95198384Y-82042003D01*
X95218781Y-82223041D01*
X95218782Y-82223046D01*
X95278958Y-82395017D01*
X95375888Y-82549281D01*
X95375889Y-82549281D01*
X95504719Y-82678111D01*
X95658985Y-82775043D01*
X95791502Y-82821412D01*
X95848276Y-82862133D01*
X95867588Y-82897499D01*
X95913957Y-83030016D01*
X95971472Y-83121549D01*
X96010889Y-83184281D01*
X96139719Y-83313111D01*
X96293985Y-83410043D01*
X96465952Y-83470216D01*
X96465953Y-83470217D01*
X96465958Y-83470218D01*
X96646996Y-83490616D01*
X96647000Y-83490616D01*
X96647004Y-83490616D01*
X96828041Y-83470218D01*
X96828044Y-83470217D01*
X96828047Y-83470217D01*
X97000015Y-83410043D01*
X97154281Y-83313111D01*
X97283111Y-83184281D01*
X97380043Y-83030015D01*
X97440217Y-82858047D01*
X97440217Y-82858046D01*
X97440218Y-82858044D01*
X97454287Y-82733164D01*
X97481352Y-82668750D01*
X97489816Y-82659375D01*
X98504873Y-81644319D01*
X98566197Y-81610834D01*
X98592555Y-81608000D01*
X100410861Y-81608000D01*
X100477900Y-81627685D01*
X100498542Y-81644319D01*
X102655181Y-83800957D01*
X102688666Y-83862280D01*
X102691500Y-83888638D01*
X102691500Y-119107687D01*
X102690969Y-119115789D01*
X102686465Y-119149999D01*
X102686465Y-119150000D01*
X102691500Y-119188243D01*
X102706518Y-119302322D01*
X102706519Y-119302324D01*
X102765313Y-119444266D01*
X102765314Y-119444267D01*
X102858843Y-119566157D01*
X102879610Y-119582092D01*
X102886222Y-119587166D01*
X102892317Y-119592510D01*
X103452131Y-120152324D01*
X103713681Y-120413874D01*
X103747166Y-120475197D01*
X103750000Y-120501555D01*
X103750000Y-127075500D01*
X103730315Y-127142539D01*
X103677511Y-127188294D01*
X103626000Y-127199500D01*
X53624000Y-127199500D01*
X53556961Y-127179815D01*
X53511206Y-127127011D01*
X53500000Y-127075500D01*
X53500000Y-124626554D01*
X53519685Y-124559515D01*
X53536314Y-124538878D01*
X56465539Y-121609653D01*
X56471614Y-121604327D01*
X56499000Y-121583314D01*
X56516276Y-121560798D01*
X56516280Y-121560794D01*
X56522481Y-121552712D01*
X56522483Y-121552711D01*
X56562929Y-121500000D01*
X86586496Y-121500000D01*
X86606458Y-121689928D01*
X86606459Y-121689931D01*
X86665470Y-121871549D01*
X86665473Y-121871556D01*
X86760960Y-122036944D01*
X86888747Y-122178866D01*
X87043248Y-122291118D01*
X87217712Y-122368794D01*
X87404513Y-122408500D01*
X87595487Y-122408500D01*
X87782288Y-122368794D01*
X87956752Y-122291118D01*
X88111253Y-122178866D01*
X88239040Y-122036944D01*
X88334527Y-121871556D01*
X88393542Y-121689928D01*
X88413504Y-121500000D01*
X88393542Y-121310072D01*
X88334527Y-121128444D01*
X88239040Y-120963056D01*
X88111253Y-120821134D01*
X87956752Y-120708882D01*
X87782288Y-120631206D01*
X87782286Y-120631205D01*
X87595487Y-120591500D01*
X87404513Y-120591500D01*
X87217714Y-120631205D01*
X87043246Y-120708883D01*
X86888745Y-120821135D01*
X86760959Y-120963057D01*
X86665473Y-121128443D01*
X86665470Y-121128450D01*
X86606459Y-121310068D01*
X86606458Y-121310072D01*
X86586496Y-121500000D01*
X56562929Y-121500000D01*
X56592529Y-121461424D01*
X56651324Y-121319481D01*
X56671378Y-121167157D01*
X56666873Y-121132941D01*
X56666343Y-121124844D01*
X56666343Y-110000000D01*
X91586496Y-110000000D01*
X91606458Y-110189928D01*
X91606459Y-110189931D01*
X91665470Y-110371549D01*
X91665473Y-110371556D01*
X91760960Y-110536944D01*
X91888747Y-110678866D01*
X92043248Y-110791118D01*
X92217712Y-110868794D01*
X92404513Y-110908500D01*
X92595487Y-110908500D01*
X92782288Y-110868794D01*
X92956752Y-110791118D01*
X93111253Y-110678866D01*
X93239040Y-110536944D01*
X93334527Y-110371556D01*
X93393542Y-110189928D01*
X93413504Y-110000000D01*
X93393542Y-109810072D01*
X93334527Y-109628444D01*
X93239040Y-109463056D01*
X93111253Y-109321134D01*
X92956752Y-109208882D01*
X92782288Y-109131206D01*
X92782286Y-109131205D01*
X92595487Y-109091500D01*
X92404513Y-109091500D01*
X92217714Y-109131205D01*
X92043246Y-109208883D01*
X91888745Y-109321135D01*
X91760959Y-109463057D01*
X91665473Y-109628443D01*
X91665470Y-109628450D01*
X91640360Y-109705732D01*
X91606458Y-109810072D01*
X91586496Y-110000000D01*
X56666343Y-110000000D01*
X56666343Y-102876626D01*
X56666874Y-102868525D01*
X56671378Y-102834315D01*
X56667936Y-102808173D01*
X56651324Y-102681991D01*
X56592529Y-102540048D01*
X56592528Y-102540047D01*
X56592528Y-102540046D01*
X56547765Y-102481710D01*
X56522483Y-102448761D01*
X56522480Y-102448758D01*
X56499000Y-102418158D01*
X56471618Y-102397147D01*
X56465528Y-102391806D01*
X55767669Y-101693947D01*
X55069819Y-100996096D01*
X55036334Y-100934773D01*
X55033500Y-100908415D01*
X55033500Y-97550000D01*
X66086496Y-97550000D01*
X66106458Y-97739928D01*
X66106459Y-97739931D01*
X66165470Y-97921549D01*
X66165473Y-97921556D01*
X66260960Y-98086944D01*
X66388747Y-98228866D01*
X66543248Y-98341118D01*
X66717712Y-98418794D01*
X66904513Y-98458500D01*
X67095487Y-98458500D01*
X67282288Y-98418794D01*
X67456752Y-98341118D01*
X67611253Y-98228866D01*
X67739040Y-98086944D01*
X67834527Y-97921556D01*
X67893542Y-97739928D01*
X67913504Y-97550000D01*
X67893542Y-97360072D01*
X67834527Y-97178444D01*
X67789237Y-97100000D01*
X69086496Y-97100000D01*
X69106458Y-97289928D01*
X69106459Y-97289931D01*
X69165470Y-97471549D01*
X69165473Y-97471556D01*
X69260960Y-97636944D01*
X69388747Y-97778866D01*
X69543248Y-97891118D01*
X69717712Y-97968794D01*
X69904513Y-98008500D01*
X70095487Y-98008500D01*
X70282288Y-97968794D01*
X70456752Y-97891118D01*
X70611253Y-97778866D01*
X70637244Y-97750000D01*
X73086496Y-97750000D01*
X73106458Y-97939928D01*
X73106459Y-97939931D01*
X73165470Y-98121549D01*
X73165473Y-98121556D01*
X73260960Y-98286944D01*
X73388747Y-98428866D01*
X73543248Y-98541118D01*
X73717712Y-98618794D01*
X73904513Y-98658500D01*
X74095487Y-98658500D01*
X74282288Y-98618794D01*
X74456752Y-98541118D01*
X74611253Y-98428866D01*
X74739040Y-98286944D01*
X74834527Y-98121556D01*
X74893542Y-97939928D01*
X74897880Y-97898654D01*
X77616500Y-97898654D01*
X77623011Y-97959202D01*
X77623011Y-97959204D01*
X77670656Y-98086942D01*
X77674111Y-98096204D01*
X77761739Y-98213261D01*
X77878796Y-98300889D01*
X78015799Y-98351989D01*
X78043050Y-98354918D01*
X78076345Y-98358499D01*
X78076362Y-98358500D01*
X79873638Y-98358500D01*
X79873654Y-98358499D01*
X79900692Y-98355591D01*
X79934201Y-98351989D01*
X80071204Y-98300889D01*
X80188261Y-98213261D01*
X80275889Y-98096204D01*
X80321138Y-97974887D01*
X80363009Y-97918956D01*
X80428474Y-97894539D01*
X80496746Y-97909391D01*
X80528545Y-97934236D01*
X80591760Y-98002906D01*
X80769424Y-98141189D01*
X80769425Y-98141189D01*
X80769427Y-98141191D01*
X80896135Y-98209761D01*
X80967426Y-98248342D01*
X81180365Y-98321444D01*
X81402431Y-98358500D01*
X81627569Y-98358500D01*
X81849635Y-98321444D01*
X82062574Y-98248342D01*
X82260576Y-98141189D01*
X82438240Y-98002906D01*
X82534212Y-97898654D01*
X89116500Y-97898654D01*
X89123011Y-97959202D01*
X89123011Y-97959204D01*
X89170656Y-98086942D01*
X89174111Y-98096204D01*
X89261739Y-98213261D01*
X89378796Y-98300889D01*
X89515799Y-98351989D01*
X89543050Y-98354918D01*
X89576345Y-98358499D01*
X89576362Y-98358500D01*
X91373638Y-98358500D01*
X91373654Y-98358499D01*
X91400692Y-98355591D01*
X91434201Y-98351989D01*
X91571204Y-98300889D01*
X91688261Y-98213261D01*
X91775889Y-98096204D01*
X91821138Y-97974887D01*
X91863009Y-97918956D01*
X91928474Y-97894539D01*
X91996746Y-97909391D01*
X92028545Y-97934236D01*
X92091760Y-98002906D01*
X92269424Y-98141189D01*
X92269425Y-98141189D01*
X92269427Y-98141191D01*
X92396135Y-98209761D01*
X92467426Y-98248342D01*
X92680365Y-98321444D01*
X92902431Y-98358500D01*
X93127569Y-98358500D01*
X93349635Y-98321444D01*
X93562574Y-98248342D01*
X93760576Y-98141189D01*
X93938240Y-98002906D01*
X94090722Y-97837268D01*
X94213860Y-97648791D01*
X94304296Y-97442616D01*
X94359564Y-97224368D01*
X94359565Y-97224359D01*
X94378156Y-97000005D01*
X94378156Y-96999994D01*
X94359565Y-96775640D01*
X94359563Y-96775628D01*
X94318746Y-96614446D01*
X94304296Y-96557384D01*
X94213860Y-96351209D01*
X94186206Y-96308882D01*
X94135458Y-96231206D01*
X94090722Y-96162732D01*
X94090719Y-96162729D01*
X94090715Y-96162723D01*
X93938243Y-95997097D01*
X93938238Y-95997092D01*
X93760577Y-95858812D01*
X93760572Y-95858808D01*
X93562580Y-95751661D01*
X93562577Y-95751659D01*
X93562574Y-95751658D01*
X93562571Y-95751657D01*
X93562569Y-95751656D01*
X93349637Y-95678556D01*
X93127569Y-95641500D01*
X92902431Y-95641500D01*
X92680362Y-95678556D01*
X92467430Y-95751656D01*
X92467419Y-95751661D01*
X92269427Y-95858808D01*
X92269422Y-95858812D01*
X92091761Y-95997092D01*
X92028548Y-96065760D01*
X91968661Y-96101750D01*
X91898823Y-96099649D01*
X91841207Y-96060124D01*
X91821138Y-96025110D01*
X91775889Y-95903796D01*
X91742214Y-95858812D01*
X91688261Y-95786739D01*
X91571204Y-95699111D01*
X91571204Y-95699110D01*
X91434203Y-95648011D01*
X91373654Y-95641500D01*
X91373638Y-95641500D01*
X89576362Y-95641500D01*
X89576345Y-95641500D01*
X89515797Y-95648011D01*
X89515795Y-95648011D01*
X89378795Y-95699111D01*
X89261739Y-95786739D01*
X89174111Y-95903795D01*
X89123011Y-96040795D01*
X89123011Y-96040797D01*
X89116500Y-96101345D01*
X89116500Y-97898654D01*
X82534212Y-97898654D01*
X82590722Y-97837268D01*
X82713860Y-97648791D01*
X82804296Y-97442616D01*
X82859564Y-97224368D01*
X82859565Y-97224359D01*
X82878156Y-97000005D01*
X82878156Y-96999994D01*
X82859565Y-96775640D01*
X82859563Y-96775628D01*
X82818746Y-96614446D01*
X82804296Y-96557384D01*
X82713860Y-96351209D01*
X82686206Y-96308882D01*
X82635458Y-96231206D01*
X82590722Y-96162732D01*
X82590719Y-96162729D01*
X82590715Y-96162723D01*
X82438243Y-95997097D01*
X82438238Y-95997092D01*
X82260577Y-95858812D01*
X82260572Y-95858808D01*
X82062580Y-95751661D01*
X82062577Y-95751659D01*
X82062574Y-95751658D01*
X82062571Y-95751657D01*
X82062569Y-95751656D01*
X81849637Y-95678556D01*
X81627569Y-95641500D01*
X81402431Y-95641500D01*
X81180362Y-95678556D01*
X80967430Y-95751656D01*
X80967419Y-95751661D01*
X80769427Y-95858808D01*
X80769422Y-95858812D01*
X80591761Y-95997092D01*
X80528548Y-96065760D01*
X80468661Y-96101750D01*
X80398823Y-96099649D01*
X80341207Y-96060124D01*
X80321138Y-96025110D01*
X80275889Y-95903796D01*
X80242214Y-95858812D01*
X80188261Y-95786739D01*
X80071204Y-95699111D01*
X80071204Y-95699110D01*
X79934203Y-95648011D01*
X79873654Y-95641500D01*
X79873638Y-95641500D01*
X78076362Y-95641500D01*
X78076345Y-95641500D01*
X78015797Y-95648011D01*
X78015795Y-95648011D01*
X77878795Y-95699111D01*
X77761739Y-95786739D01*
X77674111Y-95903795D01*
X77623011Y-96040795D01*
X77623011Y-96040797D01*
X77616500Y-96101345D01*
X77616500Y-97898654D01*
X74897880Y-97898654D01*
X74913504Y-97750000D01*
X74893542Y-97560072D01*
X74834527Y-97378444D01*
X74739040Y-97213056D01*
X74611253Y-97071134D01*
X74456752Y-96958882D01*
X74282288Y-96881206D01*
X74282286Y-96881205D01*
X74095487Y-96841500D01*
X73904513Y-96841500D01*
X73717714Y-96881205D01*
X73543246Y-96958883D01*
X73388745Y-97071135D01*
X73260959Y-97213057D01*
X73165473Y-97378443D01*
X73165470Y-97378450D01*
X73106459Y-97560068D01*
X73106458Y-97560072D01*
X73086496Y-97750000D01*
X70637244Y-97750000D01*
X70739040Y-97636944D01*
X70834527Y-97471556D01*
X70893542Y-97289928D01*
X70913504Y-97100000D01*
X70893542Y-96910072D01*
X70834527Y-96728444D01*
X70739040Y-96563056D01*
X70611253Y-96421134D01*
X70456752Y-96308882D01*
X70282288Y-96231206D01*
X70282286Y-96231205D01*
X70095487Y-96191500D01*
X69904513Y-96191500D01*
X69717714Y-96231205D01*
X69543246Y-96308883D01*
X69388745Y-96421135D01*
X69260959Y-96563057D01*
X69165473Y-96728443D01*
X69165470Y-96728450D01*
X69115837Y-96881206D01*
X69106458Y-96910072D01*
X69086496Y-97100000D01*
X67789237Y-97100000D01*
X67739040Y-97013056D01*
X67611253Y-96871134D01*
X67456752Y-96758882D01*
X67282288Y-96681206D01*
X67282286Y-96681205D01*
X67095487Y-96641500D01*
X66904513Y-96641500D01*
X66717714Y-96681205D01*
X66543246Y-96758883D01*
X66388745Y-96871135D01*
X66260959Y-97013057D01*
X66165473Y-97178443D01*
X66165470Y-97178450D01*
X66106459Y-97360068D01*
X66106458Y-97360072D01*
X66086496Y-97550000D01*
X55033500Y-97550000D01*
X55033500Y-92000000D01*
X64586496Y-92000000D01*
X64606458Y-92189928D01*
X64606459Y-92189931D01*
X64665470Y-92371549D01*
X64665473Y-92371556D01*
X64760960Y-92536944D01*
X64888747Y-92678866D01*
X65043248Y-92791118D01*
X65217712Y-92868794D01*
X65404513Y-92908500D01*
X65595487Y-92908500D01*
X65782288Y-92868794D01*
X65956752Y-92791118D01*
X66013342Y-92750003D01*
X70936384Y-92750003D01*
X70956781Y-92931041D01*
X70956782Y-92931046D01*
X70997949Y-93048693D01*
X71016957Y-93103015D01*
X71113889Y-93257281D01*
X71242719Y-93386111D01*
X71396985Y-93483043D01*
X71551020Y-93536942D01*
X71568953Y-93543217D01*
X71568958Y-93543218D01*
X71749996Y-93563616D01*
X71750000Y-93563616D01*
X71750004Y-93563616D01*
X71931041Y-93543218D01*
X71931043Y-93543217D01*
X71931047Y-93543217D01*
X72103015Y-93483043D01*
X72184030Y-93432137D01*
X72251263Y-93413137D01*
X72315969Y-93432137D01*
X72393325Y-93480743D01*
X72396987Y-93483044D01*
X72535993Y-93531684D01*
X72568953Y-93543217D01*
X72568954Y-93543217D01*
X72568958Y-93543218D01*
X72749996Y-93563616D01*
X72750000Y-93563616D01*
X72750004Y-93563616D01*
X72931041Y-93543218D01*
X72931043Y-93543217D01*
X72931047Y-93543217D01*
X72931050Y-93543215D01*
X72931054Y-93543215D01*
X73109588Y-93480743D01*
X73110458Y-93483229D01*
X73167474Y-93473815D01*
X73231621Y-93501509D01*
X73257095Y-93531714D01*
X73257138Y-93531684D01*
X73257563Y-93532269D01*
X73259775Y-93534892D01*
X73260960Y-93536944D01*
X73388747Y-93678866D01*
X73543248Y-93791118D01*
X73717712Y-93868794D01*
X73904513Y-93908500D01*
X74095487Y-93908500D01*
X74282288Y-93868794D01*
X74456752Y-93791118D01*
X74611253Y-93678866D01*
X74739040Y-93536944D01*
X74834527Y-93371556D01*
X74893542Y-93189928D01*
X74913504Y-93000000D01*
X74893542Y-92810072D01*
X74834527Y-92628444D01*
X74739040Y-92463056D01*
X74611253Y-92321134D01*
X74456752Y-92208882D01*
X74282288Y-92131206D01*
X74282286Y-92131205D01*
X74095487Y-92091500D01*
X73904513Y-92091500D01*
X73717714Y-92131205D01*
X73543247Y-92208881D01*
X73518315Y-92226996D01*
X73452508Y-92250475D01*
X73384455Y-92234649D01*
X73357750Y-92214358D01*
X73257281Y-92113889D01*
X73103017Y-92016958D01*
X73103016Y-92016957D01*
X73103015Y-92016957D01*
X73048693Y-91997949D01*
X72931046Y-91956782D01*
X72931041Y-91956781D01*
X72750004Y-91936384D01*
X72749996Y-91936384D01*
X72568958Y-91956781D01*
X72568953Y-91956782D01*
X72396983Y-92016957D01*
X72315969Y-92067861D01*
X72248732Y-92086860D01*
X72184027Y-92067860D01*
X72103014Y-92016956D01*
X71931049Y-91956783D01*
X71931041Y-91956781D01*
X71750004Y-91936384D01*
X71749996Y-91936384D01*
X71568958Y-91956781D01*
X71568953Y-91956782D01*
X71396982Y-92016958D01*
X71242718Y-92113889D01*
X71113889Y-92242718D01*
X71016958Y-92396982D01*
X70956782Y-92568953D01*
X70956781Y-92568958D01*
X70936384Y-92749996D01*
X70936384Y-92750003D01*
X66013342Y-92750003D01*
X66111253Y-92678866D01*
X66239040Y-92536944D01*
X66334527Y-92371556D01*
X66393542Y-92189928D01*
X66413504Y-92000000D01*
X66393542Y-91810072D01*
X66334527Y-91628444D01*
X66239040Y-91463056D01*
X66111253Y-91321134D01*
X65956752Y-91208882D01*
X65782288Y-91131206D01*
X65782286Y-91131205D01*
X65595487Y-91091500D01*
X65404513Y-91091500D01*
X65217714Y-91131205D01*
X65043246Y-91208883D01*
X64888745Y-91321135D01*
X64760959Y-91463057D01*
X64665473Y-91628443D01*
X64665470Y-91628450D01*
X64606459Y-91810068D01*
X64606458Y-91810072D01*
X64586496Y-92000000D01*
X55033500Y-92000000D01*
X55033500Y-90500003D01*
X68686384Y-90500003D01*
X68706781Y-90681041D01*
X68706782Y-90681046D01*
X68717392Y-90711367D01*
X68750154Y-90804996D01*
X68766958Y-90853017D01*
X68834812Y-90961005D01*
X68863889Y-91007281D01*
X68992719Y-91136111D01*
X69146985Y-91233043D01*
X69318953Y-91293216D01*
X69318953Y-91293217D01*
X69318958Y-91293218D01*
X69499996Y-91313616D01*
X69500000Y-91313616D01*
X69500004Y-91313616D01*
X69681041Y-91293218D01*
X69681044Y-91293217D01*
X69681047Y-91293217D01*
X69853015Y-91233043D01*
X70007281Y-91136111D01*
X70136111Y-91007281D01*
X70233043Y-90853015D01*
X70262740Y-90768143D01*
X70303461Y-90711367D01*
X70338828Y-90692055D01*
X70423638Y-90662380D01*
X70577904Y-90565448D01*
X70706734Y-90436618D01*
X70803666Y-90282352D01*
X70822776Y-90227736D01*
X70863497Y-90170960D01*
X70898862Y-90151648D01*
X70953682Y-90132467D01*
X71107948Y-90035535D01*
X71236778Y-89906705D01*
X71333710Y-89752439D01*
X71352942Y-89697475D01*
X71393663Y-89640699D01*
X71429031Y-89621387D01*
X71483500Y-89602328D01*
X71637766Y-89505396D01*
X71766596Y-89376566D01*
X71863528Y-89222300D01*
X71882399Y-89168367D01*
X71923120Y-89111592D01*
X71958488Y-89092280D01*
X72013989Y-89072860D01*
X72168255Y-88975928D01*
X72297085Y-88847098D01*
X72394017Y-88692832D01*
X72414423Y-88634512D01*
X72455144Y-88577736D01*
X72490510Y-88558424D01*
X72541618Y-88540542D01*
X72695884Y-88443610D01*
X72824714Y-88314780D01*
X72921646Y-88160514D01*
X72931369Y-88132725D01*
X72972088Y-88075950D01*
X73007458Y-88056636D01*
X73088680Y-88028216D01*
X73242946Y-87931284D01*
X73371776Y-87802454D01*
X73468708Y-87648188D01*
X73496095Y-87569918D01*
X73536817Y-87513143D01*
X73572184Y-87493831D01*
X73603015Y-87483043D01*
X73757281Y-87386111D01*
X73886111Y-87257281D01*
X73983043Y-87103015D01*
X74008587Y-87030013D01*
X77677094Y-87030013D01*
X77697491Y-87211051D01*
X77697492Y-87211056D01*
X77757668Y-87383027D01*
X77802568Y-87454484D01*
X77854599Y-87537291D01*
X77983429Y-87666121D01*
X78043245Y-87703706D01*
X78119354Y-87751529D01*
X78137695Y-87763053D01*
X78244457Y-87800410D01*
X78301233Y-87841132D01*
X78317722Y-87871324D01*
X78317883Y-87871247D01*
X78319397Y-87874391D01*
X78320540Y-87876485D01*
X78320901Y-87877515D01*
X78417833Y-88031781D01*
X78546663Y-88160611D01*
X78700929Y-88257543D01*
X78725413Y-88266110D01*
X78737502Y-88270340D01*
X78794278Y-88311061D01*
X78813589Y-88346427D01*
X78840937Y-88424584D01*
X78933086Y-88571236D01*
X78937872Y-88578853D01*
X79066702Y-88707683D01*
X79155236Y-88763313D01*
X79171703Y-88773660D01*
X79220968Y-88804615D01*
X79297151Y-88831272D01*
X79353927Y-88871994D01*
X79373238Y-88907357D01*
X79384778Y-88940334D01*
X79384777Y-88940334D01*
X79468050Y-89072860D01*
X79481710Y-89094600D01*
X79610540Y-89223430D01*
X79764806Y-89320362D01*
X79815222Y-89338003D01*
X79871998Y-89378725D01*
X79891308Y-89414089D01*
X79911955Y-89473095D01*
X79993158Y-89602328D01*
X80008889Y-89627363D01*
X80137719Y-89756193D01*
X80291985Y-89853125D01*
X80463953Y-89913299D01*
X80468560Y-89914911D01*
X80525337Y-89955633D01*
X80544647Y-89990996D01*
X80546957Y-89997597D01*
X80643889Y-90151863D01*
X80772719Y-90280693D01*
X80926985Y-90377625D01*
X81098953Y-90437799D01*
X81098954Y-90437799D01*
X81099137Y-90437863D01*
X81155913Y-90478585D01*
X81175224Y-90513949D01*
X81181957Y-90533189D01*
X81278889Y-90687455D01*
X81407719Y-90816285D01*
X81561985Y-90913217D01*
X81698558Y-90961005D01*
X81755333Y-91001727D01*
X81774645Y-91037093D01*
X81816957Y-91158016D01*
X81864099Y-91233041D01*
X81913889Y-91312281D01*
X82042719Y-91441111D01*
X82196985Y-91538043D01*
X82368952Y-91598216D01*
X82368953Y-91598217D01*
X82368958Y-91598218D01*
X82549996Y-91618616D01*
X82550000Y-91618616D01*
X82550004Y-91618616D01*
X82731041Y-91598218D01*
X82731044Y-91598217D01*
X82731047Y-91598217D01*
X82903015Y-91538043D01*
X83057281Y-91441111D01*
X83186111Y-91312281D01*
X83283043Y-91158015D01*
X83343217Y-90986047D01*
X83358206Y-90853014D01*
X83363616Y-90805003D01*
X83363616Y-90804996D01*
X83343218Y-90623958D01*
X83343217Y-90623953D01*
X83304725Y-90513950D01*
X83283043Y-90451985D01*
X83186111Y-90297719D01*
X83057281Y-90168889D01*
X83057280Y-90168888D01*
X82903016Y-90071957D01*
X82842993Y-90050954D01*
X82766441Y-90024168D01*
X82709667Y-89983447D01*
X82690355Y-89948081D01*
X82648043Y-89827159D01*
X82551111Y-89672893D01*
X82422281Y-89544063D01*
X82268015Y-89447130D01*
X82268011Y-89447129D01*
X82095861Y-89386890D01*
X82039085Y-89346168D01*
X82019775Y-89310804D01*
X82013044Y-89291570D01*
X82013043Y-89291566D01*
X81935632Y-89168368D01*
X81916111Y-89137301D01*
X81787281Y-89008471D01*
X81633016Y-88911539D01*
X81520001Y-88871994D01*
X81461047Y-88851365D01*
X81461045Y-88851364D01*
X81456439Y-88849753D01*
X81399663Y-88809031D01*
X81380351Y-88773664D01*
X81378043Y-88767067D01*
X81378041Y-88767064D01*
X81378041Y-88767063D01*
X81302801Y-88647320D01*
X81281111Y-88612801D01*
X81152281Y-88483971D01*
X81088047Y-88443610D01*
X80998019Y-88387041D01*
X80998017Y-88387040D01*
X80998015Y-88387039D01*
X80947593Y-88369395D01*
X80890821Y-88328676D01*
X80871510Y-88293309D01*
X80870374Y-88290063D01*
X80850864Y-88234304D01*
X80850864Y-88234303D01*
X80764911Y-88097511D01*
X80753932Y-88080038D01*
X80625102Y-87951208D01*
X80593392Y-87931283D01*
X80470837Y-87854276D01*
X80394651Y-87827618D01*
X80337875Y-87786896D01*
X80318563Y-87751529D01*
X80307026Y-87718556D01*
X80251384Y-87630003D01*
X85546384Y-87630003D01*
X85566781Y-87811041D01*
X85566782Y-87811046D01*
X85626958Y-87983017D01*
X85673216Y-88056636D01*
X85723889Y-88137281D01*
X85852719Y-88266111D01*
X86006985Y-88363043D01*
X86178952Y-88423217D01*
X86178953Y-88423217D01*
X86178958Y-88423218D01*
X86359996Y-88443616D01*
X86360000Y-88443616D01*
X86360004Y-88443616D01*
X86541041Y-88423218D01*
X86541044Y-88423217D01*
X86541047Y-88423217D01*
X86713015Y-88363043D01*
X86867281Y-88266111D01*
X86996111Y-88137281D01*
X87093043Y-87983015D01*
X87153217Y-87811047D01*
X87153572Y-87807895D01*
X87173616Y-87630003D01*
X87173616Y-87629996D01*
X87153218Y-87448958D01*
X87153217Y-87448953D01*
X87148496Y-87435461D01*
X87093043Y-87276985D01*
X86996111Y-87122719D01*
X86867281Y-86993889D01*
X86767267Y-86931046D01*
X86713017Y-86896958D01*
X86713016Y-86896957D01*
X86713015Y-86896957D01*
X86658693Y-86877949D01*
X86541046Y-86836782D01*
X86541041Y-86836781D01*
X86360004Y-86816384D01*
X86359996Y-86816384D01*
X86178958Y-86836781D01*
X86178953Y-86836782D01*
X86006982Y-86896958D01*
X85852718Y-86993889D01*
X85723889Y-87122718D01*
X85626958Y-87276982D01*
X85566782Y-87448953D01*
X85566781Y-87448958D01*
X85546384Y-87629996D01*
X85546384Y-87630003D01*
X80251384Y-87630003D01*
X80246118Y-87621623D01*
X80210094Y-87564291D01*
X80081264Y-87435461D01*
X79926999Y-87338529D01*
X79890423Y-87325731D01*
X79833647Y-87285009D01*
X79814335Y-87249643D01*
X79786987Y-87171485D01*
X79690055Y-87017219D01*
X79561225Y-86888389D01*
X79406959Y-86791457D01*
X79406956Y-86791455D01*
X79300195Y-86754097D01*
X79243419Y-86713375D01*
X79226937Y-86683189D01*
X79226774Y-86683268D01*
X79225234Y-86680071D01*
X79224108Y-86678008D01*
X79223754Y-86676997D01*
X79223753Y-86676994D01*
X79155869Y-86568958D01*
X79126821Y-86522729D01*
X78997991Y-86393899D01*
X78843725Y-86296967D01*
X78789403Y-86277959D01*
X78671756Y-86236792D01*
X78671751Y-86236791D01*
X78490714Y-86216394D01*
X78490706Y-86216394D01*
X78309668Y-86236791D01*
X78309663Y-86236792D01*
X78137692Y-86296968D01*
X77983428Y-86393899D01*
X77854599Y-86522728D01*
X77757668Y-86676992D01*
X77697492Y-86848963D01*
X77697491Y-86848968D01*
X77677094Y-87030006D01*
X77677094Y-87030013D01*
X74008587Y-87030013D01*
X74043217Y-86931047D01*
X74047058Y-86896957D01*
X74063616Y-86750003D01*
X74063616Y-86749996D01*
X74043218Y-86568958D01*
X74043217Y-86568953D01*
X74040830Y-86562131D01*
X73983043Y-86396985D01*
X73886111Y-86242719D01*
X73757281Y-86113889D01*
X73603015Y-86016957D01*
X73548693Y-85997949D01*
X73431046Y-85956782D01*
X73431041Y-85956781D01*
X73250004Y-85936384D01*
X73249996Y-85936384D01*
X73068958Y-85956781D01*
X73068953Y-85956782D01*
X72896982Y-86016958D01*
X72742718Y-86113889D01*
X72613889Y-86242718D01*
X72516958Y-86396982D01*
X72516957Y-86396984D01*
X72489568Y-86475255D01*
X72448845Y-86532031D01*
X72413486Y-86551339D01*
X72382649Y-86562130D01*
X72382647Y-86562131D01*
X72228383Y-86659062D01*
X72099554Y-86787891D01*
X72002623Y-86942155D01*
X71992897Y-86969950D01*
X71952174Y-87026725D01*
X71916810Y-87046035D01*
X71835588Y-87074455D01*
X71681321Y-87171388D01*
X71552492Y-87300217D01*
X71455561Y-87454481D01*
X71455560Y-87454482D01*
X71435152Y-87512805D01*
X71394430Y-87569581D01*
X71359067Y-87588890D01*
X71307957Y-87606774D01*
X71307956Y-87606775D01*
X71153692Y-87703706D01*
X71024863Y-87832535D01*
X70927932Y-87986799D01*
X70909058Y-88040736D01*
X70868335Y-88097511D01*
X70832973Y-88116820D01*
X70777468Y-88136242D01*
X70777467Y-88136243D01*
X70623203Y-88233174D01*
X70494374Y-88362003D01*
X70397443Y-88516266D01*
X70378208Y-88571236D01*
X70337485Y-88628011D01*
X70302124Y-88647320D01*
X70247648Y-88666382D01*
X70093385Y-88763313D01*
X69964556Y-88892142D01*
X69867625Y-89046406D01*
X69867624Y-89046407D01*
X69848512Y-89101026D01*
X69807789Y-89157802D01*
X69772428Y-89177111D01*
X69717605Y-89196295D01*
X69563341Y-89293226D01*
X69434512Y-89422055D01*
X69337581Y-89576319D01*
X69337579Y-89576322D01*
X69307882Y-89661193D01*
X69267161Y-89717969D01*
X69231796Y-89737279D01*
X69146987Y-89766955D01*
X68992718Y-89863889D01*
X68863889Y-89992718D01*
X68766958Y-90146982D01*
X68706782Y-90318953D01*
X68706781Y-90318958D01*
X68686384Y-90499996D01*
X68686384Y-90500003D01*
X55033500Y-90500003D01*
X55033500Y-82454325D01*
X55053185Y-82387286D01*
X55069819Y-82366644D01*
X55816645Y-81619819D01*
X55877968Y-81586334D01*
X55904326Y-81583500D01*
X58706945Y-81583500D01*
X58773984Y-81603185D01*
X58794625Y-81619818D01*
X60156992Y-82982186D01*
X60162337Y-82988282D01*
X60183342Y-83015656D01*
X60183343Y-83015657D01*
X60211717Y-83037430D01*
X60211723Y-83037433D01*
X60213943Y-83039137D01*
X60213946Y-83039140D01*
X60256374Y-83071695D01*
X60305231Y-83109185D01*
X60305232Y-83109185D01*
X60305233Y-83109186D01*
X60447176Y-83167981D01*
X60570986Y-83184281D01*
X60599499Y-83188035D01*
X60599500Y-83188035D01*
X60599501Y-83188035D01*
X60613134Y-83186240D01*
X60633714Y-83183530D01*
X60641813Y-83183000D01*
X61204079Y-83183000D01*
X61271118Y-83202685D01*
X61291760Y-83219319D01*
X61308052Y-83235611D01*
X61462318Y-83332543D01*
X61627696Y-83390411D01*
X61634286Y-83392717D01*
X61634291Y-83392718D01*
X61815329Y-83413116D01*
X61815333Y-83413116D01*
X61815337Y-83413116D01*
X61996374Y-83392718D01*
X61996377Y-83392717D01*
X61996380Y-83392717D01*
X62168348Y-83332543D01*
X62322614Y-83235611D01*
X62451444Y-83106781D01*
X62548376Y-82952515D01*
X62608550Y-82780547D01*
X62609170Y-82775043D01*
X62611992Y-82750000D01*
X72836496Y-82750000D01*
X72856458Y-82939928D01*
X72856459Y-82939931D01*
X72915470Y-83121549D01*
X72915473Y-83121556D01*
X73010354Y-83285895D01*
X73026827Y-83353795D01*
X73017692Y-83389865D01*
X73019257Y-83390413D01*
X72956782Y-83568953D01*
X72956781Y-83568958D01*
X72936384Y-83749996D01*
X72936384Y-83750003D01*
X72956781Y-83931041D01*
X72956782Y-83931046D01*
X72978537Y-83993217D01*
X73016957Y-84103015D01*
X73113889Y-84257281D01*
X73242719Y-84386111D01*
X73396985Y-84483043D01*
X73568952Y-84543217D01*
X73568953Y-84543217D01*
X73568958Y-84543218D01*
X73749996Y-84563616D01*
X73750000Y-84563616D01*
X73750004Y-84563616D01*
X73931041Y-84543218D01*
X73931044Y-84543217D01*
X73931047Y-84543217D01*
X74103015Y-84483043D01*
X74257281Y-84386111D01*
X74386111Y-84257281D01*
X74483043Y-84103015D01*
X74543217Y-83931047D01*
X74543218Y-83931041D01*
X74563616Y-83750003D01*
X74563616Y-83749996D01*
X74543218Y-83568958D01*
X74543216Y-83568950D01*
X74480743Y-83390411D01*
X74483314Y-83389511D01*
X74473954Y-83332805D01*
X74489644Y-83285897D01*
X74539235Y-83200003D01*
X80086384Y-83200003D01*
X80106781Y-83381041D01*
X80106782Y-83381046D01*
X80123926Y-83430040D01*
X80163363Y-83542745D01*
X80166958Y-83553017D01*
X80201641Y-83608214D01*
X80263889Y-83707281D01*
X80392719Y-83836111D01*
X80434367Y-83862280D01*
X80543806Y-83931046D01*
X80546985Y-83933043D01*
X80673510Y-83977315D01*
X80730285Y-84018037D01*
X80749596Y-84053401D01*
X80766957Y-84103016D01*
X80766958Y-84103017D01*
X80863889Y-84257281D01*
X80992719Y-84386111D01*
X81146985Y-84483043D01*
X81318953Y-84543217D01*
X81318958Y-84543218D01*
X81499996Y-84563616D01*
X81500000Y-84563616D01*
X81500004Y-84563616D01*
X81681041Y-84543218D01*
X81681044Y-84543217D01*
X81681047Y-84543217D01*
X81853015Y-84483043D01*
X82007281Y-84386111D01*
X82136111Y-84257281D01*
X82233043Y-84103015D01*
X82293217Y-83931047D01*
X82293218Y-83931041D01*
X82313616Y-83750003D01*
X82313616Y-83749996D01*
X82293218Y-83568958D01*
X82293217Y-83568953D01*
X82284046Y-83542745D01*
X82233043Y-83396985D01*
X82136111Y-83242719D01*
X82136110Y-83242718D01*
X82135013Y-83240972D01*
X82116013Y-83173736D01*
X82135013Y-83109028D01*
X82136425Y-83106781D01*
X82233043Y-82953015D01*
X82293217Y-82781047D01*
X82293218Y-82781041D01*
X82313616Y-82600003D01*
X82313616Y-82599996D01*
X82293218Y-82418958D01*
X82293217Y-82418953D01*
X82274913Y-82366644D01*
X82233043Y-82246985D01*
X82166744Y-82141471D01*
X82147744Y-82074235D01*
X82166744Y-82009528D01*
X82233043Y-81904015D01*
X82293217Y-81732047D01*
X82293218Y-81732041D01*
X82313616Y-81551003D01*
X82313616Y-81550996D01*
X82293218Y-81369958D01*
X82293217Y-81369953D01*
X82285422Y-81347676D01*
X82233043Y-81197985D01*
X82136111Y-81043719D01*
X82136110Y-81043718D01*
X82134699Y-81041472D01*
X82115699Y-80974236D01*
X82134699Y-80909528D01*
X82195867Y-80812180D01*
X82233043Y-80753015D01*
X82293217Y-80581047D01*
X82293218Y-80581041D01*
X82313616Y-80400003D01*
X82313616Y-80399996D01*
X82293218Y-80218958D01*
X82293217Y-80218953D01*
X82293216Y-80218953D01*
X82233043Y-80046985D01*
X82136111Y-79892719D01*
X82007281Y-79763889D01*
X81979578Y-79746482D01*
X81853016Y-79666957D01*
X81792151Y-79645659D01*
X81716321Y-79619126D01*
X81659547Y-79578405D01*
X81640235Y-79543039D01*
X81633748Y-79524500D01*
X81633043Y-79522485D01*
X81540372Y-79375000D01*
X83541496Y-79375000D01*
X83561458Y-79564928D01*
X83561459Y-79564931D01*
X83620470Y-79746549D01*
X83620473Y-79746556D01*
X83715960Y-79911944D01*
X83818290Y-80025593D01*
X83837548Y-80046982D01*
X83843747Y-80053866D01*
X83998248Y-80166118D01*
X84172712Y-80243794D01*
X84359513Y-80283500D01*
X84550487Y-80283500D01*
X84737288Y-80243794D01*
X84911752Y-80166118D01*
X85066253Y-80053866D01*
X85194040Y-79911944D01*
X85289527Y-79746556D01*
X85348542Y-79564928D01*
X85368504Y-79375000D01*
X85348542Y-79185072D01*
X85289527Y-79003444D01*
X85194040Y-78838056D01*
X85066253Y-78696134D01*
X84911752Y-78583882D01*
X84737288Y-78506206D01*
X84737286Y-78506205D01*
X84550487Y-78466500D01*
X84359513Y-78466500D01*
X84172714Y-78506205D01*
X83998246Y-78583883D01*
X83843745Y-78696135D01*
X83715959Y-78838057D01*
X83620473Y-79003443D01*
X83620470Y-79003450D01*
X83561459Y-79185068D01*
X83561458Y-79185072D01*
X83541496Y-79375000D01*
X81540372Y-79375000D01*
X81536111Y-79368219D01*
X81407281Y-79239389D01*
X81253015Y-79142457D01*
X81198693Y-79123449D01*
X81081046Y-79082282D01*
X81081041Y-79082281D01*
X80900004Y-79061884D01*
X80899996Y-79061884D01*
X80718958Y-79082281D01*
X80718953Y-79082282D01*
X80546982Y-79142458D01*
X80392718Y-79239389D01*
X80263889Y-79368218D01*
X80166958Y-79522482D01*
X80106782Y-79694453D01*
X80106781Y-79694458D01*
X80086384Y-79875496D01*
X80086384Y-79875503D01*
X80106781Y-80056541D01*
X80106782Y-80056546D01*
X80129649Y-80121894D01*
X80159352Y-80206782D01*
X80166958Y-80228517D01*
X80256975Y-80371778D01*
X80275975Y-80439015D01*
X80256975Y-80503722D01*
X80166958Y-80646982D01*
X80106782Y-80818953D01*
X80106781Y-80818958D01*
X80086384Y-80999996D01*
X80086384Y-81000003D01*
X80106781Y-81181041D01*
X80106782Y-81181046D01*
X80166958Y-81353017D01*
X80241581Y-81471778D01*
X80260581Y-81539014D01*
X80241581Y-81603722D01*
X80166958Y-81722482D01*
X80106782Y-81894453D01*
X80106781Y-81894458D01*
X80086384Y-82075496D01*
X80086384Y-82075503D01*
X80106781Y-82256541D01*
X80106782Y-82256546D01*
X80166958Y-82428517D01*
X80256975Y-82571778D01*
X80275975Y-82639015D01*
X80256975Y-82703722D01*
X80166958Y-82846982D01*
X80106782Y-83018953D01*
X80106781Y-83018958D01*
X80086384Y-83199996D01*
X80086384Y-83200003D01*
X74539235Y-83200003D01*
X74584527Y-83121556D01*
X74643542Y-82939928D01*
X74663504Y-82750000D01*
X74643542Y-82560072D01*
X74584527Y-82378444D01*
X74489040Y-82213056D01*
X74361253Y-82071134D01*
X74206752Y-81958882D01*
X74032288Y-81881206D01*
X74032286Y-81881205D01*
X73845487Y-81841500D01*
X73654513Y-81841500D01*
X73467714Y-81881205D01*
X73437947Y-81894458D01*
X73355500Y-81931166D01*
X73293246Y-81958883D01*
X73138745Y-82071135D01*
X73010959Y-82213057D01*
X72915473Y-82378443D01*
X72915470Y-82378450D01*
X72859964Y-82549281D01*
X72856458Y-82560072D01*
X72836496Y-82750000D01*
X62611992Y-82750000D01*
X62628949Y-82599503D01*
X62628949Y-82599496D01*
X62608551Y-82418458D01*
X62608550Y-82418453D01*
X62590421Y-82366644D01*
X62548376Y-82246485D01*
X62451444Y-82092219D01*
X62421406Y-82062181D01*
X62387921Y-82000858D01*
X62392905Y-81931166D01*
X62421405Y-81886820D01*
X62451445Y-81856781D01*
X62548377Y-81702515D01*
X62608551Y-81530547D01*
X62608552Y-81530541D01*
X62628950Y-81349503D01*
X62628950Y-81349496D01*
X62608552Y-81168458D01*
X62608551Y-81168453D01*
X62593351Y-81125015D01*
X62549608Y-81000003D01*
X68936384Y-81000003D01*
X68956781Y-81181041D01*
X68956782Y-81181046D01*
X68991156Y-81279281D01*
X69016957Y-81353015D01*
X69113889Y-81507281D01*
X69242719Y-81636111D01*
X69396985Y-81733043D01*
X69568952Y-81793216D01*
X69568953Y-81793217D01*
X69568958Y-81793218D01*
X69749996Y-81813616D01*
X69750000Y-81813616D01*
X69750004Y-81813616D01*
X69931041Y-81793218D01*
X69931044Y-81793217D01*
X69931047Y-81793217D01*
X70103015Y-81733043D01*
X70257281Y-81636111D01*
X70386111Y-81507281D01*
X70483043Y-81353015D01*
X70543217Y-81181047D01*
X70543218Y-81181041D01*
X70563616Y-81000003D01*
X70563616Y-80999996D01*
X70543218Y-80818958D01*
X70543217Y-80818953D01*
X70540847Y-80812180D01*
X70483043Y-80646985D01*
X70386111Y-80492719D01*
X70257281Y-80363889D01*
X70129343Y-80283500D01*
X70103017Y-80266958D01*
X70103016Y-80266957D01*
X70103015Y-80266957D01*
X70014345Y-80235930D01*
X69931046Y-80206782D01*
X69931041Y-80206781D01*
X69750004Y-80186384D01*
X69749996Y-80186384D01*
X69568958Y-80206781D01*
X69568953Y-80206782D01*
X69396982Y-80266958D01*
X69242718Y-80363889D01*
X69113889Y-80492718D01*
X69016958Y-80646982D01*
X68956782Y-80818953D01*
X68956781Y-80818958D01*
X68936384Y-80999996D01*
X68936384Y-81000003D01*
X62549608Y-81000003D01*
X62548377Y-80996485D01*
X62451445Y-80842219D01*
X62421406Y-80812180D01*
X62387921Y-80750857D01*
X62392905Y-80681165D01*
X62421405Y-80636819D01*
X62451444Y-80606781D01*
X62548376Y-80452515D01*
X62608550Y-80280547D01*
X62610081Y-80266958D01*
X62628949Y-80099503D01*
X62628949Y-80099496D01*
X62608551Y-79918458D01*
X62608550Y-79918453D01*
X62593519Y-79875496D01*
X62548376Y-79746485D01*
X62451444Y-79592219D01*
X62338989Y-79479764D01*
X62305504Y-79418441D01*
X62310488Y-79348749D01*
X62338988Y-79304403D01*
X62386111Y-79257281D01*
X62483043Y-79103015D01*
X62543217Y-78931047D01*
X62544283Y-78921585D01*
X62563616Y-78750003D01*
X62563616Y-78749996D01*
X62543218Y-78568958D01*
X62543217Y-78568953D01*
X62531588Y-78535719D01*
X62483043Y-78396985D01*
X62386111Y-78242719D01*
X62257281Y-78113889D01*
X62257279Y-78113887D01*
X62113231Y-78023375D01*
X62066941Y-77971041D01*
X62055984Y-77932265D01*
X62043218Y-77818957D01*
X62043216Y-77818950D01*
X61983044Y-77646987D01*
X61975773Y-77635415D01*
X61932137Y-77565969D01*
X61913137Y-77498737D01*
X61932137Y-77434030D01*
X61983043Y-77353015D01*
X62043217Y-77181047D01*
X62043971Y-77174351D01*
X62071037Y-77109937D01*
X62101220Y-77083239D01*
X62118419Y-77072431D01*
X62257281Y-76985179D01*
X62386111Y-76856349D01*
X62483043Y-76702083D01*
X62543217Y-76530115D01*
X62549502Y-76474334D01*
X62563616Y-76349071D01*
X62563616Y-76349064D01*
X62552454Y-76250000D01*
X71836496Y-76250000D01*
X71856458Y-76439928D01*
X71856459Y-76439931D01*
X71915470Y-76621549D01*
X71915473Y-76621556D01*
X72010960Y-76786944D01*
X72138747Y-76928866D01*
X72293248Y-77041118D01*
X72467712Y-77118794D01*
X72654513Y-77158500D01*
X72845487Y-77158500D01*
X73032288Y-77118794D01*
X73206752Y-77041118D01*
X73361253Y-76928866D01*
X73489040Y-76786944D01*
X73584527Y-76621556D01*
X73643542Y-76439928D01*
X73663504Y-76250000D01*
X73643542Y-76060072D01*
X73584527Y-75878444D01*
X73489040Y-75713056D01*
X73361253Y-75571134D01*
X73206752Y-75458882D01*
X73032288Y-75381206D01*
X73032286Y-75381205D01*
X72845487Y-75341500D01*
X72654513Y-75341500D01*
X72467714Y-75381205D01*
X72293246Y-75458883D01*
X72138745Y-75571135D01*
X72010959Y-75713057D01*
X71915473Y-75878443D01*
X71915470Y-75878450D01*
X71860114Y-76048819D01*
X71856458Y-76060072D01*
X71836496Y-76250000D01*
X62552454Y-76250000D01*
X62543218Y-76168026D01*
X62543217Y-76168021D01*
X62505444Y-76060072D01*
X62483043Y-75996053D01*
X62386111Y-75841787D01*
X62306539Y-75762215D01*
X62273054Y-75700892D01*
X62278038Y-75631200D01*
X62306539Y-75586853D01*
X62322258Y-75571134D01*
X62386111Y-75507281D01*
X62483043Y-75353015D01*
X62543217Y-75181047D01*
X62550871Y-75113119D01*
X62563616Y-75000003D01*
X62563616Y-74999996D01*
X62543218Y-74818958D01*
X62543217Y-74818953D01*
X62527842Y-74775015D01*
X62483043Y-74646985D01*
X62386111Y-74492719D01*
X62257281Y-74363889D01*
X62231136Y-74347461D01*
X62188719Y-74299506D01*
X87186384Y-74299506D01*
X87206781Y-74480544D01*
X87206782Y-74480549D01*
X87247949Y-74598196D01*
X87266957Y-74652518D01*
X87363889Y-74806784D01*
X87492719Y-74935614D01*
X87646985Y-75032546D01*
X87777663Y-75078272D01*
X87818953Y-75092720D01*
X87818958Y-75092721D01*
X87999996Y-75113119D01*
X88000000Y-75113119D01*
X88000004Y-75113119D01*
X88181041Y-75092721D01*
X88181043Y-75092720D01*
X88181047Y-75092720D01*
X88181050Y-75092718D01*
X88181054Y-75092718D01*
X88306244Y-75048912D01*
X88376023Y-75045350D01*
X88434880Y-75078272D01*
X88492719Y-75136111D01*
X88646985Y-75233043D01*
X88818952Y-75293216D01*
X88818953Y-75293217D01*
X88818958Y-75293218D01*
X88999996Y-75313616D01*
X89000000Y-75313616D01*
X89000004Y-75313616D01*
X89181041Y-75293218D01*
X89181044Y-75293217D01*
X89181047Y-75293217D01*
X89353015Y-75233043D01*
X89507281Y-75136111D01*
X89636111Y-75007281D01*
X89733043Y-74853015D01*
X89793217Y-74681047D01*
X89793218Y-74681041D01*
X89813616Y-74500003D01*
X89813616Y-74499996D01*
X89793218Y-74318958D01*
X89793217Y-74318953D01*
X89775023Y-74266957D01*
X89733043Y-74146985D01*
X89636111Y-73992719D01*
X89507281Y-73863889D01*
X89353015Y-73766957D01*
X89298693Y-73747949D01*
X89181046Y-73706782D01*
X89181041Y-73706781D01*
X89000004Y-73686384D01*
X88999996Y-73686384D01*
X88944461Y-73692641D01*
X88875639Y-73680586D01*
X88824260Y-73633237D01*
X88806636Y-73565627D01*
X88807356Y-73555551D01*
X88813616Y-73500000D01*
X88811705Y-73483043D01*
X88793218Y-73318958D01*
X88793215Y-73318945D01*
X88731020Y-73141202D01*
X88727458Y-73071423D01*
X88731020Y-73059292D01*
X88734272Y-73050000D01*
X88783785Y-72908500D01*
X88793215Y-72881551D01*
X88793218Y-72881538D01*
X88813616Y-72700500D01*
X88813616Y-72700493D01*
X88793218Y-72519455D01*
X88793217Y-72519450D01*
X88758053Y-72418957D01*
X88733043Y-72347482D01*
X88636111Y-72193216D01*
X88507281Y-72064386D01*
X88465549Y-72038164D01*
X88353017Y-71967455D01*
X88353016Y-71967454D01*
X88353015Y-71967454D01*
X88264222Y-71936384D01*
X88181046Y-71907279D01*
X88181041Y-71907278D01*
X88000004Y-71886881D01*
X87999996Y-71886881D01*
X87818958Y-71907278D01*
X87818953Y-71907279D01*
X87646982Y-71967455D01*
X87492718Y-72064386D01*
X87363889Y-72193215D01*
X87266958Y-72347479D01*
X87206782Y-72519450D01*
X87206781Y-72519455D01*
X87186384Y-72700493D01*
X87186384Y-72700500D01*
X87206781Y-72881538D01*
X87206782Y-72881543D01*
X87268980Y-73059293D01*
X87272541Y-73129072D01*
X87268980Y-73141202D01*
X87206783Y-73318950D01*
X87206781Y-73318958D01*
X87186384Y-73499996D01*
X87186384Y-73500003D01*
X87206781Y-73681041D01*
X87206782Y-73681046D01*
X87268980Y-73858796D01*
X87272541Y-73928575D01*
X87268980Y-73940705D01*
X87206783Y-74118453D01*
X87206781Y-74118461D01*
X87186384Y-74299499D01*
X87186384Y-74299506D01*
X62188719Y-74299506D01*
X62184846Y-74295127D01*
X62174198Y-74226074D01*
X62202573Y-74162225D01*
X62231140Y-74137473D01*
X62233308Y-74136111D01*
X62362138Y-74007281D01*
X62459070Y-73853015D01*
X62519244Y-73681047D01*
X62519296Y-73680586D01*
X62539643Y-73500003D01*
X62539643Y-73499996D01*
X62519245Y-73318958D01*
X62519244Y-73318953D01*
X62482548Y-73214082D01*
X62459070Y-73146985D01*
X62362138Y-72992719D01*
X62233308Y-72863889D01*
X62231134Y-72862523D01*
X62230030Y-72861275D01*
X62227862Y-72859546D01*
X62228164Y-72859166D01*
X62184845Y-72810189D01*
X62174198Y-72741135D01*
X62202574Y-72677287D01*
X62231137Y-72652537D01*
X62257281Y-72636111D01*
X62386111Y-72507281D01*
X62483043Y-72353015D01*
X62543217Y-72181047D01*
X62543382Y-72179586D01*
X62563616Y-72000003D01*
X62563616Y-71999996D01*
X62543218Y-71818958D01*
X62543217Y-71818953D01*
X62528502Y-71776900D01*
X62483043Y-71646985D01*
X62386111Y-71492719D01*
X62257281Y-71363889D01*
X62120442Y-71277907D01*
X62103017Y-71266958D01*
X62103016Y-71266957D01*
X62103015Y-71266957D01*
X62054563Y-71250003D01*
X73674171Y-71250003D01*
X73694568Y-71431041D01*
X73694569Y-71431046D01*
X73716150Y-71492719D01*
X73752976Y-71597963D01*
X73754745Y-71603017D01*
X73825991Y-71716403D01*
X73851676Y-71757281D01*
X73980506Y-71886111D01*
X74134772Y-71983043D01*
X74306734Y-72043215D01*
X74306740Y-72043217D01*
X74306745Y-72043218D01*
X74487783Y-72063616D01*
X74487787Y-72063616D01*
X74487791Y-72063616D01*
X74668828Y-72043218D01*
X74668831Y-72043217D01*
X74668834Y-72043217D01*
X74840802Y-71983043D01*
X74935978Y-71923239D01*
X75003214Y-71904239D01*
X75067922Y-71923239D01*
X75121306Y-71956783D01*
X75155052Y-71977987D01*
X75155050Y-71977987D01*
X75155054Y-71977988D01*
X75155055Y-71977989D01*
X75313000Y-72033256D01*
X75327023Y-72038163D01*
X75327028Y-72038164D01*
X75508066Y-72058562D01*
X75508070Y-72058562D01*
X75508074Y-72058562D01*
X75689111Y-72038164D01*
X75689114Y-72038163D01*
X75689117Y-72038163D01*
X75798181Y-72000000D01*
X81336496Y-72000000D01*
X81356458Y-72189928D01*
X81356459Y-72189931D01*
X81415470Y-72371549D01*
X81415473Y-72371556D01*
X81510960Y-72536944D01*
X81638747Y-72678866D01*
X81793248Y-72791118D01*
X81967712Y-72868794D01*
X82154513Y-72908500D01*
X82345487Y-72908500D01*
X82532288Y-72868794D01*
X82706752Y-72791118D01*
X82861253Y-72678866D01*
X82989040Y-72536944D01*
X83084527Y-72371556D01*
X83143542Y-72189928D01*
X83151796Y-72111389D01*
X83178380Y-72046775D01*
X83234161Y-72007309D01*
X83303512Y-71983043D01*
X83303516Y-71983040D01*
X83309293Y-71981019D01*
X83379071Y-71977458D01*
X83391202Y-71981020D01*
X83568945Y-72043215D01*
X83568951Y-72043216D01*
X83568953Y-72043217D01*
X83568954Y-72043217D01*
X83568958Y-72043218D01*
X83749996Y-72063616D01*
X83750000Y-72063616D01*
X83750004Y-72063616D01*
X83931041Y-72043218D01*
X83931043Y-72043217D01*
X83931047Y-72043217D01*
X83931050Y-72043215D01*
X83931054Y-72043215D01*
X84006398Y-72016851D01*
X84076177Y-72013288D01*
X84136804Y-72048017D01*
X84169032Y-72110010D01*
X84162627Y-72179586D01*
X84135036Y-72221572D01*
X84113888Y-72242720D01*
X84016958Y-72396982D01*
X83956782Y-72568953D01*
X83956781Y-72568958D01*
X83936384Y-72749996D01*
X83936384Y-72750003D01*
X83956781Y-72931041D01*
X83956782Y-72931046D01*
X84016958Y-73103017D01*
X84044583Y-73146982D01*
X84113889Y-73257281D01*
X84242719Y-73386111D01*
X84396985Y-73483043D01*
X84568953Y-73543216D01*
X84568953Y-73543217D01*
X84568958Y-73543218D01*
X84749996Y-73563616D01*
X84750000Y-73563616D01*
X84750004Y-73563616D01*
X84931041Y-73543218D01*
X84931044Y-73543217D01*
X84931047Y-73543217D01*
X85103015Y-73483043D01*
X85257281Y-73386111D01*
X85386111Y-73257281D01*
X85483043Y-73103015D01*
X85543217Y-72931047D01*
X85543218Y-72931041D01*
X85563616Y-72750003D01*
X85563616Y-72749996D01*
X85543218Y-72568958D01*
X85543217Y-72568953D01*
X85533196Y-72540314D01*
X85483043Y-72396985D01*
X85386111Y-72242719D01*
X85257281Y-72113889D01*
X85187932Y-72070314D01*
X85103017Y-72016958D01*
X85103016Y-72016957D01*
X85103015Y-72016957D01*
X85016574Y-71986710D01*
X84931046Y-71956782D01*
X84931041Y-71956781D01*
X84750004Y-71936384D01*
X84749996Y-71936384D01*
X84568958Y-71956781D01*
X84568950Y-71956783D01*
X84493600Y-71983149D01*
X84423821Y-71986710D01*
X84363194Y-71951981D01*
X84330967Y-71889987D01*
X84337373Y-71820412D01*
X84364962Y-71778429D01*
X84386111Y-71757281D01*
X84483043Y-71603015D01*
X84543217Y-71431047D01*
X84543218Y-71431041D01*
X84563616Y-71250003D01*
X84563616Y-71249996D01*
X84543218Y-71068958D01*
X84543217Y-71068953D01*
X84541449Y-71063899D01*
X84483043Y-70896985D01*
X84386111Y-70742719D01*
X84257281Y-70613889D01*
X84103015Y-70516957D01*
X84048693Y-70497949D01*
X83931046Y-70456782D01*
X83931041Y-70456781D01*
X83750004Y-70436384D01*
X83749996Y-70436384D01*
X83568958Y-70456781D01*
X83568950Y-70456783D01*
X83391202Y-70518980D01*
X83321424Y-70522541D01*
X83309293Y-70518980D01*
X83131543Y-70456782D01*
X83131538Y-70456781D01*
X82950501Y-70436384D01*
X82950493Y-70436384D01*
X82769455Y-70456781D01*
X82769450Y-70456782D01*
X82597479Y-70516958D01*
X82443215Y-70613889D01*
X82314386Y-70742718D01*
X82217453Y-70896984D01*
X82217452Y-70896988D01*
X82172014Y-71026842D01*
X82131293Y-71083618D01*
X82080755Y-71107177D01*
X81967713Y-71131205D01*
X81822015Y-71196073D01*
X81797963Y-71206783D01*
X81793246Y-71208883D01*
X81638745Y-71321135D01*
X81510959Y-71463057D01*
X81415473Y-71628443D01*
X81415470Y-71628450D01*
X81364943Y-71783957D01*
X81356458Y-71810072D01*
X81336496Y-72000000D01*
X75798181Y-72000000D01*
X75861085Y-71977989D01*
X76015351Y-71881057D01*
X76144181Y-71752227D01*
X76241113Y-71597961D01*
X76301287Y-71425993D01*
X76302357Y-71416500D01*
X76321686Y-71244949D01*
X76321686Y-71244942D01*
X76301288Y-71063904D01*
X76301287Y-71063899D01*
X76272994Y-70983043D01*
X76241113Y-70891931D01*
X76144181Y-70737665D01*
X76015351Y-70608835D01*
X75888169Y-70528921D01*
X75861087Y-70511904D01*
X75861086Y-70511903D01*
X75861085Y-70511903D01*
X75806763Y-70492895D01*
X75689116Y-70451728D01*
X75689111Y-70451727D01*
X75508074Y-70431330D01*
X75508066Y-70431330D01*
X75327028Y-70451727D01*
X75327023Y-70451728D01*
X75155052Y-70511904D01*
X75059878Y-70571706D01*
X74992641Y-70590706D01*
X74927934Y-70571705D01*
X74840809Y-70516960D01*
X74840806Y-70516958D01*
X74668833Y-70456782D01*
X74668828Y-70456781D01*
X74487791Y-70436384D01*
X74487783Y-70436384D01*
X74306745Y-70456781D01*
X74306740Y-70456782D01*
X74134769Y-70516958D01*
X73980505Y-70613889D01*
X73851676Y-70742718D01*
X73754745Y-70896982D01*
X73694569Y-71068953D01*
X73694568Y-71068958D01*
X73674171Y-71249996D01*
X73674171Y-71250003D01*
X62054563Y-71250003D01*
X62040100Y-71244942D01*
X61931046Y-71206782D01*
X61931041Y-71206781D01*
X61750004Y-71186384D01*
X61749996Y-71186384D01*
X61568958Y-71206781D01*
X61568953Y-71206782D01*
X61396982Y-71266958D01*
X61242720Y-71363888D01*
X61230220Y-71376388D01*
X61168896Y-71409871D01*
X61133127Y-71411361D01*
X61133127Y-71411465D01*
X61130655Y-71411465D01*
X61126361Y-71411644D01*
X61125001Y-71411465D01*
X61124998Y-71411465D01*
X61105877Y-71413982D01*
X61086755Y-71416500D01*
X61071736Y-71418477D01*
X60972676Y-71431518D01*
X60972674Y-71431519D01*
X60830731Y-71490313D01*
X60708842Y-71583841D01*
X60687832Y-71611222D01*
X60682480Y-71617324D01*
X58854292Y-73445514D01*
X58792969Y-73478999D01*
X58766611Y-73481833D01*
X55903973Y-73481833D01*
X55836934Y-73462148D01*
X55816292Y-73445514D01*
X54469819Y-72099041D01*
X54436334Y-72037718D01*
X54433500Y-72011360D01*
X54433500Y-70250003D01*
X66686384Y-70250003D01*
X66706781Y-70431041D01*
X66706782Y-70431046D01*
X66766958Y-70603017D01*
X66838966Y-70717616D01*
X66863889Y-70757281D01*
X66992719Y-70886111D01*
X67146985Y-70983043D01*
X67318953Y-71043216D01*
X67318953Y-71043217D01*
X67318958Y-71043218D01*
X67499996Y-71063616D01*
X67500000Y-71063616D01*
X67500004Y-71063616D01*
X67681041Y-71043218D01*
X67681044Y-71043217D01*
X67681047Y-71043217D01*
X67853015Y-70983043D01*
X68007281Y-70886111D01*
X68136111Y-70757281D01*
X68233043Y-70603015D01*
X68258969Y-70528920D01*
X68299690Y-70472144D01*
X68335059Y-70452832D01*
X68370168Y-70440547D01*
X68370171Y-70440546D01*
X68384838Y-70431330D01*
X68524437Y-70343614D01*
X68653267Y-70214784D01*
X68750199Y-70060518D01*
X68761610Y-70027905D01*
X68802330Y-69971130D01*
X68837699Y-69951817D01*
X68914234Y-69925037D01*
X69068500Y-69828105D01*
X69197330Y-69699275D01*
X69294262Y-69545009D01*
X69314447Y-69487321D01*
X69355168Y-69430545D01*
X69390533Y-69411233D01*
X69442275Y-69393129D01*
X69596541Y-69296197D01*
X69725371Y-69167367D01*
X69822303Y-69013101D01*
X69841221Y-68959034D01*
X69881942Y-68902258D01*
X69917310Y-68882946D01*
X69936618Y-68876190D01*
X69972676Y-68863573D01*
X70126942Y-68766641D01*
X70255772Y-68637811D01*
X70352704Y-68483545D01*
X70371921Y-68428624D01*
X70412642Y-68371848D01*
X70448007Y-68352536D01*
X70502521Y-68333462D01*
X70656787Y-68236530D01*
X70785617Y-68107700D01*
X70852913Y-68000600D01*
X81836496Y-68000600D01*
X81856458Y-68190528D01*
X81856459Y-68190531D01*
X81915470Y-68372149D01*
X81915473Y-68372156D01*
X82010960Y-68537544D01*
X82138747Y-68679466D01*
X82293248Y-68791718D01*
X82467712Y-68869394D01*
X82654513Y-68909100D01*
X82845487Y-68909100D01*
X83032288Y-68869394D01*
X83206752Y-68791718D01*
X83361253Y-68679466D01*
X83489040Y-68537544D01*
X83584527Y-68372156D01*
X83643542Y-68190528D01*
X83663504Y-68000600D01*
X83643542Y-67810672D01*
X83584527Y-67629044D01*
X83489040Y-67463656D01*
X83361253Y-67321734D01*
X83206752Y-67209482D01*
X83032288Y-67131806D01*
X83032286Y-67131805D01*
X82845487Y-67092100D01*
X82654513Y-67092100D01*
X82467714Y-67131805D01*
X82293246Y-67209483D01*
X82138745Y-67321735D01*
X82010959Y-67463657D01*
X81915473Y-67629043D01*
X81915470Y-67629050D01*
X81867231Y-67777515D01*
X81856458Y-67810672D01*
X81836496Y-68000600D01*
X70852913Y-68000600D01*
X70882549Y-67953434D01*
X70901664Y-67898804D01*
X70942385Y-67842029D01*
X70977753Y-67822717D01*
X71012176Y-67810672D01*
X71032556Y-67803541D01*
X71186822Y-67706609D01*
X71315652Y-67577779D01*
X71412584Y-67423513D01*
X71431747Y-67368746D01*
X71472468Y-67311971D01*
X71507836Y-67292659D01*
X71508622Y-67292384D01*
X71562502Y-67273531D01*
X71716768Y-67176599D01*
X71845598Y-67047769D01*
X71942530Y-66893503D01*
X72002704Y-66721535D01*
X72017095Y-66593811D01*
X72023103Y-66540491D01*
X72023103Y-66540484D01*
X72002705Y-66359446D01*
X72002704Y-66359441D01*
X71967383Y-66258500D01*
X71942530Y-66187473D01*
X71845598Y-66033207D01*
X71716768Y-65904377D01*
X71562502Y-65807445D01*
X71508180Y-65788437D01*
X71390533Y-65747270D01*
X71390528Y-65747269D01*
X71209491Y-65726872D01*
X71209483Y-65726872D01*
X71028445Y-65747269D01*
X71028440Y-65747270D01*
X70856469Y-65807446D01*
X70702205Y-65904377D01*
X70573376Y-66033206D01*
X70476445Y-66187470D01*
X70457279Y-66242241D01*
X70416556Y-66299016D01*
X70381195Y-66318325D01*
X70326522Y-66337456D01*
X70172259Y-66434387D01*
X70043430Y-66563216D01*
X69946499Y-66717480D01*
X69927381Y-66772114D01*
X69886658Y-66828889D01*
X69851297Y-66848198D01*
X69796487Y-66867377D01*
X69642224Y-66964308D01*
X69513395Y-67093137D01*
X69416464Y-67247401D01*
X69397244Y-67302327D01*
X69356521Y-67359102D01*
X69321160Y-67378411D01*
X69266643Y-67397488D01*
X69112379Y-67494419D01*
X68983550Y-67623248D01*
X68886619Y-67777511D01*
X68867698Y-67831584D01*
X68826975Y-67888359D01*
X68791614Y-67907668D01*
X68736241Y-67927044D01*
X68581978Y-68023975D01*
X68453149Y-68152804D01*
X68356218Y-68307068D01*
X68356217Y-68307069D01*
X68336030Y-68364760D01*
X68295307Y-68421536D01*
X68259946Y-68440845D01*
X68208201Y-68458952D01*
X68053937Y-68555883D01*
X67925108Y-68684712D01*
X67828177Y-68838976D01*
X67828175Y-68838980D01*
X67816762Y-68871595D01*
X67776039Y-68928370D01*
X67740678Y-68947678D01*
X67664139Y-68974460D01*
X67664138Y-68974461D01*
X67509874Y-69071392D01*
X67381045Y-69200221D01*
X67284114Y-69354485D01*
X67284113Y-69354486D01*
X67258185Y-69428584D01*
X67217463Y-69485360D01*
X67182101Y-69504669D01*
X67146982Y-69516958D01*
X66992718Y-69613889D01*
X66863889Y-69742718D01*
X66766958Y-69896982D01*
X66706782Y-70068953D01*
X66706781Y-70068958D01*
X66686384Y-70249996D01*
X66686384Y-70250003D01*
X54433500Y-70250003D01*
X54433500Y-65798654D01*
X65859177Y-65798654D01*
X65865688Y-65859202D01*
X65865688Y-65859204D01*
X65916787Y-65996204D01*
X65916788Y-65996204D01*
X66004416Y-66113261D01*
X66121473Y-66200889D01*
X66258476Y-66251989D01*
X66285727Y-66254918D01*
X66319022Y-66258499D01*
X66319039Y-66258500D01*
X68416315Y-66258500D01*
X68416331Y-66258499D01*
X68443369Y-66255591D01*
X68476878Y-66251989D01*
X68613881Y-66200889D01*
X68730938Y-66113261D01*
X68818566Y-65996204D01*
X68869666Y-65859201D01*
X68873268Y-65825692D01*
X68876176Y-65798654D01*
X68876177Y-65798637D01*
X68876177Y-63701362D01*
X68876176Y-63701345D01*
X68872834Y-63670270D01*
X68869666Y-63640799D01*
X68818566Y-63503796D01*
X68730938Y-63386739D01*
X68613881Y-63299111D01*
X68613881Y-63299110D01*
X68476880Y-63248011D01*
X68416331Y-63241500D01*
X68416315Y-63241500D01*
X66319039Y-63241500D01*
X66319022Y-63241500D01*
X66258474Y-63248011D01*
X66258472Y-63248011D01*
X66121472Y-63299111D01*
X66004416Y-63386739D01*
X65916788Y-63503795D01*
X65865688Y-63640795D01*
X65865688Y-63640797D01*
X65859177Y-63701345D01*
X65859177Y-65798654D01*
X54433500Y-65798654D01*
X54433500Y-61000000D01*
X89336496Y-61000000D01*
X89356458Y-61189928D01*
X89356459Y-61189931D01*
X89415470Y-61371549D01*
X89415473Y-61371556D01*
X89510960Y-61536944D01*
X89638747Y-61678866D01*
X89793248Y-61791118D01*
X89967712Y-61868794D01*
X90154513Y-61908500D01*
X90345487Y-61908500D01*
X90532288Y-61868794D01*
X90706752Y-61791118D01*
X90861253Y-61678866D01*
X90989040Y-61536944D01*
X91084527Y-61371556D01*
X91143542Y-61189928D01*
X91163504Y-61000000D01*
X91143542Y-60810072D01*
X91084527Y-60628444D01*
X90989040Y-60463056D01*
X90861253Y-60321134D01*
X90706752Y-60208882D01*
X90532288Y-60131206D01*
X90532286Y-60131205D01*
X90345487Y-60091500D01*
X90154513Y-60091500D01*
X89967714Y-60131205D01*
X89793246Y-60208883D01*
X89638745Y-60321135D01*
X89510959Y-60463057D01*
X89415473Y-60628443D01*
X89415470Y-60628450D01*
X89356459Y-60810068D01*
X89356458Y-60810072D01*
X89336496Y-61000000D01*
X54433500Y-61000000D01*
X54433500Y-59666331D01*
X71741500Y-59666331D01*
X71748011Y-59726879D01*
X71748011Y-59726881D01*
X71799110Y-59863881D01*
X71799111Y-59863881D01*
X71886739Y-59980938D01*
X72003796Y-60068566D01*
X72140799Y-60119666D01*
X72168050Y-60122595D01*
X72201345Y-60126176D01*
X72201362Y-60126177D01*
X74298638Y-60126177D01*
X74298654Y-60126176D01*
X74325692Y-60123268D01*
X74359201Y-60119666D01*
X74496204Y-60068566D01*
X74613261Y-59980938D01*
X74700889Y-59863881D01*
X74751989Y-59726878D01*
X74755591Y-59693369D01*
X74758499Y-59666331D01*
X74758500Y-59666314D01*
X74758500Y-57750000D01*
X88336496Y-57750000D01*
X88356458Y-57939928D01*
X88356459Y-57939931D01*
X88415470Y-58121549D01*
X88415473Y-58121556D01*
X88510960Y-58286944D01*
X88638747Y-58428866D01*
X88793248Y-58541118D01*
X88967712Y-58618794D01*
X89154513Y-58658500D01*
X89345487Y-58658500D01*
X89532288Y-58618794D01*
X89706752Y-58541118D01*
X89861253Y-58428866D01*
X89989040Y-58286944D01*
X90084527Y-58121556D01*
X90143542Y-57939928D01*
X90163504Y-57750000D01*
X90143542Y-57560072D01*
X90084527Y-57378444D01*
X89989040Y-57213056D01*
X89861253Y-57071134D01*
X89706752Y-56958882D01*
X89532288Y-56881206D01*
X89532286Y-56881205D01*
X89345487Y-56841500D01*
X89154513Y-56841500D01*
X88967714Y-56881205D01*
X88793246Y-56958883D01*
X88638745Y-57071135D01*
X88510959Y-57213057D01*
X88415473Y-57378443D01*
X88415470Y-57378450D01*
X88356459Y-57560068D01*
X88356458Y-57560072D01*
X88336496Y-57750000D01*
X74758500Y-57750000D01*
X74758500Y-57569039D01*
X74758499Y-57569022D01*
X74755157Y-57537947D01*
X74751989Y-57508476D01*
X74700889Y-57371473D01*
X74613261Y-57254416D01*
X74496204Y-57166788D01*
X74496204Y-57166787D01*
X74359203Y-57115688D01*
X74298654Y-57109177D01*
X74298638Y-57109177D01*
X72201362Y-57109177D01*
X72201345Y-57109177D01*
X72140797Y-57115688D01*
X72140795Y-57115688D01*
X72003795Y-57166788D01*
X71886739Y-57254416D01*
X71799111Y-57371472D01*
X71748011Y-57508472D01*
X71748011Y-57508474D01*
X71741500Y-57569022D01*
X71741500Y-59666331D01*
X54433500Y-59666331D01*
X54433500Y-56841500D01*
X54433500Y-46969999D01*
X82521403Y-46969999D01*
X82541762Y-47228683D01*
X82602336Y-47480992D01*
X82701633Y-47720717D01*
X82837210Y-47941957D01*
X82837213Y-47941962D01*
X82913601Y-48031400D01*
X83005730Y-48139270D01*
X83132028Y-48247138D01*
X83203037Y-48307786D01*
X83203042Y-48307789D01*
X83424282Y-48443366D01*
X83664007Y-48542663D01*
X83664008Y-48542663D01*
X83664010Y-48542664D01*
X83916320Y-48603238D01*
X84175000Y-48623597D01*
X84433680Y-48603238D01*
X84685990Y-48542664D01*
X84925717Y-48443366D01*
X85146960Y-48307788D01*
X85344270Y-48139270D01*
X85512788Y-47941960D01*
X85648366Y-47720717D01*
X85747664Y-47480990D01*
X85808238Y-47228680D01*
X85828597Y-46970000D01*
X85808238Y-46711320D01*
X85747664Y-46459010D01*
X85655320Y-46236073D01*
X85647852Y-46166606D01*
X85679127Y-46104126D01*
X85739216Y-46068474D01*
X85798829Y-46068048D01*
X85949106Y-46104126D01*
X86013289Y-46119535D01*
X86250000Y-46138165D01*
X86486711Y-46119535D01*
X86534607Y-46108036D01*
X86604388Y-46111527D01*
X86661205Y-46152190D01*
X86687019Y-46217116D01*
X86678114Y-46276062D01*
X86602336Y-46459005D01*
X86541762Y-46711316D01*
X86521403Y-46969999D01*
X86541762Y-47228683D01*
X86602336Y-47480992D01*
X86701633Y-47720717D01*
X86837210Y-47941957D01*
X86837213Y-47941962D01*
X86913601Y-48031400D01*
X87005730Y-48139270D01*
X87132028Y-48247138D01*
X87203037Y-48307786D01*
X87203042Y-48307789D01*
X87424282Y-48443366D01*
X87664007Y-48542663D01*
X87664008Y-48542663D01*
X87664010Y-48542664D01*
X87916320Y-48603238D01*
X88175000Y-48623597D01*
X88433680Y-48603238D01*
X88685990Y-48542664D01*
X88925717Y-48443366D01*
X89146960Y-48307788D01*
X89344270Y-48139270D01*
X89512788Y-47941960D01*
X89648366Y-47720717D01*
X89747664Y-47480990D01*
X89808238Y-47228680D01*
X89828597Y-46970000D01*
X89808238Y-46711320D01*
X89747664Y-46459010D01*
X89671885Y-46276062D01*
X89648366Y-46219282D01*
X89512789Y-45998042D01*
X89512786Y-45998037D01*
X89452138Y-45927028D01*
X89344270Y-45800730D01*
X89236400Y-45708601D01*
X89146962Y-45632213D01*
X89146957Y-45632210D01*
X88925717Y-45496633D01*
X88685992Y-45397336D01*
X88433683Y-45336762D01*
X88175000Y-45316403D01*
X87916320Y-45336762D01*
X87916316Y-45336762D01*
X87916315Y-45336763D01*
X87788348Y-45367484D01*
X87718566Y-45363993D01*
X87661749Y-45323329D01*
X87635936Y-45258402D01*
X87644841Y-45199457D01*
X87668928Y-45141306D01*
X87689105Y-45092594D01*
X87744535Y-44861711D01*
X87763165Y-44625000D01*
X87754323Y-44512666D01*
X87768687Y-44444294D01*
X87817737Y-44394536D01*
X87885902Y-44379197D01*
X87887496Y-44379310D01*
X88000000Y-44388165D01*
X88236711Y-44369535D01*
X88467594Y-44314105D01*
X88467596Y-44314104D01*
X88467597Y-44314104D01*
X88686959Y-44223242D01*
X88686960Y-44223241D01*
X88686963Y-44223240D01*
X88889416Y-44099176D01*
X89069969Y-43944969D01*
X89224176Y-43764416D01*
X89348240Y-43561963D01*
X89439105Y-43342594D01*
X89494535Y-43111711D01*
X89513165Y-42875000D01*
X89494535Y-42638289D01*
X89439105Y-42407406D01*
X89439104Y-42407403D01*
X89439104Y-42407402D01*
X89348242Y-42188040D01*
X89348240Y-42188037D01*
X89224179Y-41985589D01*
X89224178Y-41985586D01*
X89189340Y-41944797D01*
X89069969Y-41805031D01*
X88950596Y-41703076D01*
X88889413Y-41650821D01*
X88889410Y-41650820D01*
X88686962Y-41526759D01*
X88686959Y-41526757D01*
X88467596Y-41435895D01*
X88236714Y-41380465D01*
X88059177Y-41366492D01*
X88000000Y-41361835D01*
X87999999Y-41361835D01*
X87887669Y-41370675D01*
X87819292Y-41356310D01*
X87769535Y-41307259D01*
X87754197Y-41239093D01*
X87754308Y-41237526D01*
X87763165Y-41125000D01*
X87754323Y-41012666D01*
X87768687Y-40944294D01*
X87817737Y-40894536D01*
X87885902Y-40879197D01*
X87887496Y-40879310D01*
X88000000Y-40888165D01*
X88236711Y-40869535D01*
X88467594Y-40814105D01*
X88467596Y-40814104D01*
X88467597Y-40814104D01*
X88686959Y-40723242D01*
X88686960Y-40723241D01*
X88686963Y-40723240D01*
X88889416Y-40599176D01*
X89069969Y-40444969D01*
X89224176Y-40264416D01*
X89348240Y-40061963D01*
X89439105Y-39842594D01*
X89494535Y-39611711D01*
X89513165Y-39375000D01*
X89494535Y-39138289D01*
X89439105Y-38907406D01*
X89439104Y-38907403D01*
X89439104Y-38907402D01*
X89348242Y-38688040D01*
X89348240Y-38688037D01*
X89224178Y-38485588D01*
X89224178Y-38485586D01*
X89160872Y-38411465D01*
X89069969Y-38305031D01*
X88950596Y-38203076D01*
X88889413Y-38150821D01*
X88889410Y-38150820D01*
X88686962Y-38026759D01*
X88686959Y-38026757D01*
X88467596Y-37935895D01*
X88236714Y-37880465D01*
X88059177Y-37866492D01*
X88000000Y-37861835D01*
X87999999Y-37861835D01*
X87887669Y-37870675D01*
X87819292Y-37856310D01*
X87769535Y-37807259D01*
X87754197Y-37739093D01*
X87754308Y-37737526D01*
X87763165Y-37625000D01*
X87744535Y-37388289D01*
X87689105Y-37157406D01*
X87649439Y-37061645D01*
X87641971Y-36992177D01*
X87673246Y-36929697D01*
X87733335Y-36894045D01*
X87792947Y-36893619D01*
X87916320Y-36923238D01*
X88175000Y-36943597D01*
X88433680Y-36923238D01*
X88685990Y-36862664D01*
X88925717Y-36763366D01*
X89146960Y-36627788D01*
X89344270Y-36459270D01*
X89512788Y-36261960D01*
X89648366Y-36040717D01*
X89747664Y-35800990D01*
X89808238Y-35548680D01*
X89828597Y-35290000D01*
X89808238Y-35031320D01*
X89747664Y-34779010D01*
X89747663Y-34779007D01*
X89648366Y-34539282D01*
X89512789Y-34318042D01*
X89512786Y-34318037D01*
X89421474Y-34211125D01*
X89344270Y-34120730D01*
X89236400Y-34028601D01*
X89146962Y-33952213D01*
X89146957Y-33952210D01*
X88925717Y-33816633D01*
X88685992Y-33717336D01*
X88433683Y-33656762D01*
X88175000Y-33636403D01*
X87916316Y-33656762D01*
X87664007Y-33717336D01*
X87424282Y-33816633D01*
X87203042Y-33952210D01*
X87203037Y-33952213D01*
X87005730Y-34120730D01*
X86837213Y-34318037D01*
X86837210Y-34318042D01*
X86701633Y-34539282D01*
X86602336Y-34779007D01*
X86541762Y-35031316D01*
X86521403Y-35289999D01*
X86541762Y-35548683D01*
X86602336Y-35800994D01*
X86673514Y-35972833D01*
X86680983Y-36042302D01*
X86649708Y-36104781D01*
X86589619Y-36140433D01*
X86530007Y-36140859D01*
X86486715Y-36130466D01*
X86486711Y-36130465D01*
X86250000Y-36111835D01*
X86249999Y-36111835D01*
X86013285Y-36130465D01*
X85803429Y-36180847D01*
X85733646Y-36177356D01*
X85676829Y-36136692D01*
X85651016Y-36071765D01*
X85659921Y-36012820D01*
X85747663Y-35800992D01*
X85747662Y-35800992D01*
X85747664Y-35800990D01*
X85808238Y-35548680D01*
X85828597Y-35290000D01*
X85808238Y-35031320D01*
X85747664Y-34779010D01*
X85747663Y-34779007D01*
X85648366Y-34539282D01*
X85512789Y-34318042D01*
X85512786Y-34318037D01*
X85421474Y-34211125D01*
X85344270Y-34120730D01*
X85236400Y-34028601D01*
X85146962Y-33952213D01*
X85146957Y-33952210D01*
X84925717Y-33816633D01*
X84685992Y-33717336D01*
X84433683Y-33656762D01*
X84175000Y-33636403D01*
X83916316Y-33656762D01*
X83664007Y-33717336D01*
X83424282Y-33816633D01*
X83203042Y-33952210D01*
X83203037Y-33952213D01*
X83005730Y-34120730D01*
X82837213Y-34318037D01*
X82837210Y-34318042D01*
X82701633Y-34539282D01*
X82602336Y-34779007D01*
X82541762Y-35031316D01*
X82521403Y-35289999D01*
X82541762Y-35548683D01*
X82602336Y-35800992D01*
X82701633Y-36040717D01*
X82837210Y-36261957D01*
X82837213Y-36261962D01*
X82849852Y-36276760D01*
X83005730Y-36459270D01*
X83132028Y-36567138D01*
X83203037Y-36627786D01*
X83203042Y-36627789D01*
X83424282Y-36763366D01*
X83664007Y-36862663D01*
X83664008Y-36862663D01*
X83664010Y-36862664D01*
X83916320Y-36923238D01*
X84175000Y-36943597D01*
X84433680Y-36923238D01*
X84685990Y-36862664D01*
X84707556Y-36853730D01*
X84777024Y-36846261D01*
X84839504Y-36877534D01*
X84875158Y-36937622D01*
X84872667Y-37007447D01*
X84869572Y-37015743D01*
X84810895Y-37157402D01*
X84810895Y-37157404D01*
X84755465Y-37388285D01*
X84736835Y-37625000D01*
X84745675Y-37737329D01*
X84731310Y-37805706D01*
X84682259Y-37855462D01*
X84614094Y-37870801D01*
X84612329Y-37870675D01*
X84500000Y-37861835D01*
X84263285Y-37880465D01*
X84032404Y-37935895D01*
X84032402Y-37935895D01*
X83813040Y-38026757D01*
X83813037Y-38026759D01*
X83610589Y-38150820D01*
X83610586Y-38150821D01*
X83430031Y-38305031D01*
X83275821Y-38485586D01*
X83275820Y-38485589D01*
X83151759Y-38688037D01*
X83151757Y-38688040D01*
X83060895Y-38907402D01*
X83060895Y-38907404D01*
X83005465Y-39138285D01*
X82986835Y-39375000D01*
X83005465Y-39611714D01*
X83060895Y-39842595D01*
X83060895Y-39842597D01*
X83151757Y-40061959D01*
X83151759Y-40061962D01*
X83275820Y-40264410D01*
X83275821Y-40264413D01*
X83275824Y-40264416D01*
X83430031Y-40444969D01*
X83565138Y-40560361D01*
X83610586Y-40599178D01*
X83610589Y-40599179D01*
X83813037Y-40723240D01*
X83813040Y-40723242D01*
X84032403Y-40814104D01*
X84032404Y-40814104D01*
X84032406Y-40814105D01*
X84263289Y-40869535D01*
X84500000Y-40888165D01*
X84612332Y-40879324D01*
X84680704Y-40893687D01*
X84730461Y-40942737D01*
X84745801Y-41010902D01*
X84745675Y-41012669D01*
X84736835Y-41124999D01*
X84745675Y-41237329D01*
X84731310Y-41305706D01*
X84682259Y-41355462D01*
X84614094Y-41370801D01*
X84612329Y-41370675D01*
X84500000Y-41361835D01*
X84263285Y-41380465D01*
X84032404Y-41435895D01*
X84032402Y-41435895D01*
X83813040Y-41526757D01*
X83813037Y-41526759D01*
X83610589Y-41650820D01*
X83610586Y-41650821D01*
X83430031Y-41805031D01*
X83275821Y-41985586D01*
X83275820Y-41985589D01*
X83151759Y-42188037D01*
X83151757Y-42188040D01*
X83060895Y-42407402D01*
X83060895Y-42407404D01*
X83005465Y-42638285D01*
X82986835Y-42874999D01*
X83005465Y-43111714D01*
X83060895Y-43342595D01*
X83060895Y-43342597D01*
X83151757Y-43561959D01*
X83151759Y-43561962D01*
X83275820Y-43764410D01*
X83275821Y-43764413D01*
X83275824Y-43764416D01*
X83430031Y-43944969D01*
X83569797Y-44064340D01*
X83610586Y-44099178D01*
X83610589Y-44099179D01*
X83813037Y-44223240D01*
X83813040Y-44223242D01*
X84032403Y-44314104D01*
X84032404Y-44314104D01*
X84032406Y-44314105D01*
X84263289Y-44369535D01*
X84500000Y-44388165D01*
X84612332Y-44379324D01*
X84680704Y-44393687D01*
X84730461Y-44442737D01*
X84745801Y-44510902D01*
X84745675Y-44512669D01*
X84736835Y-44624999D01*
X84755465Y-44861714D01*
X84810895Y-45092595D01*
X84810895Y-45092597D01*
X84874572Y-45246327D01*
X84882041Y-45315796D01*
X84850766Y-45378275D01*
X84790677Y-45413927D01*
X84720851Y-45411433D01*
X84712559Y-45408340D01*
X84685994Y-45397336D01*
X84433683Y-45336762D01*
X84175000Y-45316403D01*
X83916316Y-45336762D01*
X83664007Y-45397336D01*
X83424282Y-45496633D01*
X83203042Y-45632210D01*
X83203037Y-45632213D01*
X83005730Y-45800730D01*
X82837213Y-45998037D01*
X82837210Y-45998042D01*
X82701633Y-46219282D01*
X82602336Y-46459007D01*
X82541762Y-46711316D01*
X82521403Y-46969999D01*
X54433500Y-46969999D01*
X54433500Y-35392292D01*
X54434028Y-35384227D01*
X54438535Y-35350000D01*
X54433500Y-35311756D01*
X54418481Y-35197676D01*
X54360463Y-35057610D01*
X54359824Y-35055912D01*
X54340951Y-35031316D01*
X54289639Y-34964445D01*
X54289637Y-34964443D01*
X54271444Y-34940733D01*
X54266157Y-34933842D01*
X54248784Y-34920512D01*
X54238775Y-34912832D01*
X54232685Y-34907491D01*
X53536319Y-34211125D01*
X53502834Y-34149802D01*
X53500000Y-34123444D01*
X53500000Y-27924500D01*
X53519685Y-27857461D01*
X53572489Y-27811706D01*
X53624000Y-27800500D01*
X103626000Y-27800500D01*
X103693039Y-27820185D01*
G37*
%TD.AperFunction*%
%TD*%
M02*
