M48
; DRILL file {KiCad 7.0.7+dfsg-1} date Thu 07 Sep 2023 11:36:28 PM CDT
; FORMAT={-:-/ absolute / inch / decimal}
; #@! TF.CreationDate,2023-09-07T23:36:28-05:00
; #@! TF.GenerationSoftware,Kicad,Pcbnew,7.0.7+dfsg-1
; #@! TF.FileFunction,Plated,1,4,PTH
FMAT,2
INCH
; #@! TA.AperFunction,Plated,PTH,ViaDrill
T1C0.0118
; #@! TA.AperFunction,Plated,PTH,ViaDrill
T2C0.0157
; #@! TA.AperFunction,Plated,PTH,ViaDrill
T3C0.0394
; #@! TA.AperFunction,Plated,PTH,ComponentDrill
T4C0.0394
; #@! TA.AperFunction,Plated,PTH,ComponentDrill
T5C0.0598
%
G90
G05
T1
X2.0276Y-2.8937
X2.0276Y-3.3661
X2.0276Y-3.5925
X2.0276Y-3.8189
X2.0276Y-4.0453
X2.0276Y-4.2717
X2.0276Y-4.9508
X2.0374Y-1.3091
X2.0374Y-1.5354
X2.0374Y-1.7618
X2.0374Y-1.9882
X2.0374Y-2.2146
X2.0374Y-2.4409
X2.0374Y-2.6673
X2.0374Y-4.498
X2.0374Y-4.7244
X2.4114Y-2.8642
X2.4114Y-2.9232
X2.4114Y-2.9793
X2.4114Y-3.0315
X2.4114Y-3.0709
X2.4114Y-3.1299
X2.4114Y-3.1791
X2.4114Y-3.2283
X2.4302Y-2.8937
X2.4311Y-2.8346
X2.4311Y-2.9528
X2.4311Y-3.0059
X2.4311Y-3.1004
X2.4337Y-3.1535
X2.4337Y-3.2519
X2.4337Y-3.2027
X2.6575Y-2.7657
X2.6778Y-2.7444
X2.6993Y-2.7241
X2.72Y-2.7032
X2.7362Y-3.563
X2.7409Y-2.6823
X2.7461Y-3.189
X2.7587Y-3.5405
X2.7618Y-2.6614
X2.7796Y-3.5197
X2.7827Y-2.6406
X2.8004Y-3.4988
X2.8035Y-2.6197
X2.8213Y-3.4779
X2.8248Y-3.6516
X2.8421Y-3.457
X2.8636Y-3.4368
X2.8642Y-3.6516
X2.8839Y-3.4154
X2.9035Y-3.2972
X2.9326Y-2.8051
X2.9728Y-2.8049
X3.0413Y-3.0512
X3.0709Y-3.0217
X3.0709Y-3.0807
X3.0902Y-3.4264
X3.1004Y-2.9921
X3.1004Y-3.0512
X3.1004Y-3.1102
X3.1124Y-3.4458
X3.1299Y-3.0217
X3.1299Y-3.0807
X3.1328Y-3.4674
X3.1542Y-3.4877
X3.1594Y-3.0512
X3.175Y-3.5087
X3.185Y-3.1447
X3.185Y-3.189
X3.185Y-3.2313
X3.185Y-3.2756
X3.2Y-3.5293
X3.2087Y-3.1654
X3.2087Y-3.2107
X3.2087Y-3.252
X3.2087Y-3.2972
X3.225Y-3.5504
X3.25Y-3.575
X3.2658Y-2.8051
X3.2972Y-2.8051
X3.3366Y-2.8642
X3.4Y-3.45
X3.4646Y-2.8622
X3.4646Y-2.8937
X3.4646Y-2.9252
X3.5039Y-2.9331
X3.7797Y-3.035
X3.78Y-2.88
X3.78Y-2.93
X3.78Y-2.98
X3.78Y-3.08
X3.78Y-3.1309
X3.78Y-3.18
X3.78Y-3.23
X3.805Y-2.855
X3.805Y-2.905
X3.805Y-2.955
X3.805Y-3.01
X3.805Y-3.105
X3.805Y-3.155
X3.805Y-3.205
X3.805Y-3.255
X4.1609Y-4.7859
X4.1628Y-1.3872
X4.1634Y-1.6142
X4.1634Y-1.8406
X4.1634Y-2.0669
X4.1634Y-2.2933
X4.1634Y-2.5197
X4.1634Y-2.75
X4.1634Y-3.2087
X4.1634Y-3.4252
X4.1634Y-3.6516
X4.1634Y-3.878
X4.1634Y-4.1043
X4.1634Y-4.3307
X4.1634Y-4.5571
X4.1635Y-1.1615
T2
X1.4272Y-2.0177
X1.4272Y-2.9035
X1.4272Y-3.1988
X1.4272Y-4.0846
X2.313Y-4.0354
X2.313Y-4.0846
X2.3622Y-4.0354
X2.3622Y-4.0846
X2.4114Y-4.0354
X2.4114Y-4.0846
X2.4114Y-4.1339
X2.4114Y-4.1831
X2.4114Y-4.2323
X2.4114Y-4.2815
X2.4114Y-4.3307
X2.4114Y-4.3799
X2.4114Y-4.4291
X2.4606Y-4.0354
X2.4606Y-4.0846
X2.4606Y-4.1339
X2.4606Y-4.1831
X2.4606Y-4.2323
X2.4606Y-4.2815
X2.4606Y-4.3307
X2.4606Y-4.3799
X2.4606Y-4.4291
X2.5098Y-4.0354
X2.5098Y-4.0846
X2.5591Y-4.0354
X2.5591Y-4.0846
X2.5787Y-3.622
X2.6083Y-4.1339
X2.6083Y-4.1831
X2.6083Y-4.2323
X2.6083Y-4.2815
X2.6083Y-4.3307
X2.6083Y-4.3799
X2.6083Y-4.4291
X2.6378Y-3.8406
X2.6575Y-4.0846
X2.6575Y-4.1339
X2.6575Y-4.1831
X2.6575Y-4.2323
X2.6575Y-4.2815
X2.6575Y-4.3307
X2.6575Y-4.3799
X2.6575Y-4.4291
X2.7067Y-4.0354
X2.7067Y-4.0846
X2.7067Y-4.2323
X2.7067Y-4.2815
X2.7559Y-3.8228
X2.7559Y-4.0354
X2.7559Y-4.0846
X2.7559Y-4.2323
X2.7559Y-4.2815
X2.8051Y-4.0846
X2.8051Y-4.1339
X2.8051Y-4.1831
X2.8051Y-4.2323
X2.8051Y-4.2815
X2.8051Y-4.3307
X2.8051Y-4.3799
X2.8051Y-4.4291
X2.8543Y-4.1339
X2.8543Y-4.1831
X2.8543Y-4.2323
X2.8543Y-4.2815
X2.8543Y-4.3307
X2.8543Y-4.3799
X2.8543Y-4.4291
X2.8642Y-3.002
X2.8642Y-3.0512
X2.9035Y-3.2579
X2.9134Y-3.6614
X2.9134Y-3.8484
X2.9528Y-4.0354
X2.9528Y-4.0846
X2.9528Y-4.1339
X2.9528Y-4.1831
X2.9528Y-4.2323
X2.9528Y-4.2815
X2.9528Y-4.3307
X2.9528Y-4.3799
X2.9528Y-4.4291
X3.002Y-4.0354
X3.002Y-4.0846
X3.002Y-4.1339
X3.002Y-4.1831
X3.002Y-4.2323
X3.002Y-4.2815
X3.002Y-4.3307
X3.002Y-4.3799
X3.002Y-4.4291
X3.0512Y-4.3799
X3.0512Y-4.4291
X3.1004Y-4.3799
X3.1004Y-4.4291
X3.1496Y-4.3799
X3.1496Y-4.4291
X3.1988Y-4.3799
X3.1988Y-4.4291
X3.2382Y-2.8346
X3.248Y-4.0354
X3.248Y-4.0846
X3.248Y-4.1339
X3.248Y-4.1831
X3.248Y-4.2323
X3.248Y-4.2815
X3.248Y-4.3307
X3.2579Y-2.6772
X3.2972Y-4.0354
X3.2972Y-4.0846
X3.2972Y-4.1339
X3.2972Y-4.1831
X3.2972Y-4.2323
X3.2972Y-4.2815
X3.2972Y-4.3307
X3.2972Y-4.3799
X3.325Y-3.125
X3.3268Y-3.0709
X3.3465Y-4.3799
X3.3465Y-4.4291
X3.3957Y-4.3799
X3.3957Y-4.4291
X3.4449Y-4.3799
X3.4449Y-4.4291
X3.4449Y-4.7835
X3.4941Y-4.0354
X3.4941Y-4.0846
X3.4941Y-4.1339
X3.4941Y-4.1831
X3.4941Y-4.2323
X3.4941Y-4.2815
X3.4941Y-4.3307
X3.4941Y-4.3799
X3.5138Y-2.2736
X3.5433Y-4.0354
X3.5433Y-4.0846
X3.5433Y-4.1339
X3.5433Y-4.1831
X3.5433Y-4.2323
X3.5433Y-4.2815
X3.5433Y-4.3307
X3.5531Y-2.4016
X3.6417Y-4.0846
X3.6417Y-4.1339
X3.6417Y-4.1831
X3.6417Y-4.3307
X3.6417Y-4.3799
X3.6909Y-4.0354
X3.6909Y-4.0846
X3.6909Y-4.1339
X3.6909Y-4.1831
X3.6909Y-4.2323
X3.6909Y-4.3799
X3.6909Y-4.4291
X3.7402Y-4.0354
X3.7402Y-4.0846
X3.7402Y-4.1831
X3.7402Y-4.2323
X3.7402Y-4.3799
X3.7402Y-4.4291
X3.7894Y-4.0354
X3.7894Y-4.0846
X3.7894Y-4.2323
X3.7894Y-4.2815
X3.7894Y-4.3799
X3.7894Y-4.4291
X3.8386Y-4.0354
X3.8386Y-4.0846
X3.8386Y-4.2323
X3.8386Y-4.2815
X3.8386Y-4.3307
X3.8386Y-4.3799
X3.8386Y-4.4291
X3.8878Y-4.0846
X3.8878Y-4.1339
X3.8878Y-4.2815
X3.8878Y-4.3307
X3.8878Y-4.3799
X4.7736Y-2.9232
X4.7736Y-3.1791
X4.7736Y-4.0846
X4.7835Y-2.0177
T3
X2.7362Y-1.5492
X2.7362Y-1.687
X2.8051Y-1.4803
X2.8051Y-1.6181
X2.8051Y-1.7559
X2.874Y-1.5492
X2.874Y-1.687
X3.3268Y-1.5502
X3.3268Y-1.688
X3.3957Y-1.4813
X3.3957Y-1.6191
X3.3957Y-1.7569
X3.4646Y-1.5502
X3.4646Y-1.688
T4
X1.623Y-4.2004
X1.623Y-4.4268
X1.623Y-4.6531
X1.623Y-4.8795
X1.624Y-2.1358
X1.624Y-2.3622
X1.624Y-2.5886
X1.624Y-2.815
X1.624Y-3.2949
X1.624Y-3.5213
X1.624Y-3.7476
X1.624Y-3.974
X1.625Y-1.2303
X1.625Y-1.4567
X1.625Y-1.6831
X1.625Y-1.9094
X1.723Y-4.2004
X1.723Y-4.4268
X1.723Y-4.6531
X1.723Y-4.8795
X1.724Y-2.1358
X1.724Y-2.3622
X1.724Y-2.5886
X1.724Y-2.815
X1.724Y-3.2949
X1.724Y-3.5213
X1.724Y-3.7476
X1.724Y-3.974
X1.725Y-1.2303
X1.725Y-1.4567
X1.725Y-1.6831
X1.725Y-1.9094
X1.823Y-4.2004
X1.823Y-4.4268
X1.823Y-4.6531
X1.823Y-4.8795
X1.824Y-2.1358
X1.824Y-2.3622
X1.824Y-2.5886
X1.824Y-2.815
X1.824Y-3.2949
X1.824Y-3.5213
X1.824Y-3.7476
X1.824Y-3.974
X1.825Y-1.2303
X1.825Y-1.4567
X1.825Y-1.6831
X1.825Y-1.9094
X2.4554Y-2.5492
X2.6523Y-2.5492
X2.8839Y-2.1109
X2.8839Y-2.3078
X3.1093Y-3.8189
X3.2093Y-3.8189
X3.3093Y-3.8189
X3.562Y-3.8189
X3.6112Y-2.6667
X3.6112Y-2.7667
X3.662Y-3.8189
X3.7112Y-2.6667
X3.7112Y-2.7667
X3.8112Y-2.6667
X3.8112Y-2.7667
X4.3768Y-4.1945
X4.3768Y-4.4209
X4.3768Y-4.6472
X4.3768Y-4.8736
X4.3778Y-2.1299
X4.3778Y-2.3563
X4.3778Y-2.5827
X4.3778Y-2.8091
X4.3778Y-3.289
X4.3778Y-3.5154
X4.3778Y-3.7417
X4.3778Y-3.9681
X4.3787Y-1.2244
X4.3787Y-1.4508
X4.3787Y-1.6772
X4.3787Y-1.9035
X4.4768Y-4.1945
X4.4768Y-4.4209
X4.4768Y-4.6472
X4.4768Y-4.8736
X4.4778Y-2.1299
X4.4778Y-2.3563
X4.4778Y-2.5827
X4.4778Y-2.8091
X4.4778Y-3.289
X4.4778Y-3.5154
X4.4778Y-3.7417
X4.4778Y-3.9681
X4.4787Y-1.2244
X4.4787Y-1.4508
X4.4787Y-1.6772
X4.4787Y-1.9035
X4.5768Y-4.1945
X4.5768Y-4.4209
X4.5768Y-4.6472
X4.5768Y-4.8736
X4.5778Y-2.1299
X4.5778Y-2.3563
X4.5778Y-2.5827
X4.5778Y-2.8091
X4.5778Y-3.289
X4.5778Y-3.5154
X4.5778Y-3.7417
X4.5778Y-3.9681
X4.5787Y-1.2244
X4.5787Y-1.4508
X4.5787Y-1.6772
X4.5787Y-1.9035
T5
X2.7234Y-1.3894
X2.7234Y-1.8492
X2.8809Y-1.3894
X2.8809Y-1.8492
X3.314Y-1.3894
X3.314Y-1.8492
X3.4715Y-1.3894
X3.4715Y-1.8492
T0
M30
