%TF.GenerationSoftware,KiCad,Pcbnew,7.0.7+dfsg-1*%
%TF.CreationDate,2023-09-07T23:36:34-05:00*%
%TF.ProjectId,unified_control_board,756e6966-6965-4645-9f63-6f6e74726f6c,rev?*%
%TF.SameCoordinates,Original*%
%TF.FileFunction,Soldermask,Bot*%
%TF.FilePolarity,Negative*%
%FSLAX46Y46*%
G04 Gerber Fmt 4.6, Leading zero omitted, Abs format (unit mm)*
G04 Created by KiCad (PCBNEW 7.0.7+dfsg-1) date 2023-09-07 23:36:34*
%MOMM*%
%LPD*%
G01*
G04 APERTURE LIST*
%ADD10R,1.700000X1.700000*%
%ADD11O,1.700000X1.700000*%
%ADD12C,2.200000*%
%ADD13C,2.280000*%
%ADD14R,2.000000X2.000000*%
%ADD15C,2.000000*%
G04 APERTURE END LIST*
D10*
%TO.C,J13*%
X41225000Y-106690000D03*
D11*
X43765000Y-106690000D03*
X46305000Y-106690000D03*
%TD*%
D10*
%TO.C,J15*%
X41225000Y-118190000D03*
D11*
X43765000Y-118190000D03*
X46305000Y-118190000D03*
%TD*%
D10*
%TO.C,J32*%
X116300000Y-31100000D03*
D11*
X113760000Y-31100000D03*
X111220000Y-31100000D03*
%TD*%
D10*
%TO.C,J34*%
X91725000Y-70275000D03*
D11*
X91725000Y-67735000D03*
X94265000Y-70275000D03*
X94265000Y-67735000D03*
X96805000Y-70275000D03*
X96805000Y-67735000D03*
%TD*%
D10*
%TO.C,J35*%
X78975000Y-97000000D03*
D11*
X81515000Y-97000000D03*
X84055000Y-97000000D03*
%TD*%
D10*
%TO.C,J7*%
X41250000Y-65750000D03*
D11*
X43790000Y-65750000D03*
X46330000Y-65750000D03*
%TD*%
D10*
%TO.C,J20*%
X116250000Y-106540000D03*
D11*
X113710000Y-106540000D03*
X111170000Y-106540000D03*
%TD*%
D10*
%TO.C,J31*%
X116300000Y-36850000D03*
D11*
X113760000Y-36850000D03*
X111220000Y-36850000D03*
%TD*%
D10*
%TO.C,J22*%
X116275000Y-95040000D03*
D11*
X113735000Y-95040000D03*
X111195000Y-95040000D03*
%TD*%
D10*
%TO.C,J14*%
X41225000Y-112440000D03*
D11*
X43765000Y-112440000D03*
X46305000Y-112440000D03*
%TD*%
D12*
%TO.C,H3*%
X125500000Y-30750000D03*
%TD*%
D10*
%TO.C,J10*%
X41250000Y-89440000D03*
D11*
X43790000Y-89440000D03*
X46330000Y-89440000D03*
%TD*%
D10*
%TO.C,J25*%
X116275000Y-71350000D03*
D11*
X113735000Y-71350000D03*
X111195000Y-71350000D03*
%TD*%
D10*
%TO.C,J1*%
X41275000Y-31250000D03*
D11*
X43815000Y-31250000D03*
X46355000Y-31250000D03*
%TD*%
D10*
%TO.C,J23*%
X116275000Y-89290000D03*
D11*
X113735000Y-89290000D03*
X111195000Y-89290000D03*
%TD*%
D13*
%TO.C,J33*%
X69175000Y-46970000D03*
X73175000Y-46970000D03*
X69175000Y-35290000D03*
X73175000Y-35290000D03*
X84175000Y-46970000D03*
X84175000Y-35290000D03*
X88175000Y-46970000D03*
X88175000Y-35290000D03*
%TD*%
D10*
%TO.C,J8*%
X41250000Y-71500000D03*
D11*
X43790000Y-71500000D03*
X46330000Y-71500000D03*
%TD*%
D10*
%TO.C,J28*%
X116275000Y-54100000D03*
D11*
X113735000Y-54100000D03*
X111195000Y-54100000D03*
%TD*%
D12*
%TO.C,H4*%
X32000000Y-30750000D03*
%TD*%
D10*
%TO.C,J3*%
X41275000Y-42750000D03*
D11*
X43815000Y-42750000D03*
X46355000Y-42750000D03*
%TD*%
D12*
%TO.C,H2*%
X32000000Y-124250000D03*
%TD*%
D14*
%TO.C,C8*%
X73250000Y-58617677D03*
D15*
X73250000Y-53617677D03*
%TD*%
D10*
%TO.C,J26*%
X116275000Y-65600000D03*
D11*
X113735000Y-65600000D03*
X111195000Y-65600000D03*
%TD*%
D10*
%TO.C,J17*%
X116250000Y-123790000D03*
D11*
X113710000Y-123790000D03*
X111170000Y-123790000D03*
%TD*%
D10*
%TO.C,J29*%
X116300000Y-48350000D03*
D11*
X113760000Y-48350000D03*
X111220000Y-48350000D03*
%TD*%
D10*
%TO.C,J6*%
X41250000Y-60000000D03*
D11*
X43790000Y-60000000D03*
X46330000Y-60000000D03*
%TD*%
D10*
%TO.C,J12*%
X41250000Y-100940000D03*
D11*
X43790000Y-100940000D03*
X46330000Y-100940000D03*
%TD*%
D10*
%TO.C,J4*%
X41275000Y-48500000D03*
D11*
X43815000Y-48500000D03*
X46355000Y-48500000D03*
%TD*%
D10*
%TO.C,J9*%
X41250000Y-83690000D03*
D11*
X43790000Y-83690000D03*
X46330000Y-83690000D03*
%TD*%
D10*
%TO.C,J27*%
X116275000Y-59850000D03*
D11*
X113735000Y-59850000D03*
X111195000Y-59850000D03*
%TD*%
D10*
%TO.C,J11*%
X41250000Y-95190000D03*
D11*
X43790000Y-95190000D03*
X46330000Y-95190000D03*
%TD*%
D10*
%TO.C,J21*%
X116275000Y-100790000D03*
D11*
X113735000Y-100790000D03*
X111195000Y-100790000D03*
%TD*%
D10*
%TO.C,J16*%
X41225000Y-123940000D03*
D11*
X43765000Y-123940000D03*
X46305000Y-123940000D03*
%TD*%
D10*
%TO.C,J19*%
X116250000Y-112290000D03*
D11*
X113710000Y-112290000D03*
X111170000Y-112290000D03*
%TD*%
D10*
%TO.C,J2*%
X41275000Y-37000000D03*
D11*
X43815000Y-37000000D03*
X46355000Y-37000000D03*
%TD*%
D12*
%TO.C,H1*%
X125250000Y-124000000D03*
%TD*%
D10*
%TO.C,J24*%
X116275000Y-83540000D03*
D11*
X113735000Y-83540000D03*
X111195000Y-83540000D03*
%TD*%
D15*
%TO.C,C7*%
X62367677Y-64750000D03*
D14*
X67367677Y-64750000D03*
%TD*%
D10*
%TO.C,J5*%
X41250000Y-54250000D03*
D11*
X43790000Y-54250000D03*
X46330000Y-54250000D03*
%TD*%
D10*
%TO.C,J30*%
X116300000Y-42600000D03*
D11*
X113760000Y-42600000D03*
X111220000Y-42600000D03*
%TD*%
D10*
%TO.C,J36*%
X90475000Y-97000000D03*
D11*
X93015000Y-97000000D03*
%TD*%
D10*
%TO.C,J18*%
X116250000Y-118040000D03*
D11*
X113710000Y-118040000D03*
X111170000Y-118040000D03*
%TD*%
M02*
