%TF.GenerationSoftware,KiCad,Pcbnew,7.0.7+dfsg-1*%
%TF.CreationDate,2023-09-07T23:36:34-05:00*%
%TF.ProjectId,unified_control_board,756e6966-6965-4645-9f63-6f6e74726f6c,rev?*%
%TF.SameCoordinates,Original*%
%TF.FileFunction,Copper,L2,Inr*%
%TF.FilePolarity,Positive*%
%FSLAX46Y46*%
G04 Gerber Fmt 4.6, Leading zero omitted, Abs format (unit mm)*
G04 Created by KiCad (PCBNEW 7.0.7+dfsg-1) date 2023-09-07 23:36:34*
%MOMM*%
%LPD*%
G01*
G04 APERTURE LIST*
%ADD10C,0.300000*%
%TA.AperFunction,NonConductor*%
%ADD11C,0.300000*%
%TD*%
%TA.AperFunction,ComponentPad*%
%ADD12R,1.700000X1.700000*%
%TD*%
%TA.AperFunction,ComponentPad*%
%ADD13O,1.700000X1.700000*%
%TD*%
%TA.AperFunction,ComponentPad*%
%ADD14C,2.280000*%
%TD*%
%TA.AperFunction,ComponentPad*%
%ADD15R,2.000000X2.000000*%
%TD*%
%TA.AperFunction,ComponentPad*%
%ADD16C,2.000000*%
%TD*%
%TA.AperFunction,ViaPad*%
%ADD17C,2.000000*%
%TD*%
%TA.AperFunction,ViaPad*%
%ADD18C,0.600000*%
%TD*%
%TA.AperFunction,ViaPad*%
%ADD19C,0.800000*%
%TD*%
%TA.AperFunction,Conductor*%
%ADD20C,0.200000*%
%TD*%
%TA.AperFunction,Conductor*%
%ADD21C,0.150000*%
%TD*%
G04 APERTURE END LIST*
D10*
D11*
X38161653Y-76550828D02*
X38518796Y-78050828D01*
X38518796Y-78050828D02*
X38804510Y-76979400D01*
X38804510Y-76979400D02*
X39090225Y-78050828D01*
X39090225Y-78050828D02*
X39447368Y-76550828D01*
X40018796Y-78050828D02*
X40018796Y-77050828D01*
X40018796Y-76550828D02*
X39947368Y-76622257D01*
X39947368Y-76622257D02*
X40018796Y-76693685D01*
X40018796Y-76693685D02*
X40090225Y-76622257D01*
X40090225Y-76622257D02*
X40018796Y-76550828D01*
X40018796Y-76550828D02*
X40018796Y-76693685D01*
X40733082Y-77050828D02*
X40733082Y-78050828D01*
X40733082Y-77193685D02*
X40804511Y-77122257D01*
X40804511Y-77122257D02*
X40947368Y-77050828D01*
X40947368Y-77050828D02*
X41161654Y-77050828D01*
X41161654Y-77050828D02*
X41304511Y-77122257D01*
X41304511Y-77122257D02*
X41375940Y-77265114D01*
X41375940Y-77265114D02*
X41375940Y-78050828D01*
X42733083Y-77050828D02*
X42733083Y-78265114D01*
X42733083Y-78265114D02*
X42661654Y-78407971D01*
X42661654Y-78407971D02*
X42590225Y-78479400D01*
X42590225Y-78479400D02*
X42447368Y-78550828D01*
X42447368Y-78550828D02*
X42233083Y-78550828D01*
X42233083Y-78550828D02*
X42090225Y-78479400D01*
X42733083Y-77979400D02*
X42590225Y-78050828D01*
X42590225Y-78050828D02*
X42304511Y-78050828D01*
X42304511Y-78050828D02*
X42161654Y-77979400D01*
X42161654Y-77979400D02*
X42090225Y-77907971D01*
X42090225Y-77907971D02*
X42018797Y-77765114D01*
X42018797Y-77765114D02*
X42018797Y-77336542D01*
X42018797Y-77336542D02*
X42090225Y-77193685D01*
X42090225Y-77193685D02*
X42161654Y-77122257D01*
X42161654Y-77122257D02*
X42304511Y-77050828D01*
X42304511Y-77050828D02*
X42590225Y-77050828D01*
X42590225Y-77050828D02*
X42733083Y-77122257D01*
X43375940Y-77979400D02*
X43518797Y-78050828D01*
X43518797Y-78050828D02*
X43804511Y-78050828D01*
X43804511Y-78050828D02*
X43947368Y-77979400D01*
X43947368Y-77979400D02*
X44018797Y-77836542D01*
X44018797Y-77836542D02*
X44018797Y-77765114D01*
X44018797Y-77765114D02*
X43947368Y-77622257D01*
X43947368Y-77622257D02*
X43804511Y-77550828D01*
X43804511Y-77550828D02*
X43590226Y-77550828D01*
X43590226Y-77550828D02*
X43447368Y-77479400D01*
X43447368Y-77479400D02*
X43375940Y-77336542D01*
X43375940Y-77336542D02*
X43375940Y-77265114D01*
X43375940Y-77265114D02*
X43447368Y-77122257D01*
X43447368Y-77122257D02*
X43590226Y-77050828D01*
X43590226Y-77050828D02*
X43804511Y-77050828D01*
X43804511Y-77050828D02*
X43947368Y-77122257D01*
X46447369Y-77050828D02*
X46447369Y-78050828D01*
X45804511Y-77050828D02*
X45804511Y-77836542D01*
X45804511Y-77836542D02*
X45875940Y-77979400D01*
X45875940Y-77979400D02*
X46018797Y-78050828D01*
X46018797Y-78050828D02*
X46233083Y-78050828D01*
X46233083Y-78050828D02*
X46375940Y-77979400D01*
X46375940Y-77979400D02*
X46447369Y-77907971D01*
X47161654Y-77050828D02*
X47161654Y-78550828D01*
X47161654Y-77122257D02*
X47304512Y-77050828D01*
X47304512Y-77050828D02*
X47590226Y-77050828D01*
X47590226Y-77050828D02*
X47733083Y-77122257D01*
X47733083Y-77122257D02*
X47804512Y-77193685D01*
X47804512Y-77193685D02*
X47875940Y-77336542D01*
X47875940Y-77336542D02*
X47875940Y-77765114D01*
X47875940Y-77765114D02*
X47804512Y-77907971D01*
X47804512Y-77907971D02*
X47733083Y-77979400D01*
X47733083Y-77979400D02*
X47590226Y-78050828D01*
X47590226Y-78050828D02*
X47304512Y-78050828D01*
X47304512Y-78050828D02*
X47161654Y-77979400D01*
X48518797Y-77907971D02*
X48590226Y-77979400D01*
X48590226Y-77979400D02*
X48518797Y-78050828D01*
X48518797Y-78050828D02*
X48447369Y-77979400D01*
X48447369Y-77979400D02*
X48518797Y-77907971D01*
X48518797Y-77907971D02*
X48518797Y-78050828D01*
X48518797Y-77479400D02*
X48447369Y-76622257D01*
X48447369Y-76622257D02*
X48518797Y-76550828D01*
X48518797Y-76550828D02*
X48590226Y-76622257D01*
X48590226Y-76622257D02*
X48518797Y-77479400D01*
X48518797Y-77479400D02*
X48518797Y-76550828D01*
D12*
%TO.N,/PWM13*%
%TO.C,J13*%
X41225000Y-106690000D03*
D13*
%TO.N,+6V*%
X43765000Y-106690000D03*
%TO.N,Net-(D13-K)*%
X46305000Y-106690000D03*
%TD*%
D12*
%TO.N,/PWM15*%
%TO.C,J15*%
X41225000Y-118190000D03*
D13*
%TO.N,+6V*%
X43765000Y-118190000D03*
%TO.N,Net-(D15-K)*%
X46305000Y-118190000D03*
%TD*%
D12*
%TO.N,/PWM32*%
%TO.C,J32*%
X116300000Y-31100000D03*
D13*
%TO.N,+6V*%
X113760000Y-31100000D03*
%TO.N,Net-(D32-K)*%
X111220000Y-31100000D03*
%TD*%
D12*
%TO.N,/MISO*%
%TO.C,J34*%
X91725000Y-70275000D03*
D13*
%TO.N,VDD*%
X91725000Y-67735000D03*
%TO.N,/SCK*%
X94265000Y-70275000D03*
%TO.N,/MOSI*%
X94265000Y-67735000D03*
%TO.N,/RST*%
X96805000Y-70275000D03*
%TO.N,GND*%
X96805000Y-67735000D03*
%TD*%
D12*
%TO.N,/RxD_3v3*%
%TO.C,J35*%
X78975000Y-97000000D03*
D13*
%TO.N,/TxD_3v3*%
X81515000Y-97000000D03*
%TO.N,GND*%
X84055000Y-97000000D03*
%TD*%
D12*
%TO.N,/PWM7*%
%TO.C,J7*%
X41250000Y-65750000D03*
D13*
%TO.N,+6V*%
X43790000Y-65750000D03*
%TO.N,Net-(D7-K)*%
X46330000Y-65750000D03*
%TD*%
D12*
%TO.N,/PWM20*%
%TO.C,J20*%
X116250000Y-106540000D03*
D13*
%TO.N,+6V*%
X113710000Y-106540000D03*
%TO.N,Net-(D20-K)*%
X111170000Y-106540000D03*
%TD*%
D12*
%TO.N,/PWM31*%
%TO.C,J31*%
X116300000Y-36850000D03*
D13*
%TO.N,+6V*%
X113760000Y-36850000D03*
%TO.N,Net-(D31-K)*%
X111220000Y-36850000D03*
%TD*%
D12*
%TO.N,/PWM22*%
%TO.C,J22*%
X116275000Y-95040000D03*
D13*
%TO.N,+6V*%
X113735000Y-95040000D03*
%TO.N,Net-(D22-K)*%
X111195000Y-95040000D03*
%TD*%
D12*
%TO.N,/PWM14*%
%TO.C,J14*%
X41225000Y-112440000D03*
D13*
%TO.N,+6V*%
X43765000Y-112440000D03*
%TO.N,Net-(D14-K)*%
X46305000Y-112440000D03*
%TD*%
D12*
%TO.N,/PWM10*%
%TO.C,J10*%
X41250000Y-89440000D03*
D13*
%TO.N,+6V*%
X43790000Y-89440000D03*
%TO.N,Net-(D10-K)*%
X46330000Y-89440000D03*
%TD*%
D12*
%TO.N,/PWM25*%
%TO.C,J25*%
X116275000Y-71350000D03*
D13*
%TO.N,+6V*%
X113735000Y-71350000D03*
%TO.N,Net-(D25-K)*%
X111195000Y-71350000D03*
%TD*%
D12*
%TO.N,/PWM1*%
%TO.C,J1*%
X41275000Y-31250000D03*
D13*
%TO.N,+6V*%
X43815000Y-31250000D03*
%TO.N,Net-(D1-K)*%
X46355000Y-31250000D03*
%TD*%
D12*
%TO.N,/PWM23*%
%TO.C,J23*%
X116275000Y-89290000D03*
D13*
%TO.N,+6V*%
X113735000Y-89290000D03*
%TO.N,Net-(D23-K)*%
X111195000Y-89290000D03*
%TD*%
D14*
%TO.N,GND*%
%TO.C,J33*%
X69175000Y-46970000D03*
X73175000Y-46970000D03*
X69175000Y-35290000D03*
X73175000Y-35290000D03*
%TO.N,+6V*%
X84175000Y-46970000D03*
X84175000Y-35290000D03*
X88175000Y-46970000D03*
X88175000Y-35290000D03*
%TD*%
D12*
%TO.N,/PWM8*%
%TO.C,J8*%
X41250000Y-71500000D03*
D13*
%TO.N,+6V*%
X43790000Y-71500000D03*
%TO.N,Net-(D8-K)*%
X46330000Y-71500000D03*
%TD*%
D12*
%TO.N,/PWM28*%
%TO.C,J28*%
X116275000Y-54100000D03*
D13*
%TO.N,+6V*%
X113735000Y-54100000D03*
%TO.N,Net-(D28-K)*%
X111195000Y-54100000D03*
%TD*%
D12*
%TO.N,/PWM3*%
%TO.C,J3*%
X41275000Y-42750000D03*
D13*
%TO.N,+6V*%
X43815000Y-42750000D03*
%TO.N,Net-(D3-K)*%
X46355000Y-42750000D03*
%TD*%
D15*
%TO.N,+6V*%
%TO.C,C8*%
X73250000Y-58617677D03*
D16*
%TO.N,GND*%
X73250000Y-53617677D03*
%TD*%
D12*
%TO.N,/PWM26*%
%TO.C,J26*%
X116275000Y-65600000D03*
D13*
%TO.N,+6V*%
X113735000Y-65600000D03*
%TO.N,Net-(D26-K)*%
X111195000Y-65600000D03*
%TD*%
D12*
%TO.N,/PWM17*%
%TO.C,J17*%
X116250000Y-123790000D03*
D13*
%TO.N,+6V*%
X113710000Y-123790000D03*
%TO.N,Net-(D17-K)*%
X111170000Y-123790000D03*
%TD*%
D12*
%TO.N,/PWM29*%
%TO.C,J29*%
X116300000Y-48350000D03*
D13*
%TO.N,+6V*%
X113760000Y-48350000D03*
%TO.N,Net-(D29-K)*%
X111220000Y-48350000D03*
%TD*%
D12*
%TO.N,/PWM6*%
%TO.C,J6*%
X41250000Y-60000000D03*
D13*
%TO.N,+6V*%
X43790000Y-60000000D03*
%TO.N,Net-(D6-K)*%
X46330000Y-60000000D03*
%TD*%
D12*
%TO.N,/PWM12*%
%TO.C,J12*%
X41250000Y-100940000D03*
D13*
%TO.N,+6V*%
X43790000Y-100940000D03*
%TO.N,Net-(D12-K)*%
X46330000Y-100940000D03*
%TD*%
D12*
%TO.N,/PWM4*%
%TO.C,J4*%
X41275000Y-48500000D03*
D13*
%TO.N,+6V*%
X43815000Y-48500000D03*
%TO.N,Net-(D4-K)*%
X46355000Y-48500000D03*
%TD*%
D12*
%TO.N,/PWM9*%
%TO.C,J9*%
X41250000Y-83690000D03*
D13*
%TO.N,+6V*%
X43790000Y-83690000D03*
%TO.N,Net-(D9-K)*%
X46330000Y-83690000D03*
%TD*%
D12*
%TO.N,/PWM27*%
%TO.C,J27*%
X116275000Y-59850000D03*
D13*
%TO.N,+6V*%
X113735000Y-59850000D03*
%TO.N,Net-(D27-K)*%
X111195000Y-59850000D03*
%TD*%
D12*
%TO.N,/PWM11*%
%TO.C,J11*%
X41250000Y-95190000D03*
D13*
%TO.N,+6V*%
X43790000Y-95190000D03*
%TO.N,Net-(D11-K)*%
X46330000Y-95190000D03*
%TD*%
D12*
%TO.N,/PWM21*%
%TO.C,J21*%
X116275000Y-100790000D03*
D13*
%TO.N,+6V*%
X113735000Y-100790000D03*
%TO.N,Net-(D21-K)*%
X111195000Y-100790000D03*
%TD*%
D12*
%TO.N,/PWM16*%
%TO.C,J16*%
X41225000Y-123940000D03*
D13*
%TO.N,+6V*%
X43765000Y-123940000D03*
%TO.N,Net-(D16-K)*%
X46305000Y-123940000D03*
%TD*%
D12*
%TO.N,/PWM19*%
%TO.C,J19*%
X116250000Y-112290000D03*
D13*
%TO.N,+6V*%
X113710000Y-112290000D03*
%TO.N,Net-(D19-K)*%
X111170000Y-112290000D03*
%TD*%
D12*
%TO.N,/PWM2*%
%TO.C,J2*%
X41275000Y-37000000D03*
D13*
%TO.N,+6V*%
X43815000Y-37000000D03*
%TO.N,Net-(D2-K)*%
X46355000Y-37000000D03*
%TD*%
D12*
%TO.N,/PWM24*%
%TO.C,J24*%
X116275000Y-83540000D03*
D13*
%TO.N,+6V*%
X113735000Y-83540000D03*
%TO.N,Net-(D24-K)*%
X111195000Y-83540000D03*
%TD*%
D16*
%TO.N,GND*%
%TO.C,C7*%
X62367677Y-64750000D03*
D15*
%TO.N,+6V*%
X67367677Y-64750000D03*
%TD*%
D12*
%TO.N,/PWM5*%
%TO.C,J5*%
X41250000Y-54250000D03*
D13*
%TO.N,+6V*%
X43790000Y-54250000D03*
%TO.N,Net-(D5-K)*%
X46330000Y-54250000D03*
%TD*%
D12*
%TO.N,/PWM30*%
%TO.C,J30*%
X116300000Y-42600000D03*
D13*
%TO.N,+6V*%
X113760000Y-42600000D03*
%TO.N,Net-(D30-K)*%
X111220000Y-42600000D03*
%TD*%
D12*
%TO.N,+6V*%
%TO.C,J36*%
X90475000Y-97000000D03*
D13*
%TO.N,Net-(J36-Pin_2)*%
X93015000Y-97000000D03*
%TD*%
D12*
%TO.N,/PWM18*%
%TO.C,J18*%
X116250000Y-118040000D03*
D13*
%TO.N,+6V*%
X113710000Y-118040000D03*
%TO.N,Net-(D18-K)*%
X111170000Y-118040000D03*
%TD*%
D17*
%TO.N,+6V*%
X88000000Y-39375000D03*
X84500000Y-42875000D03*
X86250000Y-37625000D03*
X88000000Y-42875000D03*
X86250000Y-41125000D03*
X86250000Y-44625000D03*
X84500000Y-39375000D03*
%TO.N,GND*%
X71250000Y-44600000D03*
X73000000Y-42850000D03*
X69500000Y-42850000D03*
X71250000Y-41100000D03*
X73000000Y-39350000D03*
X69500000Y-39350000D03*
X71250000Y-37600000D03*
D18*
X78750000Y-79000000D03*
X79500000Y-78250000D03*
X78000000Y-78250000D03*
X78750000Y-77500000D03*
X79500000Y-76750000D03*
X80250000Y-77500000D03*
X77250000Y-77500000D03*
X78750000Y-76000000D03*
X78000000Y-76750000D03*
D19*
%TO.N,+3V3*%
X70000000Y-97100000D03*
X74000000Y-97750000D03*
%TO.N,VDD*%
X74000000Y-93000000D03*
D18*
%TO.N,/RxD*%
X72750000Y-92750000D03*
%TO.N,/TxD*%
X71750000Y-92750000D03*
D19*
%TO.N,GND*%
X81250000Y-112500000D03*
X70000000Y-107500000D03*
X70000000Y-102500000D03*
X66250000Y-107500000D03*
X58750000Y-102500000D03*
X98750000Y-103750000D03*
X97500000Y-112500000D03*
X92500000Y-111250000D03*
X77500000Y-112500000D03*
X72500000Y-107500000D03*
X83750000Y-110000000D03*
X76250000Y-102500000D03*
X82500000Y-107500000D03*
X76250000Y-112500000D03*
X93750000Y-102500000D03*
X67500000Y-111250000D03*
X95000000Y-106250000D03*
X80000000Y-112500000D03*
X76250000Y-105000000D03*
X72500000Y-112500000D03*
X83750000Y-108750000D03*
X97500000Y-103750000D03*
X75000000Y-108750000D03*
X83750000Y-107500000D03*
X96250000Y-111250000D03*
X62500000Y-106250000D03*
X88750000Y-102500000D03*
X65000000Y-103750000D03*
X96250000Y-107500000D03*
X97500000Y-110000000D03*
X93750000Y-106250000D03*
X61250000Y-105000000D03*
X88750000Y-103750000D03*
X90000000Y-107500000D03*
X66250000Y-111250000D03*
X76250000Y-111250000D03*
X72500000Y-111250000D03*
X86250000Y-112500000D03*
X96250000Y-103750000D03*
X61250000Y-111250000D03*
X66250000Y-106250000D03*
X90000000Y-103750000D03*
X95000000Y-102500000D03*
X61250000Y-103750000D03*
X62500000Y-111250000D03*
X90000000Y-106250000D03*
X93750000Y-111250000D03*
X61250000Y-102500000D03*
X67500000Y-108750000D03*
X71250000Y-110000000D03*
X90000000Y-108750000D03*
X65000000Y-102500000D03*
X71250000Y-112500000D03*
X67500000Y-103750000D03*
X66250000Y-108750000D03*
X83750000Y-111250000D03*
X76250000Y-106250000D03*
X71250000Y-106250000D03*
X71250000Y-103750000D03*
X71250000Y-108750000D03*
X93750000Y-103750000D03*
X88750000Y-108750000D03*
X95000000Y-107500000D03*
X66250000Y-110000000D03*
X95000000Y-103750000D03*
X66250000Y-112500000D03*
X68750000Y-103750000D03*
X62500000Y-108750000D03*
X98750000Y-108750000D03*
X75000000Y-102500000D03*
X70000000Y-108750000D03*
X82500000Y-103750000D03*
X93750000Y-107500000D03*
X81250000Y-111250000D03*
X90000000Y-105000000D03*
X82500000Y-106250000D03*
X95000000Y-112500000D03*
X63750000Y-102500000D03*
X90000000Y-102500000D03*
X62500000Y-102500000D03*
X78750000Y-111250000D03*
X83750000Y-102500000D03*
X61250000Y-112500000D03*
X62500000Y-112500000D03*
X93750000Y-112500000D03*
X88750000Y-111250000D03*
X76250000Y-107500000D03*
X97500000Y-102500000D03*
X76250000Y-108750000D03*
X83750000Y-103750000D03*
X76250000Y-110000000D03*
X68750000Y-102500000D03*
X98750000Y-105000000D03*
X71250000Y-107500000D03*
X63750000Y-103750000D03*
X97500000Y-107500000D03*
X84500000Y-78000000D03*
X61250000Y-108750000D03*
X72500000Y-105000000D03*
X85000000Y-111250000D03*
X61250000Y-107500000D03*
X77500000Y-111250000D03*
X60000000Y-102500000D03*
X97500000Y-108750000D03*
X62500000Y-107500000D03*
X75000000Y-105000000D03*
X82500000Y-105000000D03*
X72500000Y-110000000D03*
X86250000Y-111250000D03*
X75000000Y-112500000D03*
X67500000Y-110000000D03*
X97500000Y-111250000D03*
X87500000Y-111250000D03*
X98750000Y-110000000D03*
X92500000Y-103750000D03*
X67500000Y-112500000D03*
X88750000Y-106250000D03*
X61250000Y-106250000D03*
X88750000Y-105000000D03*
X83750000Y-105000000D03*
X72750000Y-77500000D03*
X90000000Y-110000000D03*
X92500000Y-106250000D03*
X76250000Y-103750000D03*
X93750000Y-105000000D03*
X58750000Y-103750000D03*
X61250000Y-110000000D03*
X78750000Y-112500000D03*
X60000000Y-103750000D03*
X80000000Y-111250000D03*
X71250000Y-111250000D03*
X82500000Y-110000000D03*
X75000000Y-106250000D03*
X72500000Y-106250000D03*
X87500000Y-112500000D03*
X96250000Y-102500000D03*
X68750000Y-107500000D03*
X96250000Y-108750000D03*
X68750000Y-108750000D03*
X70000000Y-103750000D03*
X88750000Y-110000000D03*
X67500000Y-107500000D03*
X67500000Y-106250000D03*
X75000000Y-107500000D03*
X62500000Y-103750000D03*
X75000000Y-103750000D03*
X85000000Y-112500000D03*
X98750000Y-111250000D03*
X95000000Y-111250000D03*
X72500000Y-108750000D03*
X67500000Y-105000000D03*
X82500000Y-102500000D03*
X83750000Y-106250000D03*
X62500000Y-110000000D03*
X75000000Y-111250000D03*
X66250000Y-105000000D03*
X71250000Y-105000000D03*
X82500000Y-108750000D03*
X92500000Y-105000000D03*
X62500000Y-105000000D03*
X88750000Y-107500000D03*
X75000000Y-110000000D03*
X96250000Y-112500000D03*
%TO.N,VDD*%
X84455000Y-79375000D03*
X82750000Y-68000600D03*
X89250000Y-57750000D03*
X73750000Y-82750000D03*
X72750000Y-76250000D03*
X90250000Y-61000000D03*
X82250000Y-72000000D03*
D18*
%TO.N,/MISO*%
X88000000Y-72700497D03*
%TO.N,/SCK*%
X88000000Y-74299503D03*
%TO.N,/MOSI*%
X88000000Y-73500000D03*
D19*
%TO.N,/RST*%
X92500000Y-110000000D03*
D18*
X82950497Y-71250000D03*
%TO.N,/TxD*%
X74487787Y-71250000D03*
%TO.N,/RxD*%
X75508070Y-71244946D03*
%TO.N,/FAN*%
X84750000Y-72750000D03*
X86360000Y-87630000D03*
%TO.N,/PWM1*%
X71209487Y-66540488D03*
%TO.N,/PWM2*%
X70679541Y-67070498D03*
%TO.N,/PWM3*%
X70149506Y-67600419D03*
%TO.N,/PWM5*%
X69089260Y-68660086D03*
%TO.N,/PWM6*%
X68561219Y-69191994D03*
%TO.N,/PWM7*%
X68017156Y-69707503D03*
%TO.N,/PWM8*%
X67500000Y-70250000D03*
%TO.N,/PWM9*%
X73250000Y-86750000D03*
%TO.N,/PWM10*%
X72735665Y-87295173D03*
%TO.N,/PWM11*%
X72188603Y-87807499D03*
%TO.N,/PWM12*%
X71660974Y-88339817D03*
%TO.N,/PWM13*%
X71130485Y-88869285D03*
%TO.N,/PWM14*%
X70600667Y-89399424D03*
%TO.N,/PWM15*%
X70070623Y-89929337D03*
%TO.N,/PWM16*%
X69500000Y-90500000D03*
%TO.N,/PWM17*%
X82550000Y-90805000D03*
%TO.N,/PWM18*%
X81915000Y-90180174D03*
%TO.N,/PWM19*%
X81280000Y-89644582D03*
%TO.N,/PWM20*%
X80645000Y-89120082D03*
%TO.N,/PWM21*%
X80117821Y-88587319D03*
%TO.N,/PWM22*%
X79573983Y-88071572D03*
%TO.N,/PWM23*%
X79053944Y-87524500D03*
%TO.N,/PWM24*%
X78490710Y-87030010D03*
%TO.N,/PWM25*%
X81500000Y-83750000D03*
%TO.N,/PWM26*%
X80900000Y-83200000D03*
%TO.N,/PWM27*%
X81500000Y-82600000D03*
%TO.N,/PWM28*%
X80900000Y-82075500D03*
%TO.N,/PWM29*%
X81500000Y-81551000D03*
%TO.N,/PWM30*%
X80900000Y-81000000D03*
%TO.N,/PWM31*%
X81500000Y-80400000D03*
%TO.N,/PWM32*%
X80900000Y-79875500D03*
%TO.N,Net-(Q1-G)*%
X61750000Y-72000000D03*
X51750000Y-33250000D03*
%TO.N,Net-(Q2-G)*%
X61250000Y-72750000D03*
X51750000Y-39000000D03*
%TO.N,Net-(Q3-G)*%
X61726027Y-73500000D03*
X51750000Y-44750000D03*
%TO.N,Net-(Q4-G)*%
X61250000Y-74250000D03*
X51750000Y-50500000D03*
%TO.N,Net-(Q5-G)*%
X61750000Y-75000000D03*
X51750000Y-56250000D03*
%TO.N,Net-(Q6-G)*%
X61250000Y-75674375D03*
X51750000Y-62000000D03*
%TO.N,Net-(Q7-G)*%
X61750000Y-76349068D03*
X51750000Y-67750000D03*
%TO.N,Net-(Q8-G)*%
X61250000Y-77000000D03*
X51500000Y-73500000D03*
%TO.N,Net-(Q9-G)*%
X61250000Y-78000000D03*
X51500000Y-85500000D03*
%TO.N,Net-(Q10-G)*%
X51500000Y-91250000D03*
X61750000Y-78750000D03*
%TO.N,Net-(Q11-G)*%
X61250000Y-79500000D03*
X51500000Y-97000000D03*
%TO.N,Net-(Q12-G)*%
X61815333Y-80099500D03*
X51500000Y-102750000D03*
%TO.N,Net-(Q13-G)*%
X61250000Y-80750000D03*
X51500000Y-108500000D03*
%TO.N,Net-(Q14-G)*%
X61815334Y-81349500D03*
X51750000Y-114250000D03*
%TO.N,Net-(Q15-G)*%
X51750000Y-120000000D03*
X61250000Y-82000000D03*
%TO.N,Net-(Q16-G)*%
X51500000Y-125750000D03*
X61815333Y-82599500D03*
%TO.N,/ENA16*%
X73750000Y-83750000D03*
X69750000Y-81000000D03*
%TO.N,/ENA32*%
X89000000Y-74500000D03*
X83750000Y-71250000D03*
D19*
%TO.N,+6V*%
X36250000Y-73750000D03*
X36250000Y-103750000D03*
X36250000Y-51250000D03*
X121250000Y-103750000D03*
X121250000Y-74250000D03*
X121250000Y-80750000D03*
X87500000Y-121500000D03*
X67000000Y-97550000D03*
X36250000Y-81250000D03*
X121500000Y-51250000D03*
D18*
%TO.N,Net-(Q17-G)*%
X96647000Y-82677000D03*
X105687500Y-121562500D03*
%TO.N,Net-(Q18-G)*%
X96012000Y-82042000D03*
X105750000Y-115750000D03*
D19*
%TO.N,+3V3*%
X65500000Y-92000000D03*
D18*
%TO.N,/PWM4*%
X69619661Y-68130530D03*
%TO.N,Net-(Q19-G)*%
X96647000Y-81407000D03*
X105750000Y-110000000D03*
%TO.N,Net-(Q20-G)*%
X105750000Y-104250000D03*
X96012000Y-80772000D03*
%TO.N,Net-(Q21-G)*%
X105750000Y-98500000D03*
X96647000Y-80137000D03*
%TO.N,Net-(Q22-G)*%
X105750000Y-92750000D03*
X96012000Y-79524500D03*
%TO.N,Net-(Q23-G)*%
X105750000Y-87000000D03*
X96647000Y-78867000D03*
%TO.N,Net-(Q24-G)*%
X105750000Y-81500000D03*
X96012000Y-78232000D03*
%TO.N,Net-(Q25-G)*%
X105750000Y-69850000D03*
X96004307Y-77089000D03*
%TO.N,Net-(Q26-G)*%
X96647000Y-76454000D03*
X105750000Y-64000000D03*
%TO.N,Net-(Q27-G)*%
X105750000Y-58250000D03*
X96012000Y-75692000D03*
%TO.N,Net-(Q28-G)*%
X96647000Y-75057000D03*
X105750000Y-52500000D03*
%TO.N,Net-(Q29-G)*%
X105750000Y-46750000D03*
X96012000Y-74422000D03*
%TO.N,Net-(Q30-G)*%
X105750000Y-41000000D03*
X96647000Y-73787000D03*
%TO.N,Net-(Q31-G)*%
X105735000Y-35235000D03*
X96012000Y-73152000D03*
%TO.N,Net-(Q32-G)*%
X105752500Y-29502500D03*
X96647000Y-72517000D03*
%TD*%
D20*
%TO.N,/RST*%
X91250000Y-101000000D02*
X91250000Y-107750000D01*
X92500000Y-110000000D02*
X91250000Y-108750000D01*
X91250000Y-108750000D02*
X91250000Y-107750000D01*
D21*
%TO.N,/PWM25*%
X81500000Y-83750000D02*
X83977208Y-83750000D01*
X113965000Y-73660000D02*
X116275000Y-71350000D01*
X83977208Y-83750000D02*
X86587208Y-86360000D01*
X86587208Y-86360000D02*
X98638528Y-86360000D01*
X98638528Y-86360000D02*
X111338528Y-73660000D01*
X111338528Y-73660000D02*
X113965000Y-73660000D01*
%TO.N,/PWM32*%
X80900000Y-79875500D02*
X83072556Y-79875500D01*
X106450000Y-37695000D02*
X110490000Y-33655000D01*
X83072556Y-79875500D02*
X87387056Y-84190000D01*
X97838680Y-84190000D02*
X106450000Y-75578680D01*
X87387056Y-84190000D02*
X97838680Y-84190000D01*
X106450000Y-75578680D02*
X106450000Y-37695000D01*
X110490000Y-33655000D02*
X113745000Y-33655000D01*
X113745000Y-33655000D02*
X116300000Y-31100000D01*
%TO.N,/PWM31*%
X81500000Y-80400000D02*
X83172792Y-80400000D01*
X83172792Y-80400000D02*
X87262792Y-84490000D01*
X87262792Y-84490000D02*
X97962944Y-84490000D01*
X113780000Y-39370000D02*
X116300000Y-36850000D01*
X97962944Y-84490000D02*
X106750000Y-75702944D01*
X106750000Y-75702944D02*
X106750000Y-43110000D01*
X106750000Y-43110000D02*
X110490000Y-39370000D01*
X110490000Y-39370000D02*
X113780000Y-39370000D01*
%TO.N,/PWM30*%
X80900000Y-81000000D02*
X83348528Y-81000000D01*
X98087208Y-84790000D02*
X107050000Y-75827208D01*
X83348528Y-81000000D02*
X87138528Y-84790000D01*
X87138528Y-84790000D02*
X98087208Y-84790000D01*
X107050000Y-75827208D02*
X107050000Y-48525000D01*
X107050000Y-48525000D02*
X110490000Y-45085000D01*
X113815000Y-45085000D02*
X116300000Y-42600000D01*
X110490000Y-45085000D02*
X113815000Y-45085000D01*
%TO.N,/PWM28*%
X80900000Y-82075500D02*
X83575500Y-82075500D01*
X83575500Y-82075500D02*
X86925000Y-85425000D01*
X86925000Y-85425000D02*
X98300736Y-85425000D01*
X113860000Y-56515000D02*
X116275000Y-54100000D01*
X98300736Y-85425000D02*
X107650000Y-76075736D01*
X107650000Y-76075736D02*
X107650000Y-59990000D01*
X111125000Y-56515000D02*
X113860000Y-56515000D01*
X107650000Y-59990000D02*
X111125000Y-56515000D01*
%TO.N,/PWM29*%
X81500000Y-81551000D02*
X83475264Y-81551000D01*
X83475264Y-81551000D02*
X87014264Y-85090000D01*
X87014264Y-85090000D02*
X98211472Y-85090000D01*
X98211472Y-85090000D02*
X107350000Y-75951472D01*
X107350000Y-53940000D02*
X110490000Y-50800000D01*
X107350000Y-75951472D02*
X107350000Y-53940000D01*
X110490000Y-50800000D02*
X113850000Y-50800000D01*
X113850000Y-50800000D02*
X116300000Y-48350000D01*
%TO.N,/PWM26*%
X80900000Y-83200000D02*
X83851472Y-83200000D01*
X83851472Y-83200000D02*
X86711472Y-86060000D01*
X86711472Y-86060000D02*
X98514264Y-86060000D01*
X98514264Y-86060000D02*
X108250000Y-76324264D01*
X108250000Y-70820000D02*
X111125000Y-67945000D01*
X108250000Y-76324264D02*
X108250000Y-70820000D01*
X111125000Y-67945000D02*
X113930000Y-67945000D01*
X113930000Y-67945000D02*
X116275000Y-65600000D01*
%TO.N,/PWM27*%
X81500000Y-82600000D02*
X83675736Y-82600000D01*
X83675736Y-82600000D02*
X86800736Y-85725000D01*
X98425000Y-85725000D02*
X107950000Y-76200000D01*
X86800736Y-85725000D02*
X98425000Y-85725000D01*
X107950000Y-76200000D02*
X107950000Y-65553782D01*
X107950000Y-65553782D02*
X111273782Y-62230000D01*
X111273782Y-62230000D02*
X113895000Y-62230000D01*
X113895000Y-62230000D02*
X116275000Y-59850000D01*
D20*
%TO.N,/FAN*%
X84750000Y-72750000D02*
X84750000Y-74500000D01*
X84750000Y-74500000D02*
X78250000Y-81000000D01*
X78250000Y-81000000D02*
X78250000Y-83000000D01*
X82880000Y-87630000D02*
X86360000Y-87630000D01*
X78250000Y-83000000D02*
X82880000Y-87630000D01*
%TO.N,/RST*%
X82950497Y-71250000D02*
X82950497Y-75733817D01*
X82950497Y-75733817D02*
X77850000Y-80834314D01*
X77850000Y-80834314D02*
X77850000Y-87600000D01*
X77850000Y-87600000D02*
X91250000Y-101000000D01*
D21*
%TO.N,/ENA32*%
X83750000Y-71250000D02*
X84750000Y-71250000D01*
X86500000Y-73612676D02*
X87761827Y-74874503D01*
X84750000Y-71250000D02*
X86500000Y-73000000D01*
X88625497Y-74874503D02*
X89000000Y-74500000D01*
X86500000Y-73000000D02*
X86500000Y-73612676D01*
X87761827Y-74874503D02*
X88625497Y-74874503D01*
%TO.N,/ENA16*%
X69750000Y-81000000D02*
X71000000Y-81000000D01*
X71000000Y-81000000D02*
X73750000Y-83750000D01*
D20*
%TO.N,/RST*%
X82950497Y-71250000D02*
X82950497Y-71200974D01*
X82950497Y-71200974D02*
X88151471Y-66000000D01*
X88151471Y-66000000D02*
X97500000Y-66000000D01*
X97500000Y-66000000D02*
X98500000Y-67000000D01*
X98500000Y-67000000D02*
X98500000Y-68580000D01*
X98500000Y-68580000D02*
X96805000Y-70275000D01*
%TO.N,/RxD*%
X72750000Y-92750000D02*
X72750000Y-91500000D01*
X72750000Y-91500000D02*
X75500000Y-88750000D01*
X75500000Y-88750000D02*
X75500000Y-71253016D01*
X75500000Y-71253016D02*
X75508070Y-71244946D01*
%TO.N,/TxD*%
X71750000Y-92750000D02*
X71750000Y-91750000D01*
X75000000Y-71762213D02*
X74487787Y-71250000D01*
X71750000Y-91750000D02*
X75000000Y-88500000D01*
X75000000Y-88500000D02*
X75000000Y-71762213D01*
%TO.N,/MISO*%
X88200497Y-72500000D02*
X91234314Y-72500000D01*
X91725000Y-72009314D02*
X91725000Y-70275000D01*
X88000000Y-72700497D02*
X88200497Y-72500000D01*
X91234314Y-72500000D02*
X91725000Y-72009314D01*
%TO.N,/SCK*%
X88000000Y-74299503D02*
X88049026Y-74299503D01*
X88049026Y-74299503D02*
X89048529Y-73300000D01*
X94265000Y-70600686D02*
X94265000Y-70275000D01*
X91565686Y-73300000D02*
X94265000Y-70600686D01*
X89048529Y-73300000D02*
X91565686Y-73300000D01*
%TO.N,/MOSI*%
X88649026Y-72900000D02*
X91400000Y-72900000D01*
X88049026Y-73500000D02*
X88649026Y-72900000D01*
X93000000Y-69000000D02*
X94265000Y-67735000D01*
X91400000Y-72900000D02*
X93000000Y-71300000D01*
X88000000Y-73500000D02*
X88049026Y-73500000D01*
X93000000Y-71300000D02*
X93000000Y-69000000D01*
D21*
%TO.N,/PWM1*%
X71209487Y-66540488D02*
X71050740Y-66699235D01*
X55000000Y-60056217D02*
X55000000Y-40000000D01*
X48750000Y-33750000D02*
X43775000Y-33750000D01*
X71050740Y-66699235D02*
X70897004Y-66545498D01*
X68768196Y-66545498D02*
X67631191Y-67682503D01*
X67631191Y-67682503D02*
X62626286Y-67682503D01*
X43775000Y-33750000D02*
X41275000Y-31250000D01*
X70897004Y-66545498D02*
X68768196Y-66545498D01*
X62626286Y-67682503D02*
X55000000Y-60056217D01*
X55000000Y-40000000D02*
X48750000Y-33750000D01*
%TO.N,/PWM2*%
X44025000Y-39750000D02*
X41275000Y-37000000D01*
X67755455Y-67982503D02*
X62502022Y-67982503D01*
X49000000Y-39750000D02*
X44025000Y-39750000D01*
X70366969Y-67075419D02*
X68662539Y-67075419D01*
X68662539Y-67075419D02*
X67755455Y-67982503D01*
X70679541Y-67070498D02*
X70520794Y-67229245D01*
X70520794Y-67229245D02*
X70366969Y-67075419D01*
X54700000Y-45450000D02*
X49000000Y-39750000D01*
X54700000Y-60180481D02*
X54700000Y-45450000D01*
X62502022Y-67982503D02*
X54700000Y-60180481D01*
%TO.N,/PWM3*%
X49000000Y-45500000D02*
X54400000Y-50900000D01*
X41275000Y-42750000D02*
X41275000Y-42775000D01*
X54400000Y-50900000D02*
X54400000Y-60304745D01*
X67879719Y-68282503D02*
X68561803Y-67600419D01*
X54400000Y-60304745D02*
X62377758Y-68282503D01*
X68561803Y-67600419D02*
X70149506Y-67600419D01*
X41275000Y-42775000D02*
X44000000Y-45500000D01*
X62377758Y-68282503D02*
X67879719Y-68282503D01*
X44000000Y-45500000D02*
X49000000Y-45500000D01*
%TO.N,/PWM5*%
X69089260Y-68660086D02*
X68930517Y-68818829D01*
X50246727Y-57000000D02*
X44000000Y-57000000D01*
X62129230Y-68882503D02*
X50246727Y-57000000D01*
X68930517Y-68818829D02*
X68778682Y-68666994D01*
X68128247Y-68882503D02*
X62129230Y-68882503D01*
X68778682Y-68666994D02*
X68343756Y-68666994D01*
X44000000Y-57000000D02*
X41250000Y-54250000D01*
X68343756Y-68666994D02*
X68128247Y-68882503D01*
%TO.N,/PWM6*%
X62004966Y-69182503D02*
X55572463Y-62750000D01*
X68551728Y-69182503D02*
X62004966Y-69182503D01*
X44000000Y-62750000D02*
X41250000Y-60000000D01*
X68561219Y-69191994D02*
X68551728Y-69182503D01*
X55572463Y-62750000D02*
X44000000Y-62750000D01*
%TO.N,/PWM7*%
X60898199Y-68500000D02*
X61880702Y-69482503D01*
X44000000Y-68500000D02*
X60898199Y-68500000D01*
X61880702Y-69482503D02*
X67792156Y-69482503D01*
X67792156Y-69482503D02*
X68017156Y-69707503D01*
X41250000Y-65750000D02*
X44000000Y-68500000D01*
%TO.N,/PWM8*%
X67500000Y-70250000D02*
X67032503Y-69782503D01*
X61756438Y-69782503D02*
X60773935Y-68800000D01*
X60773935Y-68800000D02*
X43950000Y-68800000D01*
X43950000Y-68800000D02*
X41250000Y-71500000D01*
X67032503Y-69782503D02*
X61756438Y-69782503D01*
%TO.N,/PWM9*%
X41250000Y-83690000D02*
X41250000Y-83750000D01*
X73250000Y-86750000D02*
X73091477Y-86908523D01*
X41250000Y-83750000D02*
X45629337Y-88129337D01*
X70366004Y-86770173D02*
X69006840Y-88129337D01*
X69006840Y-88129337D02*
X45629337Y-88129337D01*
X72953128Y-86770173D02*
X70366004Y-86770173D01*
X73091477Y-86908523D02*
X72953128Y-86770173D01*
%TO.N,/PWM10*%
X44760000Y-92950000D02*
X41250000Y-89440000D01*
X69131104Y-88429337D02*
X64297871Y-88429337D01*
X64297871Y-88429337D02*
X59777208Y-92950000D01*
X59777208Y-92950000D02*
X44760000Y-92950000D01*
X70277942Y-87282499D02*
X69131104Y-88429337D01*
X72722991Y-87282499D02*
X70277942Y-87282499D01*
X72735665Y-87295173D02*
X72722991Y-87282499D01*
%TO.N,/PWM11*%
X64422135Y-88729337D02*
X59901472Y-93250000D01*
X70169888Y-87814817D02*
X69255368Y-88729337D01*
X72188603Y-87807499D02*
X72029861Y-87966241D01*
X43190000Y-93250000D02*
X41250000Y-95190000D01*
X72029861Y-87966241D02*
X71878437Y-87814817D01*
X69255368Y-88729337D02*
X64422135Y-88729337D01*
X59901472Y-93250000D02*
X43190000Y-93250000D01*
X71878437Y-87814817D02*
X70169888Y-87814817D01*
%TO.N,/PWM12*%
X51250000Y-99000000D02*
X43190000Y-99000000D01*
X71660974Y-88339817D02*
X71502227Y-88498564D01*
X71347948Y-88344285D02*
X70064684Y-88344285D01*
X56700000Y-93550000D02*
X51250000Y-99000000D01*
X60025736Y-93550000D02*
X56700000Y-93550000D01*
X70064684Y-88344285D02*
X69379632Y-89029337D01*
X43190000Y-99000000D02*
X41250000Y-100940000D01*
X64546399Y-89029337D02*
X60025736Y-93550000D01*
X71502227Y-88498564D02*
X71347948Y-88344285D01*
X69379632Y-89029337D02*
X64546399Y-89029337D01*
%TO.N,/PWM13*%
X69958809Y-88874424D02*
X69503896Y-89329337D01*
X45924264Y-104750000D02*
X43165000Y-104750000D01*
X43165000Y-104750000D02*
X41225000Y-106690000D01*
X60150000Y-93850000D02*
X56824264Y-93850000D01*
X69503896Y-89329337D02*
X64670663Y-89329337D01*
X64670663Y-89329337D02*
X60150000Y-93850000D01*
X56824264Y-93850000D02*
X45924264Y-104750000D01*
X70971738Y-89028032D02*
X70818130Y-88874424D01*
X70818130Y-88874424D02*
X69958809Y-88874424D01*
X71130485Y-88869285D02*
X70971738Y-89028032D01*
%TO.N,/PWM14*%
X69628160Y-89629337D02*
X64794927Y-89629337D01*
X69853160Y-89404337D02*
X69628160Y-89629337D01*
X60274264Y-94150000D02*
X56948528Y-94150000D01*
X64794927Y-89629337D02*
X60274264Y-94150000D01*
X49750000Y-107000000D02*
X46250000Y-110500000D01*
X49750000Y-101348528D02*
X49750000Y-107000000D01*
X56948528Y-94150000D02*
X49750000Y-101348528D01*
X43165000Y-110500000D02*
X41225000Y-112440000D01*
X70600667Y-89399424D02*
X70441920Y-89558171D01*
X46250000Y-110500000D02*
X43165000Y-110500000D01*
X70441920Y-89558171D02*
X70288086Y-89404337D01*
X70288086Y-89404337D02*
X69853160Y-89404337D01*
%TO.N,/PWM15*%
X50050000Y-112450000D02*
X46250000Y-116250000D01*
X60398528Y-94450000D02*
X57072792Y-94450000D01*
X70070623Y-89929337D02*
X64919191Y-89929337D01*
X43165000Y-116250000D02*
X41225000Y-118190000D01*
X46250000Y-116250000D02*
X43165000Y-116250000D01*
X50050000Y-101472792D02*
X50050000Y-112450000D01*
X64919191Y-89929337D02*
X60398528Y-94450000D01*
X57072792Y-94450000D02*
X50050000Y-101472792D01*
%TO.N,/PWM16*%
X65043455Y-90229337D02*
X60522792Y-94750000D01*
X50350000Y-101597056D02*
X50350000Y-117900000D01*
X43165000Y-122000000D02*
X41225000Y-123940000D01*
X69229337Y-90229337D02*
X65043455Y-90229337D01*
X50350000Y-117900000D02*
X46250000Y-122000000D01*
X60522792Y-94750000D02*
X57197056Y-94750000D01*
X46250000Y-122000000D02*
X43165000Y-122000000D01*
X57197056Y-94750000D02*
X50350000Y-101597056D01*
X69500000Y-90500000D02*
X69229337Y-90229337D01*
%TO.N,/PWM17*%
X82550000Y-90805000D02*
X82874826Y-90480174D01*
X82874826Y-90480174D02*
X90480174Y-90480174D01*
X90480174Y-90480174D02*
X103540000Y-103540000D01*
X104775000Y-120015000D02*
X112475000Y-120015000D01*
X103540000Y-103540000D02*
X103540000Y-118780000D01*
X115535000Y-123790000D02*
X116250000Y-123790000D01*
X103540000Y-118780000D02*
X104775000Y-120015000D01*
X112475000Y-120015000D02*
X116250000Y-123790000D01*
%TO.N,/PWM18*%
X103840000Y-112095000D02*
X106045000Y-114300000D01*
X106045000Y-114300000D02*
X112510000Y-114300000D01*
X81915000Y-90180174D02*
X90604438Y-90180174D01*
X112510000Y-114300000D02*
X116250000Y-118040000D01*
X103840000Y-103415736D02*
X103840000Y-112095000D01*
X90604438Y-90180174D02*
X103840000Y-103415736D01*
%TO.N,/PWM19*%
X90728702Y-89880174D02*
X82357463Y-89880174D01*
X104775000Y-108585000D02*
X104140000Y-107950000D01*
X82121871Y-89644582D02*
X81280000Y-89644582D01*
X112545000Y-108585000D02*
X104775000Y-108585000D01*
X104140000Y-103291472D02*
X90728702Y-89880174D01*
X116250000Y-112290000D02*
X112545000Y-108585000D01*
X82357463Y-89880174D02*
X82121871Y-89644582D01*
X104140000Y-107950000D02*
X104140000Y-103291472D01*
%TO.N,/PWM20*%
X112580000Y-102870000D02*
X116250000Y-106540000D01*
X104142792Y-102870000D02*
X112580000Y-102870000D01*
X90852966Y-89580174D02*
X104142792Y-102870000D01*
X80645000Y-89120082D02*
X82021635Y-89120082D01*
X82481727Y-89580174D02*
X90852966Y-89580174D01*
X82021635Y-89120082D02*
X82481727Y-89580174D01*
%TO.N,/PWM21*%
X80117821Y-88587319D02*
X81913136Y-88587319D01*
X81913136Y-88587319D02*
X82605991Y-89280174D01*
X112640000Y-97155000D02*
X116275000Y-100790000D01*
X82605991Y-89280174D02*
X90977230Y-89280174D01*
X98852056Y-97155000D02*
X112640000Y-97155000D01*
X90977230Y-89280174D02*
X98852056Y-97155000D01*
%TO.N,/PWM22*%
X82730255Y-88980174D02*
X91101494Y-88980174D01*
X93561320Y-91440000D02*
X112675000Y-91440000D01*
X112675000Y-91440000D02*
X116275000Y-95040000D01*
X79573983Y-88071572D02*
X79583236Y-88062319D01*
X79583236Y-88062319D02*
X81812400Y-88062319D01*
X91101494Y-88980174D02*
X93561320Y-91440000D01*
X81812400Y-88062319D02*
X82730255Y-88980174D01*
%TO.N,/PWM23*%
X114425000Y-91140000D02*
X93685584Y-91140000D01*
X82854519Y-88680174D02*
X81698845Y-87524500D01*
X81698845Y-87524500D02*
X79053944Y-87524500D01*
X91225758Y-88680174D02*
X82854519Y-88680174D01*
X93685584Y-91140000D02*
X91225758Y-88680174D01*
X116275000Y-89290000D02*
X114425000Y-91140000D01*
%TO.N,/PWM24*%
X78521220Y-86999500D02*
X81598109Y-86999500D01*
X81598109Y-86999500D02*
X82978783Y-88380174D01*
X78490710Y-87030010D02*
X78521220Y-86999500D01*
X110490000Y-85725000D02*
X114090000Y-85725000D01*
X114090000Y-85725000D02*
X116275000Y-83540000D01*
X105375000Y-90840000D02*
X110490000Y-85725000D01*
X93809848Y-90840000D02*
X105375000Y-90840000D01*
X91350022Y-88380174D02*
X93809848Y-90840000D01*
X82978783Y-88380174D02*
X91350022Y-88380174D01*
%TO.N,/PWM4*%
X44025000Y-51250000D02*
X41275000Y-48500000D01*
X69619661Y-68130530D02*
X69460914Y-68289277D01*
X68451400Y-68135086D02*
X68003983Y-68582503D01*
X54100000Y-56350000D02*
X49000000Y-51250000D01*
X69460914Y-68289277D02*
X69306723Y-68135086D01*
X68003983Y-68582503D02*
X62253494Y-68582503D01*
X54100000Y-60429009D02*
X54100000Y-56350000D01*
X69306723Y-68135086D02*
X68451400Y-68135086D01*
X62253494Y-68582503D02*
X54100000Y-60429009D01*
X49000000Y-51250000D02*
X44025000Y-51250000D01*
%TD*%
M02*
